<?xml version="1.0" encoding="UTF-8" standalone="no"?>
<!-- Created with Inkscape (http://www.inkscape.org/) -->

<svg
   version="1.1"
   id="svg1"
   width="877"
   height="615"
   viewBox="0 0 877 615"
   sodipodi:docname="land.svg"
   xml:space="preserve"
   inkscape:version="1.3.2 (091e20e, 2023-11-25, custom)"
   inkscape:export-filename="land.png"
   inkscape:export-xdpi="96"
   inkscape:export-ydpi="96"
   xmlns:inkscape="http://www.inkscape.org/namespaces/inkscape"
   xmlns:sodipodi="http://sodipodi.sourceforge.net/DTD/sodipodi-0.dtd"
   xmlns="http://www.w3.org/2000/svg"
   xmlns:svg="http://www.w3.org/2000/svg"><sodipodi:namedview
     id="namedview1"
     pagecolor="#ffffff"
     bordercolor="#000000"
     borderopacity="0.25"
     inkscape:showpageshadow="2"
     inkscape:pageopacity="0.0"
     inkscape:pagecheckerboard="0"
     inkscape:deskcolor="#d1d1d1"
     inkscape:zoom="0.92439024"
     inkscape:cx="456.51715"
     inkscape:cy="168.219"
     inkscape:window-width="2560"
     inkscape:window-height="1351"
     inkscape:window-x="-9"
     inkscape:window-y="-9"
     inkscape:window-maximized="1"
     inkscape:current-layer="g55" /><defs
     id="defs1" /><g
     inkscape:groupmode="layer"
     inkscape:label="Image"
     id="g68"><g
       fill="none"
       stroke="#000000"
       stroke-width="1"
       fill-rule="evenodd"
       stroke-linecap="square"
       stroke-linejoin="bevel"
       id="g55"
       transform="matrix(2.0793927,0,0,2.0793927,0.12362946,-0.04217792)"><g
         fill="#afafaf"
         fill-opacity="0.4"
         stroke="#afafaf"
         stroke-opacity="0.4"
         stroke-width="0.840278"
         stroke-linecap="butt"
         stroke-linejoin="round"
         transform="scale(0.6)"
         font-family="'MS Shell Dlg 2'"
         font-size="7.8px"
         font-weight="400"
         font-style="normal"
         id="g12"><polyline
           fill="none"
           vector-effect="none"
           points="29,13 29,456 "
           id="polyline2" /><polyline
           fill="none"
           vector-effect="none"
           points="161,13 161,456 "
           id="polyline3" /><polyline
           fill="none"
           vector-effect="none"
           points="293,13 293,456 "
           id="polyline4" /><polyline
           fill="none"
           vector-effect="none"
           points="425,13 425,456 "
           id="polyline5" /><polyline
           fill="none"
           vector-effect="none"
           points="557,13 557,456 "
           id="polyline6" /><polyline
           fill="none"
           vector-effect="none"
           points="689,13 689,456 "
           id="polyline7" /><polyline
           fill="none"
           vector-effect="none"
           points="29,411.698 689,411.698 "
           id="polyline8" /><polyline
           fill="none"
           vector-effect="none"
           points="29,318.14 689,318.14 "
           id="polyline9" /><polyline
           fill="none"
           vector-effect="none"
           points="29,224.582 689,224.582 "
           id="polyline10" /><polyline
           fill="none"
           vector-effect="none"
           points="29,131.023 689,131.023 "
           id="polyline11" /><polyline
           fill="none"
           vector-effect="none"
           points="29,37.465 689,37.465 "
           id="polyline12" /></g><g
         fill="#afafaf"
         fill-opacity="1"
         stroke="#afafaf"
         stroke-opacity="1"
         stroke-width="1"
         stroke-linecap="square"
         stroke-linejoin="bevel"
         transform="matrix(0.6,0,0,0.6,214.2,292.088)"
         font-family="Helvetica"
         font-size="14px"
         font-weight="400"
         font-style="normal"
         id="g13"><text
           fill="#afafaf"
           fill-opacity="1"
           stroke="none"
           xml:space="preserve"
           x="0"
           y="0"
           font-family="Helvetica"
           font-size="14px"
           font-weight="400"
           font-style="normal"
           id="text12"> </text></g><g
         fill="#afafaf"
         fill-opacity="1"
         stroke="#afafaf"
         stroke-opacity="1"
         stroke-width="0.840278"
         stroke-linecap="butt"
         stroke-linejoin="round"
         transform="scale(0.6)"
         font-family="Helvetica"
         font-size="14px"
         font-weight="400"
         font-style="normal"
         id="g26"><polyline
           fill="none"
           vector-effect="none"
           points="29,456 689,456 "
           id="polyline13" /><polyline
           fill="none"
           vector-effect="none"
           points="29,13 689,13 "
           id="polyline14" /><polyline
           fill="none"
           vector-effect="none"
           points="29,456 29,449.4 "
           id="polyline15" /><polyline
           fill="none"
           vector-effect="none"
           points="29,19.6 29,13 "
           id="polyline16" /><polyline
           fill="none"
           vector-effect="none"
           points="161,456 161,449.4 "
           id="polyline17" /><polyline
           fill="none"
           vector-effect="none"
           points="161,19.6 161,13 "
           id="polyline18" /><polyline
           fill="none"
           vector-effect="none"
           points="293,456 293,449.4 "
           id="polyline19" /><polyline
           fill="none"
           vector-effect="none"
           points="293,19.6 293,13 "
           id="polyline20" /><polyline
           fill="none"
           vector-effect="none"
           points="425,456 425,449.4 "
           id="polyline21" /><polyline
           fill="none"
           vector-effect="none"
           points="425,19.6 425,13 "
           id="polyline22" /><polyline
           fill="none"
           vector-effect="none"
           points="557,456 557,449.4 "
           id="polyline23" /><polyline
           fill="none"
           vector-effect="none"
           points="557,19.6 557,13 "
           id="polyline24" /><polyline
           fill="none"
           vector-effect="none"
           points="689,456 689,449.4 "
           id="polyline25" /><polyline
           fill="none"
           vector-effect="none"
           points="689,19.6 689,13 "
           id="polyline26" /></g><g
         fill="#afafaf"
         fill-opacity="1"
         stroke="#afafaf"
         stroke-opacity="1"
         stroke-width="1"
         stroke-linecap="square"
         stroke-linejoin="bevel"
         transform="matrix(0.6,0,0,0.6,15.3,282.413)"
         font-family="Helvetica"
         font-size="13px"
         font-weight="400"
         font-style="normal"
         id="g27"><text
           fill="#afafaf"
           fill-opacity="1"
           stroke="none"
           xml:space="preserve"
           x="0"
           y="0"
           font-family="Helvetica"
           font-size="13px"
           font-weight="400"
           font-style="normal"
           id="text26"
           style="fill:#000000;fill-opacity:1">0</text></g><g
         fill="#afafaf"
         fill-opacity="1"
         stroke="#afafaf"
         stroke-opacity="1"
         stroke-width="1"
         stroke-linecap="square"
         stroke-linejoin="bevel"
         transform="matrix(0.6,0,0,0.6,94.5,282.413)"
         font-family="Helvetica"
         font-size="13px"
         font-weight="400"
         font-style="normal"
         id="g28"><text
           fill="#afafaf"
           fill-opacity="1"
           stroke="none"
           xml:space="preserve"
           x="0"
           y="0"
           font-family="Helvetica"
           font-size="13px"
           font-weight="400"
           font-style="normal"
           id="text27"
           style="fill:#000000;fill-opacity:1">5</text></g><g
         fill="#afafaf"
         fill-opacity="1"
         stroke="#afafaf"
         stroke-opacity="1"
         stroke-width="1"
         stroke-linecap="square"
         stroke-linejoin="bevel"
         transform="matrix(0.6,0,0,0.6,171.6,282.413)"
         font-family="Helvetica"
         font-size="13px"
         font-weight="400"
         font-style="normal"
         id="g29"><text
           fill="#afafaf"
           fill-opacity="1"
           stroke="none"
           xml:space="preserve"
           x="0"
           y="0"
           font-family="Helvetica"
           font-size="13px"
           font-weight="400"
           font-style="normal"
           id="text28"
           style="fill:#000000;fill-opacity:1">10</text></g><g
         fill="#afafaf"
         fill-opacity="1"
         stroke="#afafaf"
         stroke-opacity="1"
         stroke-width="1"
         stroke-linecap="square"
         stroke-linejoin="bevel"
         transform="matrix(0.6,0,0,0.6,250.8,282.413)"
         font-family="Helvetica"
         font-size="13px"
         font-weight="400"
         font-style="normal"
         id="g30"><text
           fill="#afafaf"
           fill-opacity="1"
           stroke="none"
           xml:space="preserve"
           x="0"
           y="0"
           font-family="Helvetica"
           font-size="13px"
           font-weight="400"
           font-style="normal"
           id="text29"
           style="fill:#000000;fill-opacity:1">15</text></g><g
         fill="#afafaf"
         fill-opacity="1"
         stroke="#afafaf"
         stroke-opacity="1"
         stroke-width="1"
         stroke-linecap="square"
         stroke-linejoin="bevel"
         transform="matrix(0.6,0,0,0.6,330,282.413)"
         font-family="Helvetica"
         font-size="13px"
         font-weight="400"
         font-style="normal"
         id="g31"><text
           fill="#afafaf"
           fill-opacity="1"
           stroke="none"
           xml:space="preserve"
           x="0"
           y="0"
           font-family="Helvetica"
           font-size="13px"
           font-weight="400"
           font-style="normal"
           id="text30"
           style="fill:#000000;fill-opacity:1">20</text></g><g
         fill="#afafaf"
         fill-opacity="1"
         stroke="#afafaf"
         stroke-opacity="1"
         stroke-width="1"
         stroke-linecap="square"
         stroke-linejoin="bevel"
         transform="matrix(0.6,0,0,0.6,409.2,282.413)"
         font-family="Helvetica"
         font-size="13px"
         font-weight="400"
         font-style="normal"
         id="g32"><text
           fill="#afafaf"
           fill-opacity="1"
           stroke="none"
           xml:space="preserve"
           x="0"
           y="0"
           font-family="Helvetica"
           font-size="13px"
           font-weight="400"
           font-style="normal"
           id="text31"
           style="fill:#000000;fill-opacity:1">25</text></g><g
         fill="#afafaf"
         fill-opacity="1"
         stroke="#afafaf"
         stroke-opacity="1"
         stroke-width="0.840278"
         stroke-linecap="butt"
         stroke-linejoin="round"
         transform="scale(0.6)"
         font-family="Helvetica"
         font-size="13px"
         font-weight="400"
         font-style="normal"
         id="g43"><polyline
           fill="none"
           vector-effect="none"
           points="29,456 29,13 "
           id="polyline32" /><polyline
           fill="none"
           vector-effect="none"
           points="689,456 689,13 "
           id="polyline33" /><polyline
           fill="none"
           vector-effect="none"
           points="29,411.698 35.6,411.698 "
           id="polyline34" /><polyline
           fill="none"
           vector-effect="none"
           points="682.4,411.698 689,411.698 "
           id="polyline35" /><polyline
           fill="none"
           vector-effect="none"
           points="29,318.14 35.6,318.14 "
           id="polyline36" /><polyline
           fill="none"
           vector-effect="none"
           points="682.4,318.14 689,318.14 "
           id="polyline37" /><polyline
           fill="none"
           vector-effect="none"
           points="29,224.582 35.6,224.582 "
           id="polyline38" /><polyline
           fill="none"
           vector-effect="none"
           points="682.4,224.582 689,224.582 "
           id="polyline39" /><polyline
           fill="none"
           vector-effect="none"
           points="29,131.023 35.6,131.023 "
           id="polyline40" /><polyline
           fill="none"
           vector-effect="none"
           points="682.4,131.023 689,131.023 "
           id="polyline41" /><polyline
           fill="none"
           vector-effect="none"
           points="29,37.465 35.6,37.465 "
           id="polyline42" /><polyline
           fill="none"
           vector-effect="none"
           points="682.4,37.465 689,37.465 "
           id="polyline43" /></g><g
         fill="#afafaf"
         fill-opacity="1"
         stroke="#afafaf"
         stroke-opacity="1"
         stroke-width="1"
         stroke-linecap="square"
         stroke-linejoin="bevel"
         transform="matrix(0.6,0,0,0.6,9.18667,249.719)"
         font-family="Helvetica"
         font-size="13px"
         font-weight="400"
         font-style="normal"
         id="g44"><text
           fill="#afafaf"
           fill-opacity="1"
           stroke="none"
           xml:space="preserve"
           x="0"
           y="0"
           font-family="Helvetica"
           font-size="13px"
           font-weight="400"
           font-style="normal"
           id="text43"
           style="fill:#000000;fill-opacity:1">-1</text></g><g
         fill="#afafaf"
         fill-opacity="1"
         stroke="#afafaf"
         stroke-opacity="1"
         stroke-width="1"
         stroke-linecap="square"
         stroke-linejoin="bevel"
         transform="matrix(0.6,0,0,0.6,2.58667,193.584)"
         font-family="Helvetica"
         font-size="13px"
         font-weight="400"
         font-style="normal"
         id="g45"><text
           fill="#afafaf"
           fill-opacity="1"
           stroke="none"
           xml:space="preserve"
           x="0"
           y="0"
           font-family="Helvetica"
           font-size="13px"
           font-weight="400"
           font-style="normal"
           id="text44"
           style="fill:#000000;fill-opacity:1">-0.5</text></g><g
         fill="#afafaf"
         fill-opacity="1"
         stroke="#afafaf"
         stroke-opacity="1"
         stroke-width="1"
         stroke-linecap="square"
         stroke-linejoin="bevel"
         transform="matrix(0.6,0,0,0.6,11.5867,137.449)"
         font-family="Helvetica"
         font-size="13px"
         font-weight="400"
         font-style="normal"
         id="g46"><text
           fill="#afafaf"
           fill-opacity="1"
           stroke="none"
           xml:space="preserve"
           x="0"
           y="0"
           font-family="Helvetica"
           font-size="13px"
           font-weight="400"
           font-style="normal"
           id="text45"
           style="fill:#000000;fill-opacity:1">0</text></g><g
         fill="#afafaf"
         fill-opacity="1"
         stroke="#afafaf"
         stroke-opacity="1"
         stroke-width="1"
         stroke-linecap="square"
         stroke-linejoin="bevel"
         transform="matrix(0.6,0,0,0.6,4.98667,81.314)"
         font-family="Helvetica"
         font-size="13px"
         font-weight="400"
         font-style="normal"
         id="g47"><text
           fill="#afafaf"
           fill-opacity="1"
           stroke="none"
           xml:space="preserve"
           x="0"
           y="0"
           font-family="Helvetica"
           font-size="13px"
           font-weight="400"
           font-style="normal"
           id="text46"
           style="fill:#000000;fill-opacity:1">0.5</text></g><g
         fill="#afafaf"
         fill-opacity="1"
         stroke="#afafaf"
         stroke-opacity="1"
         stroke-width="1"
         stroke-linecap="square"
         stroke-linejoin="bevel"
         transform="matrix(0.6,0,0,0.6,11.5867,25.179)"
         font-family="Helvetica"
         font-size="13px"
         font-weight="400"
         font-style="normal"
         id="g48"><text
           fill="#afafaf"
           fill-opacity="1"
           stroke="none"
           xml:space="preserve"
           x="0"
           y="0"
           font-family="Helvetica"
           font-size="13px"
           font-weight="400"
           font-style="normal"
           id="text47"
           style="fill:#060606;fill-opacity:1">1</text></g><g
         fill="none"
         stroke="#ffe864"
         stroke-opacity="1"
         stroke-width="1.26042"
         stroke-linecap="butt"
         stroke-linejoin="round"
         transform="scale(0.6)"
         font-family="Helvetica"
         font-size="13px"
         font-weight="400"
         font-style="normal"
         id="g49"><polyline
           fill="none"
           vector-effect="none"
           points="29,224.582 29.0002,224.582 29.001,224.582 29.0051,224.582 29.0255,224.582 29.1277,224.582 29.3008,224.582 29.4918,224.582 29.7279,224.581 30.0214,224.58 30.3755,224.574 30.7073,224.561 30.9967,224.544 31.2674,224.519 31.5287,224.488 31.7847,224.447 32.0435,224.397 32.3198,224.331 32.6126,224.246 32.9237,224.139 33.2556,224.005 33.6125,223.835 34.0019,223.622 34.4401,223.345 34.9929,222.94 35.3924,222.611 35.7919,222.253 36.2132,221.843 36.6261,221.413 37.0318,220.963 37.4388,220.486 37.85,219.981 38.2653,219.448 38.6852,218.887 39.1106,218.298 39.5423,217.682 39.9808,217.037 40.4263,216.366 40.8791,215.667 41.3395,214.942 41.8074,214.193 42.283,213.419 42.7662,212.622 43.257,211.804 43.7552,210.967 44.2608,210.112 44.7737,209.24 45.2936,208.355 45.8203,207.458 46.3534,206.551 46.8926,205.639 47.4371,204.723 47.9865,203.806 48.5398,202.893 49.0962,201.986 49.6549,201.089 50.2152,200.204 50.7765,199.336 51.3382,198.485 51.8995,197.655 52.4599,196.848 53.0188,196.065 53.5759,195.31 54.1313,194.581 54.6854,193.881 55.238,193.209 55.788,192.559 56.5012,191.731 56.5012,191.731 56.5027,191.73 56.5027,191.73 56.5095,191.722 56.5095,191.722 56.5145,191.716 56.5145,191.716 56.652,191.559 56.8407,191.345 57.062,191.099 57.3401,190.796 57.6996,190.417 58.1869,189.924 58.8277,189.313 59.3136,188.876 59.7996,188.461 60.3444,188.021 60.9128,187.59 61.4372,187.215 61.9073,186.898 62.3754,186.598 62.896,186.284 63.4664,185.961 64.0189,185.669 64.5084,185.427 64.9669,185.214 65.4594,184.999 66.0163,184.773 66.5909,184.558 67.1097,184.38 67.5712,184.232 68.038,184.094 68.5678,183.951 69.1499,183.808 69.703,183.686 70.183,183.591 70.6338,183.511 71.1294,183.432 71.6988,183.353 72.2812,183.284 72.7941,183.234 73.2448,183.198 73.7081,183.167 74.2466,183.14 74.8414,183.12 75.3954,183.111 75.865,183.11 76.307,183.114 76.8051,183.125 77.3874,183.146 77.978,183.175 78.4845,183.206 78.924,183.238 79.3835,183.275 79.9304,183.325 80.538,183.386 81.0925,183.449 81.5518,183.504 81.9854,183.559 82.4858,183.627 83.0801,183.712 83.678,183.803 84.1785,183.882 84.6079,183.953 85.064,184.03 85.6183,184.127 86.2368,184.24 86.7915,184.344 87.2421,184.43 87.6686,184.514 88.1708,184.614 88.775,184.738 89.3787,184.864 89.8743,184.969 90.2957,185.06 90.7492,185.159 91.3089,185.282 91.9358,185.423 92.4906,185.548 92.9348,185.65 93.356,185.747 93.8594,185.864 94.4706,186.007 95.0785,186.15 95.5706,186.267 95.9865,186.366 96.4381,186.474 97.0014,186.609 97.6339,186.761 98.074,186.867 98.5142,186.973 99.0615,187.106 99.6935,187.259 100.145,187.368 100.597,187.478 101.144,187.61 101.762,187.76 102.323,187.895 102.779,188.005 103.204,188.108 103.7,188.227 104.299,188.37 104.907,188.515 105.409,188.635 105.833,188.735 106.281,188.841 106.834,188.971 107.46,189.118 107.91,189.223 108.359,189.327 108.905,189.453 109.525,189.595 110.089,189.724 110.545,189.827 110.968,189.922 111.461,190.033 112.06,190.166 112.671,190.301 113.175,190.411 113.598,190.504 114.044,190.6 114.596,190.718 115.223,190.852 115.673,190.947 116.123,191.041 116.67,191.155 117.289,191.283 117.852,191.398 118.308,191.49 118.732,191.575 119.226,191.673 119.825,191.792 120.434,191.911 120.938,192.008 121.361,192.089 121.808,192.174 122.36,192.278 122.987,192.395 123.437,192.478 123.887,192.56 124.433,192.659 125.052,192.77 125.615,192.869 126.071,192.949 126.495,193.023 126.989,193.108 127.588,193.209 128.198,193.312 128.702,193.395 129.125,193.465 129.572,193.537 130.123,193.626 130.75,193.726 131.2,193.796 131.651,193.866 132.197,193.951 132.816,194.044 133.379,194.129 133.835,194.196 134.259,194.259 134.753,194.33 135.352,194.416 135.961,194.502 136.465,194.572 136.889,194.631 137.336,194.692 137.887,194.766 138.514,194.85 138.964,194.909 139.414,194.967 139.961,195.038 140.58,195.116 141.143,195.186 141.599,195.243 142.023,195.294 142.517,195.354 143.116,195.425 143.725,195.497 144.229,195.555 144.652,195.603 145.1,195.654 145.651,195.715 146.278,195.784 146.728,195.833 147.178,195.882 147.725,195.94 148.343,196.004 148.907,196.062 149.363,196.108 149.787,196.151 150.281,196.2 150.879,196.259 151.489,196.317 151.993,196.365 152.416,196.405 152.863,196.446 153.415,196.497 154.042,196.553 154.492,196.593 154.942,196.633 155.489,196.68 156.107,196.733 156.67,196.78 157.127,196.818 157.55,196.853 158.045,196.893 158.643,196.94 159.253,196.988 159.757,197.027 160.18,197.059 160.627,197.093 161.179,197.134 161.806,197.18 162.256,197.213 162.706,197.245 163.252,197.283 163.871,197.326 164.434,197.364 164.891,197.395 165.314,197.423 165.808,197.455 166.407,197.494 167.017,197.533 167.521,197.564 167.944,197.59 168.391,197.618 168.943,197.651 169.57,197.688 170.02,197.714 170.47,197.74 171.016,197.771 171.635,197.806 172.198,197.837 172.654,197.861 173.078,197.884 173.572,197.91 174.171,197.941 174.781,197.973 175.285,197.998 175.708,198.019 176.155,198.041 176.707,198.068 177.334,198.098 177.784,198.119 178.234,198.14 178.78,198.165 179.399,198.192 179.962,198.217 180.418,198.237 180.842,198.255 181.336,198.276 181.935,198.301 182.545,198.326 183.049,198.347 183.472,198.364 183.919,198.381 184.47,198.403 185.098,198.427 185.548,198.444 185.998,198.46 186.544,198.48 187.163,198.503 187.726,198.522 188.183,198.538 188.606,198.553 189.1,198.57 189.699,198.59 190.309,198.61 190.813,198.626 191.236,198.64 191.683,198.654 192.234,198.671 192.862,198.69 193.312,198.704 193.762,198.717 194.308,198.733 194.927,198.751 195.49,198.767 195.762,198.774 196.034,198.782 196.404,198.792 196.728,198.801 197.17,198.813 197.728,198.828 198.489,198.848 199.5,198.873 200.274,198.892 201.048,198.911 201.905,198.932 202.791,198.952 203.609,198.97 204.348,198.987 205.087,199.003 205.908,199.02 206.802,199.038 207.665,199.055 208.43,199.07 209.149,199.084 209.923,199.099 210.798,199.115 211.699,199.131 212.51,199.145 213.231,199.157 213.962,199.169 214.793,199.182 215.708,199.197 216.574,199.21 217.324,199.221 218.027,199.232 218.803,199.243 219.697,199.256 220.613,199.268 221.415,199.279 222.117,199.288 222.84,199.297 223.684,199.308 224.62,199.319 225.489,199.329 225.865,199.334 226.084,199.336 226.303,199.339 226.557,199.342 227.055,199.347 227.593,199.353 228.264,199.361 229.106,199.37 230.216,199.381 231.733,199.396 233.624,199.414 234.857,199.425 236.089,199.436 237.644,199.449 239.428,199.463 240.665,199.473 241.902,199.482 243.435,199.493 245.194,199.504 246.454,199.513 247.714,199.52 249.242,199.529 250.968,199.539 252.538,199.548 253.811,199.554 254.996,199.56 256.379,199.567 258.052,199.574 259.751,199.581 261.156,199.587 261.525,199.589 261.895,199.59 262.336,199.592 264.545,199.601 265.872,199.606 266.689,199.609 266.988,199.61 267.287,199.611 267.707,199.613 269.811,199.621 280.329,199.658 293.147,199.697 306.347,199.726 319.547,199.741 332.747,199.744 345.947,199.747 359.147,199.753 372.347,199.754 385.547,199.741 398.747,199.728 411.947,199.731 425.147,199.743 438.347,199.736 451.547,199.71 464.747,199.703 477.947,199.734 491.147,199.752 504.347,199.716 517.547,199.673 530.747,199.705 543.947,199.779 557.147,199.766 570.347,199.657 583.547,199.629 596.747,199.77 609.947,199.871 623.147,199.716 636.347,199.508 649.247,199.63 661.836,199.966 674,199.996 685.988,199.578 689,199.456 "
           id="polyline48"
           style="stroke-width:2.40454821;stroke-dasharray:none" /></g><g
         fill="none"
         stroke="#268cdd"
         stroke-opacity="1"
         stroke-width="1.26042"
         stroke-linecap="butt"
         stroke-linejoin="round"
         transform="scale(0.6)"
         font-family="Helvetica"
         font-size="13px"
         font-weight="400"
         font-style="normal"
         id="g50"><polyline
           fill="none"
           vector-effect="none"
           points="29,57.3 29.0002,57.3005 29.001,57.3031 29.0051,57.3161 29.0255,57.3811 29.1277,57.7075 29.3008,58.2661 29.4918,58.8908 29.7279,59.6751 30.0214,60.6682 30.3755,61.8933 30.7073,63.0679 30.9967,64.1135 31.2674,65.1086 31.5287,66.0853 31.7847,67.057 32.0435,68.0548 32.3198,69.1362 32.6126,70.3011 32.9237,71.5594 33.2556,72.9253 33.6125,74.4209 34.0019,76.0838 34.4401,77.9938 34.9929,80.4608 35.3924,82.2832 35.7919,84.1383 36.2132,86.1293 36.6261,88.115 37.0318,90.098 37.4388,92.1196 37.85,94.1942 38.2653,96.3216 38.6852,98.5045 39.1106,100.749 39.5423,103.059 39.9808,105.439 40.4263,107.891 40.8791,110.417 41.3395,113.019 41.8074,115.699 42.283,118.458 42.7662,121.297 43.257,124.215 43.7552,127.213 44.2608,130.291 44.7737,133.448 45.2936,136.684 45.8203,139.997 46.3534,143.384 46.8926,146.844 47.4371,150.371 47.9865,153.961 48.5398,157.608 49.0962,161.305 49.6549,165.046 50.2152,168.824 50.7765,172.634 51.3382,176.469 51.8995,180.325 52.4599,184.194 53.0188,188.071 53.5759,191.951 54.1313,195.834 54.6854,199.721 55.238,199.721 55.788,199.721 56.5012,199.721 56.5012,199.721 56.5027,199.721 56.5027,199.721 56.5095,199.721 56.5095,199.721 56.5145,199.721 56.5145,199.721 56.652,199.721 56.8407,199.721 57.062,199.721 57.3401,199.721 57.6996,199.721 58.1869,199.721 58.8277,199.721 59.3136,199.721 59.7996,199.721 60.3444,199.721 60.9128,199.721 61.4372,199.721 61.9073,199.721 62.3754,199.721 62.896,199.721 63.4664,199.721 64.0189,199.721 64.5084,199.721 64.9669,199.721 65.4594,199.721 66.0163,199.721 66.5909,199.721 67.1097,199.721 67.5712,199.721 68.038,199.721 68.5678,199.721 69.1499,199.721 69.703,199.721 70.183,199.721 70.6338,199.721 71.1294,199.721 71.6988,199.721 72.2812,199.721 72.7941,199.721 73.2448,199.721 73.7081,199.721 74.2466,199.721 74.8414,199.721 75.3954,199.721 75.865,199.721 76.307,199.721 76.8051,199.721 77.3874,199.721 77.978,199.721 78.4845,199.721 78.924,199.721 79.3835,199.721 79.9304,199.721 80.538,199.721 81.0925,199.721 81.5518,199.721 81.9854,199.721 82.4858,199.721 83.0801,199.721 83.678,199.721 84.1785,199.721 84.6079,199.721 85.064,199.721 85.6183,199.721 86.2368,199.721 86.7915,199.721 87.2421,199.721 87.6686,199.721 88.1708,199.721 88.775,199.721 89.3787,199.721 89.8743,199.721 90.2957,199.721 90.7492,199.721 91.3089,199.721 91.9358,199.721 92.4906,199.721 92.9348,199.721 93.356,199.721 93.8594,199.721 94.4706,199.721 95.0785,199.721 95.5706,199.721 95.9865,199.721 96.4381,199.721 97.0014,199.721 97.6339,199.721 98.074,199.721 98.5142,199.721 99.0615,199.721 99.6935,199.721 100.145,199.721 100.597,199.721 101.144,199.721 101.762,199.721 102.323,199.721 102.779,199.721 103.204,199.721 103.7,199.721 104.299,199.721 104.907,199.721 105.409,199.721 105.833,199.721 106.281,199.721 106.834,199.721 107.46,199.721 107.91,199.721 108.359,199.721 108.905,199.721 109.525,199.721 110.089,199.721 110.545,199.721 110.968,199.721 111.461,199.721 112.06,199.721 112.671,199.721 113.175,199.721 113.598,199.721 114.044,199.721 114.596,199.721 115.223,199.721 115.673,199.721 116.123,199.721 116.67,199.721 117.289,199.721 117.852,199.721 118.308,199.721 118.732,199.721 119.226,199.721 119.825,199.721 120.434,199.721 120.938,199.721 121.361,199.721 121.808,199.721 122.36,199.721 122.987,199.721 123.437,199.721 123.887,199.721 124.433,199.721 125.052,199.721 125.615,199.721 126.071,199.721 126.495,199.721 126.989,199.721 127.588,199.721 128.198,199.721 128.702,199.721 129.125,199.721 129.572,199.721 130.123,199.721 130.75,199.721 131.2,199.721 131.651,199.721 132.197,199.721 132.816,199.721 133.379,199.721 133.835,199.721 134.259,199.721 134.753,199.721 135.352,199.721 135.961,199.721 136.465,199.721 136.889,199.721 137.336,199.721 137.887,199.721 138.514,199.721 138.964,199.721 139.414,199.721 139.961,199.721 140.58,199.721 141.143,199.721 141.599,199.721 142.023,199.721 142.517,199.721 143.116,199.721 143.725,199.721 144.229,199.721 144.652,199.721 145.1,199.721 145.651,199.721 146.278,199.721 146.728,199.721 147.178,199.721 147.725,199.721 148.343,199.721 148.907,199.721 149.363,199.721 149.787,199.721 150.281,199.721 150.879,199.721 151.489,199.721 151.993,199.721 152.416,199.721 152.863,199.721 153.415,199.721 154.042,199.721 154.492,199.721 154.942,199.721 155.489,199.721 156.107,199.721 156.67,199.721 157.127,199.721 157.55,199.721 158.045,199.721 158.643,199.721 159.253,199.721 159.757,199.721 160.18,199.721 160.627,199.721 161.179,199.721 161.806,199.721 162.256,199.721 162.706,199.721 163.252,199.721 163.871,199.721 164.434,199.721 164.891,199.721 165.314,199.721 165.808,199.721 166.407,199.721 167.017,199.721 167.521,199.721 167.944,199.721 168.391,199.721 168.943,199.721 169.57,199.721 170.02,199.721 170.47,199.721 171.016,199.721 171.635,199.721 172.198,199.721 172.654,199.721 173.078,199.721 173.572,199.721 174.171,199.721 174.781,199.721 175.285,199.721 175.708,199.721 176.155,199.721 176.707,199.721 177.334,199.721 177.784,199.721 178.234,199.721 178.78,199.721 179.399,199.721 179.962,199.721 180.418,199.721 180.842,199.721 181.336,199.721 181.935,199.721 182.545,199.721 183.049,199.721 183.472,199.721 183.919,199.721 184.47,199.721 185.098,199.721 185.548,199.721 185.998,199.721 186.544,199.721 187.163,199.721 187.726,199.721 188.183,199.721 188.606,199.721 189.1,199.721 189.699,199.721 190.309,199.721 190.813,199.721 191.236,199.721 191.683,199.721 192.234,199.721 192.862,199.721 193.312,199.721 193.762,199.721 194.308,199.721 194.927,199.721 195.49,199.721 195.762,199.721 196.034,199.721 196.404,199.721 196.728,199.721 197.17,199.721 197.728,199.721 198.489,199.721 199.5,199.721 200.274,199.721 201.048,199.721 201.905,199.721 202.791,199.721 203.609,199.721 204.348,199.721 205.087,199.721 205.908,199.721 206.802,199.721 207.665,199.721 208.43,199.721 209.149,199.721 209.923,199.721 210.798,199.721 211.699,199.721 212.51,199.721 213.231,199.721 213.962,199.721 214.793,199.721 215.708,199.721 216.574,199.721 217.324,199.721 218.027,199.721 218.803,199.721 219.697,199.721 220.613,199.721 221.415,199.721 222.117,199.721 222.84,199.721 223.684,199.721 224.62,199.721 225.489,199.721 225.865,199.721 226.084,199.721 226.303,199.721 226.557,199.721 227.055,199.721 227.593,199.721 228.264,199.721 229.106,199.721 230.216,199.721 231.733,199.721 233.624,199.721 234.857,199.721 236.089,199.721 237.644,199.721 239.428,199.721 240.665,199.721 241.902,199.721 243.435,199.721 245.194,199.721 246.454,199.721 247.714,199.721 249.242,199.721 250.968,199.721 252.538,199.721 253.811,199.721 254.996,199.721 256.379,199.721 258.052,199.721 259.751,199.721 261.156,199.721 261.525,199.721 261.895,199.721 262.336,199.721 264.545,199.721 265.872,199.721 266.689,199.721 266.988,199.721 267.287,199.721 267.707,199.721 269.811,199.721 280.329,199.721 293.147,199.721 306.347,199.721 319.547,199.721 332.747,199.721 345.947,199.721 359.147,199.721 372.347,199.721 385.547,199.721 398.747,199.721 411.947,199.721 425.147,199.721 438.347,199.721 451.547,199.721 464.747,199.721 477.947,199.721 491.147,199.721 504.347,199.721 517.547,199.721 530.747,199.721 543.947,199.721 557.147,199.721 570.347,199.721 583.547,199.721 596.747,199.721 609.947,199.721 623.147,199.721 636.347,199.721 649.247,199.721 661.836,199.721 674,199.721 685.988,199.721 689,199.721 "
           id="polyline49"
           style="stroke-width:2.40454821;stroke-dasharray:none" /></g><rect
         style="fill:#ffffff;fill-opacity:1;stroke:#000000;stroke-width:3;stroke-dasharray:none;stroke-opacity:1"
         id="rect72"
         width="96.382942"
         height="161.40318"
         x="462.02618"
         y="387.8266"
         transform="matrix(0.48090964,0,0,0.48090964,-0.0594546,0.02028377)" /><g
         fill="none"
         stroke="#f57729"
         stroke-opacity="1"
         stroke-width="1.26042"
         stroke-linecap="butt"
         stroke-linejoin="round"
         transform="scale(0.6)"
         font-family="Helvetica"
         font-size="13px"
         font-weight="400"
         font-style="normal"
         id="g51"><polyline
           fill="none"
           vector-effect="none"
           points="29,224.582 29.0002,224.582 29.001,224.582 29.0051,224.582 29.0255,224.582 29.1277,224.582 29.3008,224.582 29.4918,224.582 29.7279,224.582 30.0214,224.582 30.3755,224.581 30.7073,224.581 30.9967,224.581 31.2674,224.58 31.5287,224.579 31.7847,224.578 32.0435,224.576 32.3198,224.574 32.6126,224.57 32.9237,224.565 33.2556,224.558 33.6125,224.548 34.0019,224.533 34.4401,224.513 34.9929,224.478 35.3924,224.447 35.7919,224.409 36.2132,224.362 36.6261,224.309 37.0318,224.248 37.4388,224.178 37.85,224.099 38.2653,224.009 38.6852,223.907 39.1106,223.793 39.5423,223.665 39.9808,223.522 40.4263,223.363 40.8791,223.187 41.3395,222.992 41.8074,222.778 42.283,222.543 42.7662,222.285 43.257,222.004 43.7552,221.699 44.2608,221.368 44.7737,221.01 45.2936,220.624 45.8203,220.209 46.3534,219.764 46.8926,219.288 47.4371,218.782 47.9865,218.244 48.5398,217.676 49.0962,217.076 49.6549,216.446 50.2152,215.787 50.7765,215.098 51.3382,214.381 51.8995,213.636 52.4599,212.865 53.0188,212.069 53.5759,211.25 54.1313,210.406 54.6854,209.539 55.238,208.648 55.788,207.746 56.5012,206.563 56.5012,206.563 56.5027,206.56 56.5027,206.56 56.5095,206.549 56.5095,206.549 56.5145,206.541 56.5145,206.541 56.652,206.311 56.8407,205.994 57.062,205.618 57.3401,205.141 57.6996,204.516 58.1869,203.654 58.8277,202.494 59.3136,201.596 59.7996,200.684 60.3444,199.646 60.9128,198.546 61.4372,197.517 61.9073,196.585 62.3754,195.648 62.896,194.596 63.4664,193.433 64.0189,192.297 64.5084,191.284 64.9669,190.329 65.4594,189.299 66.0163,188.128 66.5909,186.914 67.1097,185.814 67.5712,184.833 68.038,183.839 68.5678,182.708 69.1499,181.464 69.703,180.28 70.183,179.253 70.6338,178.288 71.1294,177.227 71.6988,176.01 72.2812,174.766 72.7941,173.673 73.2448,172.714 73.7081,171.73 74.2466,170.589 74.8414,169.333 75.3954,168.168 75.865,167.183 76.307,166.26 76.8051,165.223 77.3874,164.017 77.978,162.799 78.4845,161.761 78.924,160.864 79.3835,159.931 79.9304,158.826 80.538,157.607 81.0925,156.502 81.5518,155.592 81.9854,154.738 82.4858,153.758 83.0801,152.603 83.678,151.45 84.1785,150.492 84.6079,149.676 85.064,148.815 85.6183,147.776 86.2368,146.628 86.7915,145.607 87.2421,144.784 87.6686,144.011 88.1708,143.108 88.775,142.031 89.3787,140.966 89.8743,140.101 90.2957,139.37 90.7492,138.59 91.3089,137.637 91.9358,136.58 92.4906,135.655 92.9348,134.921 93.356,134.231 93.8594,133.414 94.4706,132.432 95.0785,131.467 95.5706,130.695 95.9865,130.048 96.4381,129.351 97.0014,128.492 97.6339,127.538 98.074,126.882 98.5142,126.232 99.0615,125.432 99.6935,124.519 100.145,123.875 100.597,123.237 101.144,122.471 101.762,121.618 102.323,120.854 102.779,120.24 103.204,119.673 103.7,119.019 104.299,118.238 104.907,117.456 105.409,116.818 105.833,116.286 106.281,115.728 106.834,115.049 107.46,114.289 107.91,113.751 108.359,113.219 108.905,112.58 109.525,111.865 110.089,111.223 110.545,110.71 110.968,110.24 111.461,109.697 112.06,109.047 112.671,108.394 113.175,107.862 113.598,107.421 114.044,106.961 114.596,106.399 115.223,105.769 115.673,105.323 116.123,104.882 116.67,104.354 117.289,103.764 117.852,103.236 118.308,102.813 118.732,102.425 119.226,101.978 119.825,101.443 120.434,100.907 120.938,100.471 121.361,100.109 121.808,99.7301 122.36,99.2694 122.987,98.7538 123.437,98.3888 123.887,98.0281 124.433,97.5958 125.052,97.1139 125.615,96.6821 126.071,96.337 126.495,96.0201 126.989,95.6553 127.588,95.2195 128.198,94.7831 128.702,94.4274 129.125,94.1326 129.572,93.8247 130.123,93.4501 130.75,93.031 131.2,92.7344 131.651,92.4413 132.197,92.0904 132.816,91.6995 133.379,91.3493 133.835,91.0696 134.259,90.8128 134.753,90.5171 135.352,90.1642 135.961,89.8111 136.465,89.5234 136.889,89.2849 137.336,89.0359 137.887,88.7332 138.514,88.3945 138.964,88.155 139.414,87.9184 139.961,87.6352 140.58,87.3197 141.143,87.0373 141.599,86.8118 142.023,86.6048 142.517,86.3666 143.116,86.0823 143.725,85.7979 144.229,85.5663 144.652,85.3744 145.1,85.174 145.651,84.9305 146.278,84.6581 146.728,84.4656 147.178,84.2754 147.725,84.0478 148.343,83.7944 148.907,83.5676 149.363,83.3865 149.787,83.2203 150.281,83.0292 150.879,82.801 151.489,82.5729 151.993,82.3871 152.416,82.2333 152.863,82.0727 153.415,81.8775 154.042,81.6592 154.492,81.5049 154.942,81.3526 155.489,81.1703 156.107,80.9674 156.67,80.7859 157.127,80.6409 157.55,80.508 158.045,80.355 158.643,80.1725 159.253,79.99 159.757,79.8415 160.18,79.7184 160.627,79.5901 161.179,79.434 161.806,79.2596 162.256,79.1363 162.706,79.0147 163.252,78.8691 163.871,78.707 164.434,78.562 164.891,78.4463 165.314,78.3401 165.808,78.218 166.407,78.0724 167.017,77.9267 167.521,77.8082 167.944,77.71 168.391,77.6076 168.943,77.4832 169.57,77.3441 170.02,77.2458 170.47,77.1488 171.016,77.0327 171.635,76.9035 172.198,76.7879 172.654,76.6957 173.078,76.6111 173.572,76.5138 174.171,76.3978 174.781,76.2817 175.285,76.1873 175.708,76.1091 176.155,76.0276 176.707,75.9285 177.334,75.8177 177.784,75.7394 178.234,75.6622 178.78,75.5698 179.399,75.4669 179.962,75.375 180.418,75.3016 180.842,75.2342 181.336,75.1568 181.935,75.0645 182.545,74.9722 183.049,74.8971 183.472,74.8349 183.919,74.77 184.47,74.6912 185.098,74.6031 185.548,74.5408 185.998,74.4794 186.544,74.4059 187.163,74.3241 187.726,74.251 188.183,74.1926 188.606,74.1391 189.1,74.0776 189.699,74.0042 190.309,73.9308 190.813,73.8711 191.236,73.8216 191.683,73.7701 192.234,73.7074 192.862,73.6374 193.312,73.588 193.762,73.5392 194.308,73.4808 194.927,73.4158 195.49,73.3577 195.762,73.33 196.034,73.3025 196.404,73.2654 196.728,73.2332 197.17,73.1898 197.728,73.1358 198.489,73.0636 199.5,72.9701 200.274,72.9004 201.048,72.8323 201.905,72.7586 202.791,72.6845 203.609,72.6178 204.348,72.5588 205.087,72.5011 205.908,72.4386 206.802,72.3722 207.665,72.3097 208.43,72.2557 209.149,72.206 209.923,72.1536 210.798,72.0959 211.699,72.0381 212.51,71.9874 213.231,71.9432 213.962,71.8995 214.793,71.8508 215.708,71.7987 216.574,71.7506 217.324,71.71 218.027,71.6728 218.803,71.6325 219.697,71.5873 220.613,71.5423 221.415,71.5038 222.117,71.4708 222.84,71.4377 223.684,71.3998 224.62,71.359 225.489,71.322 225.865,71.3063 226.084,71.2973 226.303,71.2883 226.557,71.2779 227.055,71.2577 227.593,71.2363 228.264,71.2099 229.106,71.1777 230.216,71.1363 231.733,71.082 233.624,71.0176 234.857,70.9776 236.089,70.939 237.644,70.8923 239.428,70.8414 240.665,70.8076 241.902,70.7751 243.435,70.7365 245.194,70.6942 246.454,70.6654 247.714,70.6376 249.242,70.6052 250.968,70.5705 252.538,70.5404 253.811,70.517 254.996,70.496 256.379,70.4725 258.052,70.4453 259.751,70.4191 261.156,70.3984 261.525,70.3931 261.895,70.3878 262.336,70.3816 264.545,70.3503 265.872,70.3317 266.689,70.3203 266.988,70.3161 267.287,70.312 267.707,70.3062 269.811,70.2776 280.329,70.1449 293.147,70.0081 306.347,69.9037 319.547,69.8503 332.747,69.8383 345.947,69.8299 359.147,69.8079 372.347,69.8055 385.547,69.8503 398.747,69.8984 411.947,69.886 425.147,69.8431 438.347,69.8694 451.547,69.9641 464.747,69.9863 477.947,69.8769 491.147,69.8088 504.347,69.9398 517.547,70.0954 530.747,69.9801 543.947,69.7125 557.147,69.7593 570.347,70.154 583.547,70.2563 596.747,69.7445 609.947,69.3803 623.147,69.9418 636.347,70.6931 649.247,70.252 661.836,69.0377 674,68.93 685.988,70.4379 689,70.8774 "
           id="polyline50"
           style="stroke-width:2.40454821;stroke-dasharray:none" /></g><g
         fill="none"
         stroke="#49db40"
         stroke-opacity="1"
         stroke-width="1.26042"
         stroke-linecap="butt"
         stroke-linejoin="round"
         transform="scale(0.6)"
         font-family="Helvetica"
         font-size="13px"
         font-weight="400"
         font-style="normal"
         id="g52"><polyline
           fill="none"
           vector-effect="none"
           points="29,224.582 29.0002,224.58 29.001,224.575 29.0051,224.546 29.0255,224.401 29.1277,223.676 29.3008,222.45 29.4918,221.096 29.7279,219.423 30.0214,217.344 30.3755,214.837 30.7073,212.489 30.9967,210.443 31.2674,208.531 31.5287,206.686 31.7847,204.881 32.0435,203.057 32.3198,201.114 32.6126,199.056 32.9237,196.874 33.2556,194.549 33.6125,192.055 34.0019,189.341 34.4401,186.296 34.9929,182.47 35.3924,179.715 35.7919,176.971 36.2132,174.09 36.6261,171.278 37.0318,168.528 37.4388,165.783 37.85,163.023 38.2653,160.251 38.6852,157.465 39.1106,154.659 39.5423,151.831 39.9808,148.977 40.4263,146.1 40.8791,143.198 41.3395,140.272 41.8074,137.325 42.283,134.357 42.7662,131.372 43.257,128.372 43.7552,125.361 44.2608,122.341 44.7737,119.316 45.2936,116.29 45.8203,113.267 46.3534,110.253 46.8926,107.252 47.4371,104.27 47.9865,101.315 48.5398,98.3914 49.0962,95.5077 49.6549,92.6697 50.2152,89.8829 50.7765,87.1523 51.3382,84.482 51.8995,81.8764 52.4599,79.3396 53.0188,76.8749 53.5759,74.4841 54.1313,72.1668 54.6854,69.9223 55.238,69.9223 55.788,69.9223 56.5012,69.9223 56.5012,69.9223 56.5027,69.9223 56.5027,69.9223 56.5095,69.9223 56.5095,69.9223 56.5145,69.9223 56.5145,69.9223 56.652,69.9223 56.8407,69.9223 57.062,69.9223 57.3401,69.9223 57.6996,69.9223 58.1869,69.9223 58.8277,69.9223 59.3136,69.9223 59.7996,69.9223 60.3444,69.9223 60.9128,69.9223 61.4372,69.9223 61.9073,69.9223 62.3754,69.9223 62.896,69.9223 63.4664,69.9223 64.0189,69.9223 64.5084,69.9223 64.9669,69.9223 65.4594,69.9223 66.0163,69.9223 66.5909,69.9223 67.1097,69.9223 67.5712,69.9223 68.038,69.9223 68.5678,69.9223 69.1499,69.9223 69.703,69.9223 70.183,69.9223 70.6338,69.9223 71.1294,69.9223 71.6988,69.9223 72.2812,69.9223 72.7941,69.9223 73.2448,69.9223 73.7081,69.9223 74.2466,69.9223 74.8414,69.9223 75.3954,69.9223 75.865,69.9223 76.307,69.9223 76.8051,69.9223 77.3874,69.9223 77.978,69.9223 78.4845,69.9223 78.924,69.9223 79.3835,69.9223 79.9304,69.9223 80.538,69.9223 81.0925,69.9223 81.5518,69.9223 81.9854,69.9223 82.4858,69.9223 83.0801,69.9223 83.678,69.9223 84.1785,69.9223 84.6079,69.9223 85.064,69.9223 85.6183,69.9223 86.2368,69.9223 86.7915,69.9223 87.2421,69.9223 87.6686,69.9223 88.1708,69.9223 88.775,69.9223 89.3787,69.9223 89.8743,69.9223 90.2957,69.9223 90.7492,69.9223 91.3089,69.9223 91.9358,69.9223 92.4906,69.9223 92.9348,69.9223 93.356,69.9223 93.8594,69.9223 94.4706,69.9223 95.0785,69.9223 95.5706,69.9223 95.9865,69.9223 96.4381,69.9223 97.0014,69.9223 97.6339,69.9223 98.074,69.9223 98.5142,69.9223 99.0615,69.9223 99.6935,69.9223 100.145,69.9223 100.597,69.9223 101.144,69.9223 101.762,69.9223 102.323,69.9223 102.779,69.9223 103.204,69.9223 103.7,69.9223 104.299,69.9223 104.907,69.9223 105.409,69.9223 105.833,69.9223 106.281,69.9223 106.834,69.9223 107.46,69.9223 107.91,69.9223 108.359,69.9223 108.905,69.9223 109.525,69.9223 110.089,69.9223 110.545,69.9223 110.968,69.9223 111.461,69.9223 112.06,69.9223 112.671,69.9223 113.175,69.9223 113.598,69.9223 114.044,69.9223 114.596,69.9223 115.223,69.9223 115.673,69.9223 116.123,69.9223 116.67,69.9223 117.289,69.9223 117.852,69.9223 118.308,69.9223 118.732,69.9223 119.226,69.9223 119.825,69.9223 120.434,69.9223 120.938,69.9223 121.361,69.9223 121.808,69.9223 122.36,69.9223 122.987,69.9223 123.437,69.9223 123.887,69.9223 124.433,69.9223 125.052,69.9223 125.615,69.9223 126.071,69.9223 126.495,69.9223 126.989,69.9223 127.588,69.9223 128.198,69.9223 128.702,69.9223 129.125,69.9223 129.572,69.9223 130.123,69.9223 130.75,69.9223 131.2,69.9223 131.651,69.9223 132.197,69.9223 132.816,69.9223 133.379,69.9223 133.835,69.9223 134.259,69.9223 134.753,69.9223 135.352,69.9223 135.961,69.9223 136.465,69.9223 136.889,69.9223 137.336,69.9223 137.887,69.9223 138.514,69.9223 138.964,69.9223 139.414,69.9223 139.961,69.9223 140.58,69.9223 141.143,69.9223 141.599,69.9223 142.023,69.9223 142.517,69.9223 143.116,69.9223 143.725,69.9223 144.229,69.9223 144.652,69.9223 145.1,69.9223 145.651,69.9223 146.278,69.9223 146.728,69.9223 147.178,69.9223 147.725,69.9223 148.343,69.9223 148.907,69.9223 149.363,69.9223 149.787,69.9223 150.281,69.9223 150.879,69.9223 151.489,69.9223 151.993,69.9223 152.416,69.9223 152.863,69.9223 153.415,69.9223 154.042,69.9223 154.492,69.9223 154.942,69.9223 155.489,69.9223 156.107,69.9223 156.67,69.9223 157.127,69.9223 157.55,69.9223 158.045,69.9223 158.643,69.9223 159.253,69.9223 159.757,69.9223 160.18,69.9223 160.627,69.9223 161.179,69.9223 161.806,69.9223 162.256,69.9223 162.706,69.9223 163.252,69.9223 163.871,69.9223 164.434,69.9223 164.891,69.9223 165.314,69.9223 165.808,69.9223 166.407,69.9223 167.017,69.9223 167.521,69.9223 167.944,69.9223 168.391,69.9223 168.943,69.9223 169.57,69.9223 170.02,69.9223 170.47,69.9223 171.016,69.9223 171.635,69.9223 172.198,69.9223 172.654,69.9223 173.078,69.9223 173.572,69.9223 174.171,69.9223 174.781,69.9223 175.285,69.9223 175.708,69.9223 176.155,69.9223 176.707,69.9223 177.334,69.9223 177.784,69.9223 178.234,69.9223 178.78,69.9223 179.399,69.9223 179.962,69.9223 180.418,69.9223 180.842,69.9223 181.336,69.9223 181.935,69.9223 182.545,69.9223 183.049,69.9223 183.472,69.9223 183.919,69.9223 184.47,69.9223 185.098,69.9223 185.548,69.9223 185.998,69.9223 186.544,69.9223 187.163,69.9223 187.726,69.9223 188.183,69.9223 188.606,69.9223 189.1,69.9223 189.699,69.9223 190.309,69.9223 190.813,69.9223 191.236,69.9223 191.683,69.9223 192.234,69.9223 192.862,69.9223 193.312,69.9223 193.762,69.9223 194.308,69.9223 194.927,69.9223 195.49,69.9223 195.762,69.9223 196.034,69.9223 196.404,69.9223 196.728,69.9223 197.17,69.9223 197.728,69.9223 198.489,69.9223 199.5,69.9223 200.274,69.9223 201.048,69.9223 201.905,69.9223 202.791,69.9223 203.609,69.9223 204.348,69.9223 205.087,69.9223 205.908,69.9223 206.802,69.9223 207.665,69.9223 208.43,69.9223 209.149,69.9223 209.923,69.9223 210.798,69.9223 211.699,69.9223 212.51,69.9223 213.231,69.9223 213.962,69.9223 214.793,69.9223 215.708,69.9223 216.574,69.9223 217.324,69.9223 218.027,69.9223 218.803,69.9223 219.697,69.9223 220.613,69.9223 221.415,69.9223 222.117,69.9223 222.84,69.9223 223.684,69.9223 224.62,69.9223 225.489,69.9223 225.865,69.9223 226.084,69.9223 226.303,69.9223 226.557,69.9223 227.055,69.9223 227.593,69.9223 228.264,69.9223 229.106,69.9223 230.216,69.9223 231.733,69.9223 233.624,69.9223 234.857,69.9223 236.089,69.9223 237.644,69.9223 239.428,69.9223 240.665,69.9223 241.902,69.9223 243.435,69.9223 245.194,69.9223 246.454,69.9223 247.714,69.9223 249.242,69.9223 250.968,69.9223 252.538,69.9223 253.811,69.9223 254.996,69.9223 256.379,69.9223 258.052,69.9223 259.751,69.9223 261.156,69.9223 261.525,69.9223 261.895,69.9223 262.336,69.9223 264.545,69.9223 265.872,69.9223 266.689,69.9223 266.988,69.9223 267.287,69.9223 267.707,69.9223 269.811,69.9223 280.329,69.9223 293.147,69.9223 306.347,69.9223 319.547,69.9223 332.747,69.9223 345.947,69.9223 359.147,69.9223 372.347,69.9223 385.547,69.9223 398.747,69.9223 411.947,69.9223 425.147,69.9223 438.347,69.9223 451.547,69.9223 464.747,69.9223 477.947,69.9223 491.147,69.9223 504.347,69.9223 517.547,69.9223 530.747,69.9223 543.947,69.9223 557.147,69.9223 570.347,69.9223 583.547,69.9223 596.747,69.9223 609.947,69.9223 623.147,69.9223 636.347,69.9223 649.247,69.9223 661.836,69.9223 674,69.9223 685.988,69.9223 689,69.9223 "
           id="polyline51"
           style="stroke-width:2.40454821;stroke-dasharray:none;stroke:#49db40;stroke-opacity:1" /></g><g
         fill="none"
         stroke="#c05cfb"
         stroke-opacity="1"
         stroke-width="1.26042"
         stroke-linecap="butt"
         stroke-linejoin="round"
         transform="scale(0.6)"
         font-family="Helvetica"
         font-size="13px"
         font-weight="400"
         font-style="normal"
         id="g53"><polyline
           fill="none"
           vector-effect="none"
           points="29,411.698 29.0002,411.698 29.001,411.698 29.0051,411.698 29.0255,411.698 29.1277,411.698 29.3008,411.698 29.4918,411.699 29.7279,411.699 30.0214,411.699 30.3755,411.7 30.7073,411.7 30.9967,411.7 31.2674,411.699 31.5287,411.698 31.7847,411.697 32.0435,411.694 32.3198,411.691 32.6126,411.686 32.9237,411.679 33.2556,411.67 33.6125,411.658 34.0019,411.643 34.4401,411.623 34.9929,411.594 35.3924,411.572 35.7919,411.548 36.2132,411.522 36.6261,411.496 37.0318,411.471 37.4388,411.445 37.85,411.42 38.2653,411.395 38.6852,411.371 39.1106,411.347 39.5423,411.324 39.9808,411.301 40.4263,411.28 40.8791,411.26 41.3395,411.241 41.8074,411.223 42.283,411.206 42.7662,411.191 43.257,411.177 43.7552,411.165 44.2608,411.154 44.7737,411.144 45.2936,411.136 45.8203,411.129 46.3534,411.124 46.8926,411.12 47.4371,411.117 47.9865,411.115 48.5398,411.114 49.0962,411.114 49.6549,411.115 50.2152,411.117 50.7765,411.118 51.3382,411.121 51.8995,411.123 52.4599,411.126 53.0188,411.129 53.5759,411.131 54.1313,411.133 54.6854,411.135 55.238,411.137 55.788,410.877 56.5012,409.765 56.5012,409.765 56.5027,409.762 56.5027,409.762 56.5095,409.747 56.5095,409.747 56.5145,409.736 56.5145,409.736 56.652,409.422 56.8407,408.972 57.062,408.436 57.3401,407.761 57.6996,406.893 58.1869,405.725 58.8277,404.204 59.3136,403.063 59.7996,401.933 60.3444,400.677 60.9128,399.381 61.4372,398.198 61.9073,397.148 62.3754,396.112 62.896,394.97 63.4664,393.733 64.0189,392.547 64.5084,391.508 64.9669,390.544 65.4594,389.518 66.0163,388.37 66.5909,387.198 67.1097,386.152 67.5712,385.23 68.038,384.307 68.5678,383.269 69.1499,382.141 69.703,381.082 70.183,380.172 70.6338,379.326 71.1294,378.404 71.6988,377.356 72.2812,376.296 72.7941,375.373 73.2448,374.57 73.7081,373.751 74.2466,372.81 74.8414,371.781 75.3954,370.834 75.865,370.039 76.307,369.298 76.8051,368.47 77.3874,367.513 77.978,366.553 78.4845,365.739 78.924,365.039 79.3835,364.314 79.9304,363.458 80.538,362.519 81.0925,361.672 81.5518,360.976 81.9854,360.326 82.4858,359.582 83.0801,358.708 83.678,357.838 84.1785,357.118 84.6079,356.506 85.064,355.861 85.6183,355.084 86.2368,354.228 86.7915,353.468 87.2421,352.857 87.6686,352.284 88.1708,351.614 88.775,350.817 89.3787,350.03 89.8743,349.39 90.2957,348.851 90.7492,348.276 91.3089,347.573 91.9358,346.793 92.4906,346.112 92.9348,345.571 93.356,345.062 93.8594,344.46 94.4706,343.736 95.0785,343.024 95.5706,342.453 95.9865,341.976 96.4381,341.461 97.0014,340.825 97.6339,340.118 98.074,339.632 98.5142,339.149 99.0615,338.554 99.6935,337.875 100.145,337.395 100.597,336.919 101.144,336.346 101.762,335.707 102.323,335.133 102.779,334.672 103.204,334.245 103.7,333.751 104.299,333.16 104.907,332.567 105.409,332.082 105.833,331.677 106.281,331.251 106.834,330.732 107.46,330.149 107.91,329.735 108.359,329.325 108.905,328.83 109.525,328.275 110.089,327.776 110.545,327.376 110.968,327.008 111.461,326.582 112.06,326.071 112.671,325.555 113.175,325.133 113.598,324.783 114.044,324.416 114.596,323.967 115.223,323.461 115.673,323.102 116.123,322.746 116.67,322.318 117.289,321.838 117.852,321.406 118.308,321.06 118.732,320.74 119.226,320.371 119.825,319.928 120.434,319.482 120.938,319.117 121.361,318.814 121.808,318.495 122.36,318.106 122.987,317.669 123.437,317.358 123.887,317.049 124.433,316.678 125.052,316.263 125.615,315.889 126.071,315.589 126.495,315.312 126.989,314.993 127.588,314.609 128.198,314.223 128.702,313.907 129.125,313.644 129.572,313.369 130.123,313.032 130.75,312.653 131.2,312.384 131.651,312.117 132.197,311.796 132.816,311.436 133.379,311.112 133.835,310.853 134.259,310.613 134.753,310.337 135.352,310.005 135.961,309.671 136.465,309.397 136.889,309.17 137.336,308.932 137.887,308.64 138.514,308.312 138.964,308.08 139.414,307.849 139.961,307.571 140.58,307.26 141.143,306.979 141.599,306.755 142.023,306.548 142.517,306.309 143.116,306.022 143.725,305.733 144.229,305.496 144.652,305.3 145.1,305.093 145.651,304.841 146.278,304.558 146.728,304.357 147.178,304.157 147.725,303.917 148.343,303.648 148.907,303.405 149.363,303.211 149.787,303.032 150.281,302.825 150.879,302.577 151.489,302.327 151.993,302.123 152.416,301.953 152.863,301.775 153.415,301.557 154.042,301.312 154.492,301.138 154.942,300.965 155.489,300.758 156.107,300.525 156.67,300.316 157.127,300.148 157.55,299.994 158.045,299.815 158.643,299.6 159.253,299.384 159.757,299.208 160.18,299.061 160.627,298.907 161.179,298.719 161.806,298.507 162.256,298.357 162.706,298.208 163.252,298.028 163.871,297.827 164.434,297.646 164.891,297.501 165.314,297.368 165.808,297.213 166.407,297.028 167.017,296.841 167.521,296.689 167.944,296.562 168.391,296.429 168.943,296.267 169.57,296.084 170.02,295.954 170.47,295.825 171.016,295.67 171.635,295.497 172.198,295.34 172.654,295.215 173.078,295.1 173.572,294.967 174.171,294.807 174.781,294.645 175.285,294.514 175.708,294.404 176.155,294.289 176.707,294.149 177.334,293.991 177.784,293.879 178.234,293.768 178.78,293.634 179.399,293.484 179.962,293.349 180.418,293.241 180.842,293.142 181.336,293.026 181.935,292.888 182.545,292.749 183.049,292.635 183.472,292.541 183.919,292.442 184.47,292.32 185.098,292.184 185.548,292.087 185.998,291.991 186.544,291.876 187.163,291.746 187.726,291.63 188.183,291.537 188.606,291.451 189.1,291.351 189.699,291.232 190.309,291.112 190.813,291.014 191.236,290.932 191.683,290.847 192.234,290.742 192.862,290.624 193.312,290.541 193.762,290.458 194.308,290.358 194.927,290.246 195.49,290.146 195.762,290.098 196.034,290.044 196.404,289.92 196.728,289.795 197.17,289.619 197.728,289.398 198.489,289.1 199.5,288.709 200.274,288.416 201.048,288.127 201.905,287.812 202.791,287.491 203.609,287.2 204.348,286.941 205.087,286.685 205.908,286.406 206.802,286.106 207.665,285.821 208.43,285.573 209.149,285.343 209.923,285.099 210.798,284.827 211.699,284.552 212.51,284.308 213.231,284.095 213.962,283.881 214.793,283.642 215.708,283.383 216.574,283.142 217.324,282.937 218.027,282.747 218.803,282.54 219.697,282.305 220.613,282.069 221.415,281.866 222.117,281.69 222.84,281.512 223.684,281.307 224.62,281.083 225.489,280.879 225.865,280.792 226.084,280.741 226.303,280.686 226.557,280.577 227.055,280.281 227.593,279.915 228.264,279.444 229.106,278.854 230.216,278.089 231.733,277.068 233.624,275.836 234.857,275.058 236.089,274.297 237.644,273.363 239.428,272.324 240.665,271.624 241.902,270.941 243.435,270.117 245.194,269.199 246.454,268.561 247.714,267.939 249.242,267.203 250.968,266.397 252.538,265.686 253.811,265.127 254.996,264.617 256.379,264.037 258.052,263.355 259.751,262.684 261.156,262.146 261.525,262.008 261.895,261.727 262.336,260.94 264.545,250.149 265.872,238.641 266.689,229.85 266.988,226.334 267.287,224.37 267.707,224.37 269.811,224.37 280.329,224.37 293.147,224.37 306.347,224.37 319.547,224.37 332.747,224.37 345.947,224.37 359.147,224.37 372.347,224.37 385.547,224.37 398.747,224.37 411.947,224.37 425.147,224.37 438.347,224.37 451.547,224.37 464.747,224.37 477.947,224.37 491.147,224.37 504.347,224.37 517.547,224.37 530.747,224.37 543.947,224.37 557.147,224.37 570.347,224.37 583.547,224.37 596.747,224.37 609.947,224.37 623.147,224.37 636.347,224.37 649.247,224.37 661.836,224.37 674,224.37 685.988,224.37 689,224.37 "
           id="polyline52"
           style="stroke-width:2.40454821;stroke-dasharray:none" /></g><g
         fill="none"
         stroke="#6cf4ff"
         stroke-opacity="1"
         stroke-width="1.26042"
         stroke-linecap="butt"
         stroke-linejoin="round"
         transform="scale(0.6)"
         font-family="Helvetica"
         font-size="13px"
         font-weight="400"
         font-style="normal"
         id="g54"><polyline
           fill="none"
           vector-effect="none"
           points="29,411.698 29.0002,411.698 29.001,411.698 29.0051,411.698 29.0255,411.698 29.1277,411.698 29.3008,411.698 29.4918,411.698 29.7279,411.698 30.0214,411.698 30.3755,411.698 30.7073,411.698 30.9967,411.698 31.2674,411.698 31.5287,411.698 31.7847,411.698 32.0435,411.698 32.3198,411.698 32.6126,411.698 32.9237,411.698 33.2556,411.698 33.6125,411.698 34.0019,411.698 34.4401,411.698 34.9929,411.698 35.3924,411.698 35.7919,411.698 36.2132,411.698 36.6261,411.698 37.0318,411.698 37.4388,411.698 37.85,411.698 38.2653,411.698 38.6852,411.698 39.1106,411.698 39.5423,411.698 39.9808,411.698 40.4263,411.698 40.8791,411.698 41.3395,411.698 41.8074,411.698 42.283,411.698 42.7662,411.698 43.257,411.698 43.7552,411.698 44.2608,411.698 44.7737,411.698 45.2936,411.698 45.8203,411.698 46.3534,411.698 46.8926,411.698 47.4371,411.698 47.9865,411.698 48.5398,411.698 49.0962,411.698 49.6549,411.698 50.2152,411.698 50.7765,411.698 51.3382,411.698 51.8995,411.698 52.4599,411.698 53.0188,411.698 53.5759,411.698 54.1313,411.698 54.6854,411.698 55.238,280.716 55.788,280.716 56.5012,280.716 56.5012,280.716 56.5027,280.716 56.5027,280.716 56.5095,280.716 56.5095,280.716 56.5145,280.716 56.5145,280.716 56.652,280.716 56.8407,280.716 57.062,280.716 57.3401,280.716 57.6996,280.716 58.1869,280.716 58.8277,280.716 59.3136,280.716 59.7996,280.716 60.3444,280.716 60.9128,280.716 61.4372,280.716 61.9073,280.716 62.3754,280.716 62.896,280.716 63.4664,280.716 64.0189,280.716 64.5084,280.716 64.9669,280.716 65.4594,280.716 66.0163,280.716 66.5909,280.716 67.1097,280.716 67.5712,280.716 68.038,280.716 68.5678,280.716 69.1499,280.716 69.703,280.716 70.183,280.716 70.6338,280.716 71.1294,280.716 71.6988,280.716 72.2812,280.716 72.7941,280.716 73.2448,280.716 73.7081,280.716 74.2466,280.716 74.8414,280.716 75.3954,280.716 75.865,280.716 76.307,280.716 76.8051,280.716 77.3874,280.716 77.978,280.716 78.4845,280.716 78.924,280.716 79.3835,280.716 79.9304,280.716 80.538,280.716 81.0925,280.716 81.5518,280.716 81.9854,280.716 82.4858,280.716 83.0801,280.716 83.678,280.716 84.1785,280.716 84.6079,280.716 85.064,280.716 85.6183,280.716 86.2368,280.716 86.7915,280.716 87.2421,280.716 87.6686,280.716 88.1708,280.716 88.775,280.716 89.3787,280.716 89.8743,280.716 90.2957,280.716 90.7492,280.716 91.3089,280.716 91.9358,280.716 92.4906,280.716 92.9348,280.716 93.356,280.716 93.8594,280.716 94.4706,280.716 95.0785,280.716 95.5706,280.716 95.9865,280.716 96.4381,280.716 97.0014,280.716 97.6339,280.716 98.074,280.716 98.5142,280.716 99.0615,280.716 99.6935,280.716 100.145,280.716 100.597,280.716 101.144,280.716 101.762,280.716 102.323,280.716 102.779,280.716 103.204,280.716 103.7,280.716 104.299,280.716 104.907,280.716 105.409,280.716 105.833,280.716 106.281,280.716 106.834,280.716 107.46,280.716 107.91,280.716 108.359,280.716 108.905,280.716 109.525,280.716 110.089,280.716 110.545,280.716 110.968,280.716 111.461,280.716 112.06,280.716 112.671,280.716 113.175,280.716 113.598,280.716 114.044,280.716 114.596,280.716 115.223,280.716 115.673,280.716 116.123,280.716 116.67,280.716 117.289,280.716 117.852,280.716 118.308,280.716 118.732,280.716 119.226,280.716 119.825,280.716 120.434,280.716 120.938,280.716 121.361,280.716 121.808,280.716 122.36,280.716 122.987,280.716 123.437,280.716 123.887,280.716 124.433,280.716 125.052,280.716 125.615,280.716 126.071,280.716 126.495,280.716 126.989,280.716 127.588,280.716 128.198,280.716 128.702,280.716 129.125,280.716 129.572,280.716 130.123,280.716 130.75,280.716 131.2,280.716 131.651,280.716 132.197,280.716 132.816,280.716 133.379,280.716 133.835,280.716 134.259,280.716 134.753,280.716 135.352,280.716 135.961,280.716 136.465,280.716 136.889,280.716 137.336,280.716 137.887,280.716 138.514,280.716 138.964,280.716 139.414,280.716 139.961,280.716 140.58,280.716 141.143,280.716 141.599,280.716 142.023,280.716 142.517,280.716 143.116,280.716 143.725,280.716 144.229,280.716 144.652,280.716 145.1,280.716 145.651,280.716 146.278,280.716 146.728,280.716 147.178,280.716 147.725,280.716 148.343,280.716 148.907,280.716 149.363,280.716 149.787,280.716 150.281,280.716 150.879,280.716 151.489,280.716 151.993,280.716 152.416,280.716 152.863,280.716 153.415,280.716 154.042,280.716 154.492,280.716 154.942,280.716 155.489,280.716 156.107,280.716 156.67,280.716 157.127,280.716 157.55,280.716 158.045,280.716 158.643,280.716 159.253,280.716 159.757,280.716 160.18,280.716 160.627,280.716 161.179,280.716 161.806,280.716 162.256,280.716 162.706,280.716 163.252,280.716 163.871,280.716 164.434,280.716 164.891,280.716 165.314,280.716 165.808,280.716 166.407,280.716 167.017,280.716 167.521,280.716 167.944,280.716 168.391,280.716 168.943,280.716 169.57,280.716 170.02,280.716 170.47,280.716 171.016,280.716 171.635,280.716 172.198,280.716 172.654,280.716 173.078,280.716 173.572,280.716 174.171,280.716 174.781,280.716 175.285,280.716 175.708,280.716 176.155,280.716 176.707,280.716 177.334,280.716 177.784,280.716 178.234,280.716 178.78,280.716 179.399,280.716 179.962,280.716 180.418,280.716 180.842,280.716 181.336,280.716 181.935,280.716 182.545,280.716 183.049,280.716 183.472,280.716 183.919,280.716 184.47,280.716 185.098,280.716 185.548,280.716 185.998,280.716 186.544,280.716 187.163,280.716 187.726,280.716 188.183,280.716 188.606,280.716 189.1,280.716 189.699,280.716 190.309,280.716 190.813,280.716 191.236,280.716 191.683,280.716 192.234,280.716 192.862,280.716 193.312,280.716 193.762,280.716 194.308,280.716 194.927,280.716 195.49,280.716 195.762,280.716 196.034,280.716 196.404,280.716 196.728,280.716 197.17,280.716 197.728,280.716 198.489,280.716 199.5,280.716 200.274,280.716 201.048,280.716 201.905,280.716 202.791,280.716 203.609,280.716 204.348,280.716 205.087,280.716 205.908,280.716 206.802,280.716 207.665,280.716 208.43,280.716 209.149,280.716 209.923,280.716 210.798,280.716 211.699,280.716 212.51,280.716 213.231,280.716 213.962,280.716 214.793,280.716 215.708,280.716 216.574,280.716 217.324,280.716 218.027,280.716 218.803,280.716 219.697,280.716 220.613,280.716 221.415,280.716 222.117,280.716 222.84,280.716 223.684,280.716 224.62,280.716 225.489,280.716 225.865,280.716 226.084,280.716 226.303,280.716 226.557,280.716 227.055,280.716 227.593,280.716 228.264,280.716 229.106,280.716 230.216,280.716 231.733,280.716 233.624,280.716 234.857,280.716 236.089,280.716 237.644,280.716 239.428,280.716 240.665,280.716 241.902,280.716 243.435,280.716 245.194,280.716 246.454,280.716 247.714,280.716 249.242,280.716 250.968,280.716 252.538,280.716 253.811,280.716 254.996,280.716 256.379,280.716 258.052,280.716 259.751,280.716 261.156,280.716 261.525,280.716 261.895,280.716 262.336,280.716 264.545,280.716 265.872,280.716 266.689,280.716 266.988,280.716 267.287,280.716 267.707,280.716 269.811,280.716 280.329,280.716 293.147,280.716 306.347,280.716 319.547,280.716 332.747,280.716 345.947,280.716 359.147,280.716 372.347,280.716 385.547,280.716 398.747,280.716 411.947,280.716 425.147,280.716 438.347,280.716 451.547,280.716 464.747,280.716 477.947,280.716 491.147,280.716 504.347,280.716 517.547,280.716 530.747,280.716 543.947,280.716 557.147,280.716 570.347,280.716 583.547,280.716 596.747,280.716 609.947,280.716 623.147,280.716 636.347,280.716 649.247,280.716 661.836,280.716 674,280.716 685.988,280.716 689,280.716 "
           id="polyline53"
           style="stroke-width:2.40454821;stroke-dasharray:none" /></g></g><g
       inkscape:label=""
       transform="translate(247.077, 232.161)"
       id="g1"><g
   fill="#000000"
   fill-opacity="1"
   id="g2"
   transform="matrix(1.33333,0,0,1.33333,187.9745,356.36574)">
    <g
   id="use1"
   transform="translate(1.993,14.701)">
      <path
   d="m 4.15625,-8.296875 h 1.890625 c 0.390625,0 0.609375,0 0.609375,-0.375 0,-0.234375 -0.125,-0.234375 -0.546875,-0.234375 h -1.8125 L 5.0625,-11.921875 c 0.078125,-0.28125 0.078125,-0.328125 0.078125,-0.46875 0,-0.328125 -0.265625,-0.515625 -0.53125,-0.515625 -0.171875,0 -0.640625,0.0625 -0.8125,0.71875 L 3,-8.90625 H 1.046875 c -0.40625,0 -0.59375,0 -0.59375,0.390625 0,0.21875 0.140625,0.21875 0.53125,0.21875 h 1.84375 L 1.46875,-2.84375 c -0.171875,0.71875 -0.234375,0.921875 -0.234375,1.1875 0,0.96875 0.6875,1.859375 1.84375,1.859375 2.09375,0 3.203125,-3.015625 3.203125,-3.15625 0,-0.125 -0.078125,-0.1875 -0.203125,-0.1875 -0.046875,0 -0.125,0 -0.171875,0.078125 -0.015625,0.03125 -0.046875,0.046875 -0.1875,0.375 -0.4375,1.03125 -1.375,2.484375 -2.578125,2.484375 -0.625,0 -0.65625,-0.515625 -0.65625,-0.96875 0,-0.03125 0,-0.421875 0.0625,-0.671875 z m 0,0"
   id="path2" />
    </g>
  </g>
<path
   style="fill:#060606;fill-opacity:1;stroke:none;stroke-width:3;stroke-dasharray:none;stroke-opacity:1"
   d="m 221.83368,216.86113 h 32.89259"
   id="path3" /></g><path
       style="fill:#ffe864;fill-opacity:1;stroke:#ffe864;stroke-width:3;stroke-dasharray:none;stroke-opacity:1"
       d="m 474.26529,454.20146 h 37.48225"
       id="path4" /><path
       style="fill:#060606;fill-opacity:1;stroke:#268cdd;stroke-width:3;stroke-dasharray:none;stroke-opacity:1"
       d="m 474.26292,481.38033 h 37.48225"
       id="path4-1" /><path
       style="fill:#060606;fill-opacity:1;stroke:#000000;stroke-width:3;stroke-dasharray:none;stroke-opacity:1"
       d="M 474.06215,404.16516 H 511.5444"
       id="path4-4" /><path
       style="fill:#060606;fill-opacity:1;stroke:#000000;stroke-width:3;stroke-dasharray:none;stroke-opacity:1"
       d="m 474.05978,427.34403 h 37.48225"
       id="path4-1-3" /><path
       style="fill:#060606;fill-opacity:1;stroke:#c05cfb;stroke-width:3;stroke-dasharray:none;stroke-opacity:0.95294118"
       d="m 474.26124,512.55168 h 37.48225"
       id="path4-9" /><path
       style="fill:#060606;fill-opacity:1;stroke:#6cf4ff;stroke-width:3;stroke-dasharray:none;stroke-opacity:1"
       d="m 474.25887,535.73055 h 37.48225"
       id="path4-1-7" /><g
       inkscape:label=""
       transform="translate(549.22174,448.88811)"
       id="g37"><g
   fill="#000000"
   fill-opacity="1"
   id="g36"
   transform="matrix(1.33333,0,0,1.33333,-3.84483,-2.3715)">
    <g
   id="g35"
   transform="translate(1.993,10.888)">
      <path
   d="m -16.644507,41.612534 c 0.890625,-1.015625 1.609375,-1.65625 2.640625,-2.578125 1.234375,-1.078125 1.78125,-1.59375 2.0625,-1.906249 1.453125,-1.421875 2.1718747,-2.625 2.1718747,-2.78125 0,-0.171875 -0.15625,-0.171875 -0.203125,-0.171875 -0.1406247,0 -0.1874997,0.07813 -0.2968747,0.234375 -0.515625,0.875 -1,1.3125 -1.546875,1.3125 -0.4375,0 -0.65625,-0.1875 -1.046875,-0.671875 -0.4375,-0.53125 -0.78125,-0.875 -1.390625,-0.875 -1.5,0 -2.40625,1.875 -2.40625,2.3125 0,0.0625 0.01563,0.1875 0.203125,0.1875 0.15625,0 0.1875,-0.07813 0.25,-0.234375 0.34375,-0.8125 1.34375,-0.96875 1.734375,-0.96875 0.421875,0 0.84375,0.15625 1.28125,0.328125 0.78125,0.34375 1.109375,0.34375 1.3125,0.34375 0.15625,0 0.234375,0 0.328125,-0.03125 -0.671875,0.8125 -1.796875,1.796874 -2.71875,2.640624 l -2.09375,1.921875 c -1.25,1.28125 -2.015625,2.5 -2.015625,2.65625 0,0.125 0.09375,0.15625 0.21875,0.15625 0.125,0 0.15625,-0.01563 0.296875,-0.265625 0.328125,-0.515625 0.984375,-1.28125 1.75,-1.28125 0.4375,0 0.640625,0.140625 1.0625,0.65625 0.390625,0.453125 0.734375,0.890625 1.40625,0.890625 2.015625,0 3.171875,-2.625 3.171875,-3.09375 0,-0.07813 -0.01563,-0.203125 -0.21875,-0.203125 -0.171875,0 -0.1875,0.07813 -0.25,0.28125 -0.453125,1.21875 -1.671875,1.71875 -2.484375,1.71875 -0.4375,0 -0.84375,-0.140625 -1.28125,-0.328125 -0.828125,-0.328125 -1.046875,-0.328125 -1.3125,-0.328125 -0.21875,0 -0.4375,0 -0.625,0.07813 z m 0,0"
   id="path35" />
    <g
   inkscape:label=""
   transform="matrix(0.750002,0,0,0.750002,0.89063,-9.10937)"
   id="g40"><g
   fill="#000000"
   fill-opacity="1"
   id="g39"
   transform="matrix(1.33333,0,0,1.33333,-3.42817,-2.3715)">
    <g
   id="g38"
   transform="translate(1.993,10.888)">
      <path
   d="m -10.022455,-47.842682 c -0.671875,0.125 -0.921875,0.609375 -0.921875,1 0,0.5 0.40625,0.671875 0.6875,0.671875 0.6250004,0 1.0625004,-0.546875 1.0625004,-1.09375 0,-0.875 -1.0000004,-1.265625 -1.8593754,-1.265625 -1.265625,0 -1.96875,1.234375 -2.15625,1.625 -0.46875,-1.546875 -1.75,-1.625 -2.125,-1.625 -2.109375,0 -3.21875,2.703125 -3.21875,3.15625 0,0.09375 0.07813,0.1875 0.21875,0.1875 0.171875,0 0.203125,-0.125 0.25,-0.203125 0.703125,-2.296875 2.09375,-2.734375 2.6875,-2.734375 0.921875,0 1.109375,0.875 1.109375,1.375 0,0.453125 -0.125,0.921875 -0.359375,1.921875 l -0.703125,2.828125 c -0.3125,1.234375 -0.921875,2.375 -2.015625,2.375 -0.09375,0 -0.609375,0 -1.046875,-0.265625 0.734375,-0.15625 0.90625,-0.765625 0.90625,-1.015625 0,-0.421875 -0.3125,-0.65625 -0.703125,-0.65625 -0.5,0 -1.03125,0.421875 -1.03125,1.09375 0,0.859375 0.96875,1.25 1.859375,1.25 0.984375,0 1.6875,-0.78125 2.125,-1.625 0.328125,1.21875 1.359375,1.625 2.125,1.625 2.109375,0 3.2343754,-2.703125 3.2343754,-3.15625 0,-0.109375 -0.09375,-0.1875 -0.2187504,-0.1875 -0.1875,0 -0.203125,0.109375 -0.265625,0.265625 -0.5625,1.828125 -1.75,2.671875 -2.6875,2.671875 -0.71875,0 -1.109375,-0.546875 -1.109375,-1.390625 0,-0.453125 0.07813,-0.78125 0.40625,-2.140625 l 0.734375,-2.8125 c 0.296875,-1.234375 1,-2.15625 1.953125,-2.15625 0.04687,0 0.625,0 1.0625,0.28125 z m 0,0"
   id="path38" />
    </g>
  </g>
</g></g>
  </g>
</g><g
       inkscape:label=""
       transform="translate(367.17353,396.90198)"
       id="g56"><g
   fill="#000000"
   fill-opacity="1"
   id="g42"
   transform="matrix(1.33333,0,0,1.33333,-3.40733,-2.37283)">
    <g
   id="g41"
   transform="translate(1.993,10.889)">
      <path
   d="m 122.47423,39.890469 c -0.5625,0.78125 -1.375,1.484375 -2.375,1.484375 -0.25,0 -1.25,-0.03125 -1.54688,-0.984375 0.0469,0.01563 0.15625,0.01563 0.20313,0.01563 0.60937,0 1.03125,-0.53125 1.03125,-1.015625 0,-0.46875 -0.39063,-0.640625 -0.70313,-0.640625 -0.32812,0 -1.0625,0.25 -1.0625,1.265625 0,1.046875 0.89063,1.78125 2.07813,1.78125 2.0625,0 4.14062,-1.90625 4.71875,-4.203125 l 2.03125,-8.046875 c 0.0156,-0.109375 0.0625,-0.234375 0.0625,-0.359375 0,-0.3125 -0.25,-0.515625 -0.5625,-0.515625 -0.1875,0 -0.60938,0.09375 -0.78125,0.703125 l -1.53125,6.078125 c -0.0937,0.375 -0.0937,0.40625 -0.26563,0.640625 -0.40625,0.578125 -1.09375,1.28125 -2.09375,1.28125 -1.15625,0 -1.25,-1.140625 -1.25,-1.703125 0,-1.171875 0.5625,-2.765625 1.10938,-4.25 0.23437,-0.59375 0.35937,-0.890625 0.35937,-1.296875 0,-0.875 -0.625,-1.65625 -1.64062,-1.65625 -1.89063,0 -2.65625,3 -2.65625,3.15625 0,0.09375 0.0781,0.1875 0.21875,0.1875 0.1875,0 0.20312,-0.07813 0.29687,-0.375 0.48438,-1.734375 1.28125,-2.5625 2.07813,-2.5625 0.1875,0 0.54687,0 0.54687,0.6875 0,0.53125 -0.23437,1.140625 -0.54687,1.921875 -1.01563,2.703125 -1.01563,3.390625 -1.01563,3.890625 0,1.953125 1.40625,2.40625 2.4375,2.40625 0.60938,0 1.34375,-0.1875 2.07813,-0.953125 l 0.0156,0.03125 c -0.3125,1.21875 -0.51562,2.015625 -1.23437,3.03125 z m 0,0"
   id="path41" />
    </g>
  </g>
</g><g
       inkscape:label=""
       transform="translate(307.77, 394.584)"
       id="g57"><g
   fill="#000000"
   fill-opacity="1"
   id="g3"
   transform="matrix(1.33333,0,0,1.33333,210.72197,126.2329)">
    <g
   id="use2"
   transform="translate(1.993,16.165001)">
      <path
   d="M 2.625,-1.671875 C 3.515625,-2.6875 4.234375,-3.328125 5.265625,-4.25 6.5,-5.328125 7.046875,-5.84375 7.328125,-6.15625 8.78125,-7.578125 9.5,-8.78125 9.5,-8.9375 9.5,-9.109375 9.34375,-9.109375 9.296875,-9.109375 9.15625,-9.109375 9.109375,-9.03125 9,-8.875 8.484375,-8 8,-7.5625 7.453125,-7.5625 c -0.4375,0 -0.65625,-0.1875 -1.046875,-0.671875 -0.4375,-0.53125 -0.78125,-0.875 -1.390625,-0.875 -1.5,0 -2.40625,1.875 -2.40625,2.3125 0,0.0625 0.015625,0.1875 0.203125,0.1875 0.15625,0 0.1875,-0.078125 0.25,-0.234375 0.34375,-0.8125 1.34375,-0.96875 1.734375,-0.96875 0.421875,0 0.84375,0.15625 1.28125,0.328125 0.78125,0.34375 1.109375,0.34375 1.3125,0.34375 0.15625,0 0.234375,0 0.328125,-0.03125 C 7.046875,-6.359375 5.921875,-5.375 5,-4.53125 l -2.09375,1.921875 c -1.25,1.28125 -2.015625,2.5 -2.015625,2.65625 0,0.125 0.09375,0.15625 0.21875,0.15625 0.125,0 0.15625,-0.015625 0.296875,-0.265625 0.328125,-0.515625 0.984375,-1.28125 1.75,-1.28125 0.4375,0 0.640625,0.140625 1.0625,0.65625 0.390625,0.453125 0.734375,0.890625 1.40625,0.890625 2.015625,0 3.171875,-2.625 3.171875,-3.09375 0,-0.078125 -0.015625,-0.203125 -0.21875,-0.203125 -0.171875,0 -0.1875,0.078125 -0.25,0.28125 C 7.875,-1.59375 6.65625,-1.09375 5.84375,-1.09375 5.40625,-1.09375 5,-1.234375 4.5625,-1.421875 3.734375,-1.75 3.515625,-1.75 3.25,-1.75 c -0.21875,0 -0.4375,0 -0.625,0.078125 z m 0,0"
   id="path57" />
    </g>
  </g>
  <g
   fill="#000000"
   fill-opacity="1"
   id="g4"
   transform="matrix(1.33333,0,0,1.33333,210.72197,126.2329)">
    <g
   id="use3"
   transform="translate(12.312,8.6669998)">
      <path
   d="m 3.9375,-6.125 c 0.015625,-0.203125 0.015625,-0.546875 -0.359375,-0.546875 -0.21875,0 -0.40625,0.1875 -0.359375,0.375 v 0.1875 l 0.1875,2.21875 -1.828125,-1.328125 c -0.125,-0.078125 -0.15625,-0.109375 -0.265625,-0.109375 -0.1875,0 -0.375,0.203125 -0.375,0.40625 0,0.234375 0.140625,0.28125 0.28125,0.359375 L 3.25,-3.578125 1.28125,-2.625 c -0.234375,0.109375 -0.34375,0.171875 -0.34375,0.390625 0,0.21875 0.1875,0.390625 0.375,0.390625 0.109375,0 0.140625,0 0.5,-0.265625 l 1.59375,-1.15625 -0.203125,2.40625 c 0,0.296875 0.25,0.375 0.375,0.375 0.171875,0 0.375,-0.109375 0.375,-0.375 L 3.75,-3.265625 5.578125,-1.9375 c 0.125,0.078125 0.15625,0.09375 0.265625,0.09375 0.1875,0 0.375,-0.1875 0.375,-0.390625 0,-0.21875 -0.125,-0.296875 -0.296875,-0.375 C 5.0625,-3.046875 5.03125,-3.046875 3.90625,-3.578125 L 5.875,-4.53125 c 0.234375,-0.109375 0.34375,-0.171875 0.34375,-0.390625 0,-0.21875 -0.1875,-0.40625 -0.375,-0.40625 -0.109375,0 -0.140625,0 -0.5,0.28125 L 3.75,-3.890625 Z m 0,0"
   id="path5" />
    </g>
  </g>
<g
   inkscape:label=""
   id="g62"
   transform="translate(214.5668,19.1236)"><g
   fill="#000000"
   fill-opacity="1"
   id="g59"
   transform="matrix(1.33333,0,0,1.33333,-3.42817,-2.66017)">
    <g
   id="g58"
   transform="translate(1.993,16.165001)">
      <path
   d="m 9.796875,-8.421875 c -0.671875,0.125 -0.921875,0.609375 -0.921875,1 0,0.5 0.40625,0.671875 0.6875,0.671875 0.625,0 1.0625,-0.546875 1.0625,-1.09375 0,-0.875 -1,-1.265625 -1.859375,-1.265625 -1.265625,0 -1.96875,1.234375 -2.15625,1.625 -0.46875,-1.546875 -1.75,-1.625 -2.125,-1.625 -2.109375,0 -3.21875,2.703125 -3.21875,3.15625 0,0.09375 0.078125,0.1875 0.21875,0.1875 0.171875,0 0.203125,-0.125 0.25,-0.203125 0.703125,-2.296875 2.09375,-2.734375 2.6875,-2.734375 0.921875,0 1.109375,0.875 1.109375,1.375 0,0.453125 -0.125,0.921875 -0.359375,1.921875 L 4.46875,-2.578125 c -0.3125,1.234375 -0.921875,2.375 -2.015625,2.375 -0.09375,0 -0.609375,0 -1.046875,-0.265625 C 2.140625,-0.625 2.3125,-1.234375 2.3125,-1.484375 2.3125,-1.90625 2,-2.140625 1.609375,-2.140625 c -0.5,0 -1.03125,0.421875 -1.03125,1.09375 0,0.859375 0.96875,1.25 1.859375,1.25 0.984375,0 1.6875,-0.78125 2.125,-1.625 0.328125,1.21875 1.359375,1.625 2.125,1.625 2.109375,0 3.234375,-2.703125 3.234375,-3.15625 0,-0.109375 -0.09375,-0.1875 -0.21875,-0.1875 -0.1875,0 -0.203125,0.109375 -0.265625,0.265625 -0.5625,1.828125 -1.75,2.671875 -2.6875,2.671875 -0.71875,0 -1.109375,-0.546875 -1.109375,-1.390625 0,-0.453125 0.078125,-0.78125 0.40625,-2.140625 l 0.734375,-2.8125 c 0.296875,-1.234375 1,-2.15625 1.953125,-2.15625 0.046875,0 0.625,0 1.0625,0.28125 z m 0,0"
   id="path58" />
    </g>
  </g>
  <g
   fill="#000000"
   fill-opacity="1"
   id="g61"
   transform="matrix(1.33333,0,0,1.33333,-3.42817,-2.66017)">
    <g
   id="g60"
   transform="translate(13.49,8.6669998)">
      <path
   d="m 3.9375,-6.125 c 0.015625,-0.203125 0.015625,-0.546875 -0.359375,-0.546875 -0.21875,0 -0.40625,0.1875 -0.359375,0.375 v 0.1875 l 0.1875,2.21875 -1.828125,-1.328125 c -0.125,-0.078125 -0.15625,-0.109375 -0.265625,-0.109375 -0.1875,0 -0.375,0.203125 -0.375,0.40625 0,0.234375 0.140625,0.28125 0.28125,0.359375 L 3.25,-3.578125 1.28125,-2.625 c -0.234375,0.109375 -0.34375,0.171875 -0.34375,0.390625 0,0.21875 0.1875,0.390625 0.375,0.390625 0.109375,0 0.140625,0 0.5,-0.265625 l 1.59375,-1.15625 -0.203125,2.40625 c 0,0.296875 0.25,0.375 0.375,0.375 0.171875,0 0.375,-0.109375 0.375,-0.375 L 3.75,-3.265625 5.578125,-1.9375 c 0.125,0.078125 0.15625,0.09375 0.265625,0.09375 0.1875,0 0.375,-0.1875 0.375,-0.390625 0,-0.21875 -0.125,-0.296875 -0.296875,-0.375 C 5.0625,-3.046875 5.03125,-3.046875 3.90625,-3.578125 L 5.875,-4.53125 c 0.234375,-0.109375 0.34375,-0.171875 0.34375,-0.390625 0,-0.21875 -0.1875,-0.40625 -0.375,-0.40625 -0.109375,0 -0.140625,0 -0.5,0.28125 L 3.75,-3.890625 Z m 0,0"
   id="path59" />
    </g>
  </g>
</g><g
   inkscape:label=""
   id="g67"><g
   fill="#000000"
   fill-opacity="1"
   id="g64"
   transform="matrix(1.33333 0 0 1.33333 -3.40733 -2.6615)">
    <g
   id="g63"
   transform="translate(1.993,16.166)">
      <path
   d="m 165.21558,57.675461 c -0.5625,0.78125 -1.375,1.484375 -2.375,1.484375 -0.25,0 -1.25,-0.03125 -1.54688,-0.984375 0.0469,0.01563 0.15625,0.01563 0.20313,0.01563 0.60937,0 1.03125,-0.53125 1.03125,-1.015625 0,-0.46875 -0.39063,-0.640625 -0.70313,-0.640625 -0.32812,0 -1.0625,0.25 -1.0625,1.265625 0,1.046875 0.89063,1.78125 2.07813,1.78125 2.0625,0 4.14062,-1.90625 4.71875,-4.203125 l 2.03125,-8.046875 c 0.0156,-0.109375 0.0625,-0.234375 0.0625,-0.359375 0,-0.3125 -0.25,-0.515625 -0.5625,-0.515625 -0.1875,0 -0.60938,0.09375 -0.78125,0.703125 l -1.53125,6.078125 c -0.0937,0.375 -0.0937,0.40625 -0.26563,0.640625 -0.40625,0.578125 -1.09375,1.28125 -2.09375,1.28125 -1.15625,0 -1.25,-1.140625 -1.25,-1.703125 0,-1.171875 0.5625,-2.765625 1.10938,-4.25 0.23437,-0.59375 0.35937,-0.890625 0.35937,-1.296875 0,-0.875 -0.625,-1.65625 -1.64062,-1.65625 -1.89063,0 -2.65625,3 -2.65625,3.15625 0,0.09375 0.0781,0.1875 0.21875,0.1875 0.1875,0 0.20312,-0.07813 0.29687,-0.375 0.48438,-1.734375 1.28125,-2.5625 2.07813,-2.5625 0.1875,0 0.54687,0 0.54687,0.6875 0,0.53125 -0.23437,1.140625 -0.54687,1.921875 -1.01563,2.703125 -1.01563,3.390625 -1.01563,3.890625 0,1.953125 1.40625,2.40625 2.4375,2.40625 0.60938,0 1.34375,-0.1875 2.07813,-0.953125 l 0.0156,0.03125 c -0.3125,1.21875 -0.51562,2.015625 -1.23437,3.03125 z m 0,0"
   id="path63" />
    </g>
  </g>
  <g
   fill="#000000"
   fill-opacity="1"
   id="g66"
   transform="matrix(1.33333 0 0 1.33333 -3.40733 -2.6615)">
    <g
   id="g65"
   transform="translate(12.599,8.6680002)">
      <path
   d="m 163.71558,49.237961 c 0.0156,-0.203125 0.0156,-0.546875 -0.35938,-0.546875 -0.21875,0 -0.40625,0.1875 -0.35937,0.375 v 0.1875 l 0.1875,2.21875 -1.82813,-1.328125 c -0.125,-0.07813 -0.15625,-0.109375 -0.26562,-0.109375 -0.1875,0 -0.375,0.203125 -0.375,0.40625 0,0.234375 0.14062,0.28125 0.28125,0.359375 l 2.03125,0.984375 -1.96875,0.953125 c -0.23438,0.109375 -0.34375,0.171875 -0.34375,0.390625 0,0.21875 0.1875,0.390625 0.375,0.390625 0.10937,0 0.14062,0 0.5,-0.265625 l 1.59375,-1.15625 -0.20313,2.40625 c 0,0.296875 0.25,0.375 0.375,0.375 0.17188,0 0.375,-0.109375 0.375,-0.375 l -0.20312,-2.40625 1.82812,1.328125 c 0.125,0.07813 0.15625,0.09375 0.26563,0.09375 0.1875,0 0.375,-0.1875 0.375,-0.390625 0,-0.21875 -0.125,-0.296875 -0.29688,-0.375 -0.85937,-0.4375 -0.89062,-0.4375 -2.01562,-0.96875 l 1.96875,-0.953125 c 0.23437,-0.109375 0.34375,-0.171875 0.34375,-0.390625 0,-0.21875 -0.1875,-0.40625 -0.375,-0.40625 -0.10938,0 -0.14063,0 -0.5,0.28125 l -1.59375,1.15625 z m 0,0"
   id="path64" />
    </g>
  </g>
</g></g><path
       style="fill:#f57729;fill-opacity:1;stroke:#f57729;stroke-width:0.202836;stroke-dasharray:none;stroke-opacity:1"
       d="m 474.0625,404.18536 v -1.45366 h 18.72856 18.72856 v 1.45366 1.45366 H 492.79106 474.0625 Z"
       id="path68" /><path
       style="fill:#49db40;fill-opacity:1;stroke:#f57729;stroke-width:0.405673;stroke-dasharray:none;stroke-opacity:1"
       d="m 474.16392,427.30871 v -1.41986 h 18.66095 18.66095 v 1.41986 1.41985 h -18.66095 -18.66095 z"
       id="path69" /><path
       style="fill:#49db40;fill-opacity:1;stroke:#f57729;stroke-width:0.405673;stroke-dasharray:none;stroke-opacity:1"
       d="m 474.43437,427.30871 v -1.14941 h 18.3905 18.3905 v 1.14941 1.1494 h -18.3905 -18.3905 z"
       id="path70" /><path
       id="path71"
       style="fill:#49db40;fill-opacity:0.93333334;stroke:none;stroke-width:0.405673;stroke-dasharray:none;stroke-opacity:0.48235294"
       d="M 474.0293 425.75391 L 474.0293 427.30859 L 474.0293 428.86328 L 492.82422 428.86328 L 511.62109 428.86328 L 511.62109 427.30859 L 511.62109 425.75391 L 492.82422 425.75391 L 474.0293 425.75391 z M 474.57031 426.29492 L 492.82422 426.29492 L 511.08008 426.29492 L 511.08008 427.30859 L 511.08008 428.32227 L 507.64062 428.32227 C 505.49306 428.32227 504.16743 428.2719 504.11523 428.1875 C 504.06926 428.11317 503.49262 428.05273 502.83203 428.05273 C 502.17145 428.05273 501.59281 427.99237 501.54688 427.91797 C 501.43707 427.74028 498.68209 427.74028 498.57227 427.91797 C 498.518 428.00579 495.53057 428.05273 490.05273 428.05273 C 484.57496 428.05273 481.5875 428.0997 481.5332 428.1875 C 481.48103 428.27192 480.15733 428.32227 478.00977 428.32227 L 474.57031 428.32227 L 474.57031 427.30859 L 474.57031 426.29492 z M 474.83984 426.56445 L 474.83984 427.31836 L 474.83984 428.07227 L 478.25391 427.99414 C 482.00324 427.90821 497.90352 427.64085 500.05859 427.62695 C 500.80232 427.62214 502.01994 427.68784 502.76367 427.77344 C 503.50741 427.85906 505.62215 427.96225 507.46289 428.00195 L 510.81055 428.07422 L 510.81055 427.31836 L 510.81055 426.56445 L 492.82422 426.56445 L 474.83984 426.56445 z " /></g></svg>
