<?xml version="1.0" encoding="UTF-8" standalone="no"?>
<svg width="148.519mm" height="104.069mm"
 viewBox="0 0 421 295"
 xmlns="http://www.w3.org/2000/svg" xmlns:xlink="http://www.w3.org/1999/xlink"  version="1.2" baseProfile="tiny">
<title>Qt SVG Document</title>
<desc>MATLAB, The MathWorks, Inc. Version 24.2.0.2740171 R2024b Update 1</desc>
<defs>
</defs>
<g fill="none" stroke="black" stroke-width="1" fill-rule="evenodd" stroke-linecap="square" stroke-linejoin="bevel" >

<g fill="#ffffff" fill-opacity="1" stroke="none" transform="matrix(0.6,0,0,0.6,0,0)"
font-family="MS Shell Dlg 2" font-size="7.8" font-weight="400" font-style="normal" 
>
<path vector-effect="none" fill-rule="evenodd" d="M0,0 L703,0 L703,493 L0,493 L0,0"/>
</g>

<g fill="#000000" fill-opacity="1" stroke="none" transform="matrix(6e-05,0,0,6e-05,0,0)"
font-family="MS Shell Dlg 2" font-size="7.8" font-weight="400" font-style="normal" 
>
<path vector-effect="none" fill-rule="evenodd" d="M290000,130000 L290000,4.55e+06 L6.89e+06,4.55e+06 L6.89e+06,130000 L290000,130000"/>
</g>

<g fill="#afafaf" fill-opacity="0.4" stroke="#afafaf" stroke-opacity="0.4" stroke-width="0.840278" stroke-linecap="butt" stroke-linejoin="round" transform="matrix(0.6,0,0,0.6,0,0)"
font-family="MS Shell Dlg 2" font-size="7.8" font-weight="400" font-style="normal" 
>
<polyline fill="none" vector-effect="none" points="29,13 29,455 " />
<polyline fill="none" vector-effect="none" points="123.286,13 123.286,455 " />
<polyline fill="none" vector-effect="none" points="217.571,13 217.571,455 " />
<polyline fill="none" vector-effect="none" points="311.857,13 311.857,455 " />
<polyline fill="none" vector-effect="none" points="406.143,13 406.143,455 " />
<polyline fill="none" vector-effect="none" points="500.429,13 500.429,455 " />
<polyline fill="none" vector-effect="none" points="594.714,13 594.714,455 " />
<polyline fill="none" vector-effect="none" points="689,13 689,455 " />
<polyline fill="none" vector-effect="none" points="29,410.8 689,410.8 " />
<polyline fill="none" vector-effect="none" points="29,322.4 689,322.4 " />
<polyline fill="none" vector-effect="none" points="29,234 689,234 " />
<polyline fill="none" vector-effect="none" points="29,145.6 689,145.6 " />
<polyline fill="none" vector-effect="none" points="29,57.2 689,57.2 " />
</g>

<g fill="#afafaf" fill-opacity="1" stroke="#afafaf" stroke-opacity="1" stroke-width="1" stroke-linecap="square" stroke-linejoin="bevel" transform="matrix(0.6,0,0,0.6,214.2,291.488)"
font-family="Helvetica" font-size="14" font-weight="400" font-style="normal" 
>
<text fill="#afafaf" fill-opacity="1" stroke="none" xml:space="preserve" x="0" y="0" font-family="Helvetica" font-size="14" font-weight="400" font-style="normal" 
 > </text>
</g>

<g fill="#afafaf" fill-opacity="1" stroke="#afafaf" stroke-opacity="1" stroke-width="0.840278" stroke-linecap="butt" stroke-linejoin="round" transform="matrix(0.6,0,0,0.6,0,0)"
font-family="Helvetica" font-size="14" font-weight="400" font-style="normal" 
>
<polyline fill="none" vector-effect="none" points="29,455 689,455 " />
<polyline fill="none" vector-effect="none" points="29,13 689,13 " />
<polyline fill="none" vector-effect="none" points="29,455 29,448.4 " />
<polyline fill="none" vector-effect="none" points="29,19.6 29,13 " />
<polyline fill="none" vector-effect="none" points="123.286,455 123.286,448.4 " />
<polyline fill="none" vector-effect="none" points="123.286,19.6 123.286,13 " />
<polyline fill="none" vector-effect="none" points="217.571,455 217.571,448.4 " />
<polyline fill="none" vector-effect="none" points="217.571,19.6 217.571,13 " />
<polyline fill="none" vector-effect="none" points="311.857,455 311.857,448.4 " />
<polyline fill="none" vector-effect="none" points="311.857,19.6 311.857,13 " />
<polyline fill="none" vector-effect="none" points="406.143,455 406.143,448.4 " />
<polyline fill="none" vector-effect="none" points="406.143,19.6 406.143,13 " />
<polyline fill="none" vector-effect="none" points="500.429,455 500.429,448.4 " />
<polyline fill="none" vector-effect="none" points="500.429,19.6 500.429,13 " />
<polyline fill="none" vector-effect="none" points="594.714,455 594.714,448.4 " />
<polyline fill="none" vector-effect="none" points="594.714,19.6 594.714,13 " />
<polyline fill="none" vector-effect="none" points="689,455 689,448.4 " />
<polyline fill="none" vector-effect="none" points="689,19.6 689,13 " />
</g>

<g fill="#afafaf" fill-opacity="1" stroke="#afafaf" stroke-opacity="1" stroke-width="1" stroke-linecap="square" stroke-linejoin="bevel" transform="matrix(0.6,0,0,0.6,15.3,281.813)"
font-family="Helvetica" font-size="13" font-weight="400" font-style="normal" 
>
<text fill="#afafaf" fill-opacity="1" stroke="none" xml:space="preserve" x="0" y="0" font-family="Helvetica" font-size="13" font-weight="400" font-style="normal" 
 >0</text>
</g>

<g fill="#afafaf" fill-opacity="1" stroke="#afafaf" stroke-opacity="1" stroke-width="1" stroke-linecap="square" stroke-linejoin="bevel" transform="matrix(0.6,0,0,0.6,71.8714,281.813)"
font-family="Helvetica" font-size="13" font-weight="400" font-style="normal" 
>
<text fill="#afafaf" fill-opacity="1" stroke="none" xml:space="preserve" x="0" y="0" font-family="Helvetica" font-size="13" font-weight="400" font-style="normal" 
 >1</text>
</g>

<g fill="#afafaf" fill-opacity="1" stroke="#afafaf" stroke-opacity="1" stroke-width="1" stroke-linecap="square" stroke-linejoin="bevel" transform="matrix(0.6,0,0,0.6,128.443,281.813)"
font-family="Helvetica" font-size="13" font-weight="400" font-style="normal" 
>
<text fill="#afafaf" fill-opacity="1" stroke="none" xml:space="preserve" x="0" y="0" font-family="Helvetica" font-size="13" font-weight="400" font-style="normal" 
 >2</text>
</g>

<g fill="#afafaf" fill-opacity="1" stroke="#afafaf" stroke-opacity="1" stroke-width="1" stroke-linecap="square" stroke-linejoin="bevel" transform="matrix(0.6,0,0,0.6,185.014,281.813)"
font-family="Helvetica" font-size="13" font-weight="400" font-style="normal" 
>
<text fill="#afafaf" fill-opacity="1" stroke="none" xml:space="preserve" x="0" y="0" font-family="Helvetica" font-size="13" font-weight="400" font-style="normal" 
 >3</text>
</g>

<g fill="#afafaf" fill-opacity="1" stroke="#afafaf" stroke-opacity="1" stroke-width="1" stroke-linecap="square" stroke-linejoin="bevel" transform="matrix(0.6,0,0,0.6,241.586,281.813)"
font-family="Helvetica" font-size="13" font-weight="400" font-style="normal" 
>
<text fill="#afafaf" fill-opacity="1" stroke="none" xml:space="preserve" x="0" y="0" font-family="Helvetica" font-size="13" font-weight="400" font-style="normal" 
 >4</text>
</g>

<g fill="#afafaf" fill-opacity="1" stroke="#afafaf" stroke-opacity="1" stroke-width="1" stroke-linecap="square" stroke-linejoin="bevel" transform="matrix(0.6,0,0,0.6,298.157,281.813)"
font-family="Helvetica" font-size="13" font-weight="400" font-style="normal" 
>
<text fill="#afafaf" fill-opacity="1" stroke="none" xml:space="preserve" x="0" y="0" font-family="Helvetica" font-size="13" font-weight="400" font-style="normal" 
 >5</text>
</g>

<g fill="#afafaf" fill-opacity="1" stroke="#afafaf" stroke-opacity="1" stroke-width="1" stroke-linecap="square" stroke-linejoin="bevel" transform="matrix(0.6,0,0,0.6,354.729,281.813)"
font-family="Helvetica" font-size="13" font-weight="400" font-style="normal" 
>
<text fill="#afafaf" fill-opacity="1" stroke="none" xml:space="preserve" x="0" y="0" font-family="Helvetica" font-size="13" font-weight="400" font-style="normal" 
 >6</text>
</g>

<g fill="#afafaf" fill-opacity="1" stroke="#afafaf" stroke-opacity="1" stroke-width="1" stroke-linecap="square" stroke-linejoin="bevel" transform="matrix(0.6,0,0,0.6,411.3,281.813)"
font-family="Helvetica" font-size="13" font-weight="400" font-style="normal" 
>
<text fill="#afafaf" fill-opacity="1" stroke="none" xml:space="preserve" x="0" y="0" font-family="Helvetica" font-size="13" font-weight="400" font-style="normal" 
 >7</text>
</g>

<g fill="#afafaf" fill-opacity="1" stroke="#afafaf" stroke-opacity="1" stroke-width="0.840278" stroke-linecap="butt" stroke-linejoin="round" transform="matrix(0.6,0,0,0.6,0,0)"
font-family="Helvetica" font-size="13" font-weight="400" font-style="normal" 
>
<polyline fill="none" vector-effect="none" points="29,455 29,13 " />
<polyline fill="none" vector-effect="none" points="689,455 689,13 " />
<polyline fill="none" vector-effect="none" points="29,410.8 35.6,410.8 " />
<polyline fill="none" vector-effect="none" points="682.4,410.8 689,410.8 " />
<polyline fill="none" vector-effect="none" points="29,322.4 35.6,322.4 " />
<polyline fill="none" vector-effect="none" points="682.4,322.4 689,322.4 " />
<polyline fill="none" vector-effect="none" points="29,234 35.6,234 " />
<polyline fill="none" vector-effect="none" points="682.4,234 689,234 " />
<polyline fill="none" vector-effect="none" points="29,145.6 35.6,145.6 " />
<polyline fill="none" vector-effect="none" points="682.4,145.6 689,145.6 " />
<polyline fill="none" vector-effect="none" points="29,57.2 35.6,57.2 " />
<polyline fill="none" vector-effect="none" points="682.4,57.2 689,57.2 " />
</g>

<g fill="#afafaf" fill-opacity="1" stroke="#afafaf" stroke-opacity="1" stroke-width="1" stroke-linecap="square" stroke-linejoin="bevel" transform="matrix(0.6,0,0,0.6,9.18667,249.18)"
font-family="Helvetica" font-size="13" font-weight="400" font-style="normal" 
>
<text fill="#afafaf" fill-opacity="1" stroke="none" xml:space="preserve" x="0" y="0" font-family="Helvetica" font-size="13" font-weight="400" font-style="normal" 
 >-1</text>
</g>

<g fill="#afafaf" fill-opacity="1" stroke="#afafaf" stroke-opacity="1" stroke-width="1" stroke-linecap="square" stroke-linejoin="bevel" transform="matrix(0.6,0,0,0.6,2.58667,196.14)"
font-family="Helvetica" font-size="13" font-weight="400" font-style="normal" 
>
<text fill="#afafaf" fill-opacity="1" stroke="none" xml:space="preserve" x="0" y="0" font-family="Helvetica" font-size="13" font-weight="400" font-style="normal" 
 >-0.5</text>
</g>

<g fill="#afafaf" fill-opacity="1" stroke="#afafaf" stroke-opacity="1" stroke-width="1" stroke-linecap="square" stroke-linejoin="bevel" transform="matrix(0.6,0,0,0.6,11.5867,143.1)"
font-family="Helvetica" font-size="13" font-weight="400" font-style="normal" 
>
<text fill="#afafaf" fill-opacity="1" stroke="none" xml:space="preserve" x="0" y="0" font-family="Helvetica" font-size="13" font-weight="400" font-style="normal" 
 >0</text>
</g>

<g fill="#afafaf" fill-opacity="1" stroke="#afafaf" stroke-opacity="1" stroke-width="1" stroke-linecap="square" stroke-linejoin="bevel" transform="matrix(0.6,0,0,0.6,4.98667,90.06)"
font-family="Helvetica" font-size="13" font-weight="400" font-style="normal" 
>
<text fill="#afafaf" fill-opacity="1" stroke="none" xml:space="preserve" x="0" y="0" font-family="Helvetica" font-size="13" font-weight="400" font-style="normal" 
 >0.5</text>
</g>

<g fill="#afafaf" fill-opacity="1" stroke="#afafaf" stroke-opacity="1" stroke-width="1" stroke-linecap="square" stroke-linejoin="bevel" transform="matrix(0.6,0,0,0.6,11.5867,37.02)"
font-family="Helvetica" font-size="13" font-weight="400" font-style="normal" 
>
<text fill="#afafaf" fill-opacity="1" stroke="none" xml:space="preserve" x="0" y="0" font-family="Helvetica" font-size="13" font-weight="400" font-style="normal" 
 >1</text>
</g>

<g fill="none" stroke="#ffe864" stroke-opacity="1" stroke-width="1.26042" stroke-linecap="butt" stroke-linejoin="round" transform="matrix(0.6,0,0,0.6,0,0)"
font-family="Helvetica" font-size="13" font-weight="400" font-style="normal" 
>
<polyline fill="none" vector-effect="none" points="29,234 29,234 29,234 29.0003,234 29.0014,234 29.0071,234 29.0357,234 29.1785,234 29.2945,234 29.4105,234 29.4157,234 29.4157,234 29.4356,234 29.4356,234 29.4356,234 29.5294,234 29.6233,234 29.811,234 29.9429,234 30.415,234 30.8363,233.999 30.8857,233.999 31.1329,233.999 31.6683,233.998 31.8286,233.998 32.5055,233.997 32.7714,233.996 33.7143,233.994 34.6571,233.992 35.6,233.989 36.5429,233.985 37.4857,233.98 38.4286,233.974 39.3714,233.966 40.3143,233.958 41.2571,233.948 42.2,233.936 43.1429,233.923 44.0857,233.907 45.0286,233.89 45.9714,233.871 46.9143,233.849 47.8571,233.825 48.8,233.798 49.7429,233.768 50.6857,233.736 51.6286,233.7 52.5714,233.661 53.5143,233.619 54.4571,233.572 55.4,233.522 56.3429,233.468 57.2857,233.409 58.2286,233.345 59.1714,233.277 60.1143,233.204 61.0571,233.125 62,233.04 62.9429,232.949 63.8857,232.852 64.8286,232.749 65.7714,232.639 66.7143,232.522 67.6571,232.397 68.3819,232.296 68.3819,232.296 68.4957,232.279 68.4957,232.279 68.6,232.264 68.7043,232.249 68.913,232.219 69.3304,232.156 69.5429,232.123 70.4857,231.973 71.4286,231.813 72.3714,231.643 73.3143,231.462 74.2571,231.271 75.2,231.068 76.1429,230.854 77.0857,230.628 78.0286,230.39 78.9714,230.14 79.9143,229.878 80.8571,229.603 81.8,229.316 82.7429,229.017 83.6857,228.706 84.6286,228.383 85.5714,228.047 86.5143,227.7 87.4571,227.341 88.4,226.971 89.3429,226.589 90.2857,226.197 91.2286,225.793 92.1714,225.379 93.1143,224.955 94.0571,224.52 95,224.076 95.9429,223.622 96.8857,223.159 97.8286,222.686 98.7714,222.205 99.7143,221.715 100.657,221.217 101.6,220.711 102.543,220.197 103.486,219.676 104.429,219.147 105.371,218.611 106.314,218.067 107.257,217.518 108.2,216.962 109.143,216.399 110.086,215.83 111.029,215.256 111.971,214.676 112.914,214.09 113.857,213.499 114.8,212.903 115.743,212.302 116.686,211.696 117.629,211.086 118.571,210.472 119.514,209.853 120.457,209.23 121.4,208.603 122.343,207.972 123.286,207.338 124.229,206.7 125.171,206.059 126.114,205.415 127.057,204.768 128,204.118 128.943,203.465 129.886,202.81 130.829,202.152 131.771,201.492 132.714,200.83 133.657,200.165 134.6,199.499 135.543,198.831 136.486,198.161 137.429,197.49 138.371,196.817 139.314,196.143 140.257,195.467 141.2,194.79 142.143,194.113 143.086,193.434 144.029,192.754 144.971,192.074 145.914,191.393 146.857,190.712 147.8,190.03 148.743,189.348 149.686,188.665 150.629,187.982 151.571,187.299 152.514,186.616 153.457,185.933 154.4,185.251 155.343,184.568 156.286,183.886 157.229,183.204 158.171,182.522 159.114,181.841 160.057,181.161 161,180.481 161.943,179.802 162.886,179.123 163.829,178.446 164.771,177.769 165.714,177.093 166.657,176.418 167.6,175.745 168.543,175.072 169.486,174.401 170.429,173.731 171.371,173.062 172.314,172.394 173.257,171.728 174.2,171.063 175.143,170.4 176.086,169.738 177.029,169.078 177.971,168.419 178.914,167.762 179.857,167.107 180.8,166.453 181.743,165.801 182.686,165.151 183.629,164.503 184.571,163.856 185.514,163.212 186.457,162.569 187.4,161.929 188.343,161.29 189.286,160.654 190.229,160.019 191.171,159.387 192.114,158.757 193.057,158.128 194,157.502 194.943,156.879 195.886,156.257 196.829,155.638 197.771,155.021 198.714,154.406 199.657,153.793 200.6,153.183 201.543,152.576 202.486,151.97 203.429,151.367 204.371,150.766 205.314,150.168 206.257,149.572 207.2,148.979 208.143,148.388 209.086,147.8 210.029,147.214 210.971,146.631 211.914,146.05 212.857,145.472 213.8,144.896 214.743,144.323 215.686,143.752 216.629,143.184 217.571,142.618 218.514,142.056 219.457,141.495 220.4,140.938 221.343,140.383 222.286,139.83 223.229,139.28 224.171,138.733 225.114,138.189 226.057,137.647 227,137.108 227.943,136.571 228.886,136.037 229.829,135.506 230.771,134.978 231.714,134.452 232.657,133.929 233.6,133.408 234.543,132.89 235.486,132.375 236.429,131.863 237.371,131.353 238.314,130.846 239.257,130.341 240.2,129.839 241.143,129.34 242.086,128.844 243.029,128.35 243.971,127.859 244.914,127.371 245.857,126.885 246.8,126.402 247.743,125.922 248.686,125.444 249.629,124.969 250.571,124.496 251.514,124.027 252.457,123.56 253.4,123.095 254.343,122.633 255.286,122.174 256.229,121.718 257.171,121.264 258.114,120.812 259.057,120.364 260,119.918 260.943,119.474 261.886,119.033 262.829,118.595 263.771,118.159 264.714,117.726 265.657,117.296 266.6,116.868 267.543,116.442 268.486,116.019 269.429,115.599 270.371,115.181 271.314,114.766 272.257,114.353 273.2,113.943 274.143,113.535 275.086,113.13 276.029,112.727 276.971,112.327 277.914,111.929 278.857,111.534 279.8,111.141 280.743,110.751 281.686,110.363 282.629,109.977 283.571,109.594 284.514,109.213 285.457,108.835 286.4,108.459 287.343,108.086 288.286,107.714 289.229,107.346 290.171,106.979 291.114,106.615 292.057,106.253 293,105.894 293.943,105.537 294.886,105.182 295.829,104.83 296.771,104.479 297.714,104.132 298.657,103.786 299.6,103.443 300.543,103.101 301.486,102.763 302.429,102.426 303.371,102.091 304.314,101.759 305.257,101.429 306.2,101.101 307.143,100.776 308.086,100.452 309.029,100.131 309.971,99.8115 310.914,99.4944 311.857,99.1794 312.8,98.8666 313.743,98.5558 314.686,98.2472 315.629,97.9406 316.571,97.6362 317.514,97.3337 318.457,97.0334 319.4,96.735 320.343,96.4387 321.286,96.1445 322.229,95.8522 323.171,95.5619 324.114,95.2736 325.057,94.9873 326,94.703 326.943,94.4206 327.886,94.1402 328.829,93.8617 329.771,93.5851 330.714,93.3104 331.657,93.0377 332.6,92.7668 333.543,92.4979 334.486,92.2307 335.429,91.9655 336.371,91.7021 337.314,91.4406 338.257,91.1808 339.2,90.9229 340.143,90.6668 341.086,90.4126 342.029,90.1601 342.971,89.9093 343.914,89.6604 344.857,89.4132 345.8,89.1677 346.743,88.924 347.686,88.6821 348.629,88.4418 349.571,88.2032 350.514,87.9664 351.457,87.7312 352.4,87.4977 353.343,87.2659 354.286,87.0357 355.229,86.8072 356.171,86.5803 357.114,86.355 358.057,86.1314 359,85.9094 359.943,85.6889 360.886,85.4701 361.829,85.2528 362.771,85.0371 363.714,84.8229 364.657,84.6103 365.6,84.3993 366.543,84.1897 367.486,83.9817 368.429,83.7752 369.371,83.5702 370.314,83.3667 371.257,83.1647 372.2,82.9641 373.143,82.765 374.086,82.5674 375.029,82.3712 375.971,82.1764 376.914,81.9831 377.857,81.7912 378.8,81.6007 379.743,81.4116 380.686,81.2238 381.629,81.0375 382.571,80.8525 383.514,80.6689 384.457,80.4867 385.4,80.3058 386.343,80.1262 387.286,79.9479 388.229,79.771 389.171,79.5954 390.114,79.4211 391.057,79.248 392,79.0763 392.943,78.9058 393.886,78.7366 394.829,78.5687 395.771,78.402 396.714,78.2365 397.657,78.0723 398.6,77.9093 399.543,77.7475 400.486,77.587 401.429,77.4276 402.371,77.2694 403.314,77.1124 404.257,76.9566 405.2,76.8019 406.143,76.6485 407.086,76.4961 408.029,76.3449 408.971,76.1949 409.914,76.0459 410.857,75.8981 411.8,75.7514 412.743,75.6058 413.686,75.4613 414.629,75.3179 415.571,75.1756 416.514,75.0343 417.457,74.8942 418.4,74.755 419.343,74.617 420.286,74.48 421.229,74.344 422.171,74.209 423.114,74.0751 424.057,73.9422 425,73.8103 425.943,73.6794 426.886,73.5495 427.829,73.4205 428.771,73.2926 429.714,73.1656 430.657,73.0396 431.6,72.9146 432.543,72.7905 433.486,72.6674 434.429,72.5452 435.371,72.4239 436.314,72.3036 437.257,72.1842 438.2,72.0657 439.143,71.9481 440.086,71.8314 441.029,71.7156 441.971,71.6007 442.914,71.4866 443.857,71.3735 444.8,71.2612 445.743,71.1498 446.686,71.0392 447.629,70.9295 448.571,70.8206 449.514,70.7126 450.457,70.6053 451.4,70.499 452.343,70.3934 453.286,70.2887 454.229,70.1847 455.171,70.0816 456.114,69.9792 457.057,69.8777 458,69.7769 458.943,69.6769 459.886,69.5777 460.829,69.4793 461.771,69.3816 462.714,69.2847 463.657,69.1885 464.6,69.093 465.543,68.9984 466.486,68.9044 467.429,68.8112 468.371,68.7187 469.314,68.6269 470.257,68.5358 471.2,68.4454 472.143,68.3558 473.086,68.2668 474.029,68.1785 474.971,68.0909 475.914,68.004 476.857,67.9178 477.8,67.8322 478.743,67.7473 479.686,67.6631 480.629,67.5795 481.571,67.4966 482.514,67.4144 483.457,67.3327 484.4,67.2517 485.343,67.1714 486.286,67.0916 487.229,67.0125 488.171,66.934 489.114,66.8561 490.057,66.7789 491,66.7022 491.943,66.6262 492.886,66.5507 493.829,66.4758 494.771,66.4015 495.714,66.3278 496.657,66.2547 497.6,66.1821 498.543,66.1101 499.486,66.0387 500.429,65.9679 501.371,65.8976 502.314,65.8278 503.257,65.7586 504.2,65.6899 505.143,65.6218 506.086,65.5542 507.029,65.4872 507.971,65.4207 508.914,65.3547 509.857,65.2892 510.8,65.2242 511.743,65.1598 512.686,65.0958 513.629,65.0324 514.571,64.9695 515.514,64.907 516.457,64.8451 517.4,64.7836 518.343,64.7226 519.286,64.6621 520.229,64.6021 521.171,64.5426 522.114,64.4835 523.057,64.4249 524,64.3668 524.943,64.3091 525.886,64.2519 526.829,64.1951 527.771,64.1388 528.714,64.0829 529.657,64.0275 530.6,63.9725 531.543,63.9179 532.486,63.8638 533.429,63.8101 534.371,63.7568 535.314,63.704 536.257,63.6515 537.2,63.5995 538.143,63.5479 539.086,63.4967 540.029,63.4459 540.971,63.3955 541.914,63.3456 542.857,63.296 543.8,63.2468 544.743,63.198 545.686,63.1496 546.629,63.1016 547.571,63.0539 548.514,63.0066 549.457,62.9598 550.4,62.9132 551.343,62.8671 552.286,62.8213 553.229,62.7759 554.171,62.7309 555.114,62.6861 556.057,62.6418 557,62.5978 557.943,62.5542 558.886,62.5109 559.829,62.468 560.771,62.4254 561.714,62.3831 562.657,62.3412 563.6,62.2996 564.543,62.2584 565.486,62.2174 566.429,62.1768 567.371,62.1366 568.314,62.0966 569.257,62.057 570.2,62.0177 571.143,61.9786 572.086,61.94 573.029,61.9016 573.971,61.8635 574.914,61.8257 575.857,61.7883 576.8,61.7511 577.743,61.7142 578.686,61.6777 579.629,61.6414 580.571,61.6054 581.514,61.5697 582.457,61.5343 583.4,61.4991 584.343,61.4643 585.286,61.4297 586.229,61.3954 587.171,61.3614 588.114,61.3276 589.057,61.2942 590,61.2609 590.943,61.228 591.886,61.1953 592.829,61.1629 593.771,61.1307 594.714,61.0988 595.657,61.0672 596.6,61.0358 597.543,61.0047 598.486,60.9738 599.429,60.9432 600.371,60.9128 601.314,60.8826 602.257,60.8527 603.2,60.8231 604.143,60.7936 605.086,60.7644 606.029,60.7355 606.971,60.7068 607.914,60.6783 608.857,60.65 609.8,60.622 610.743,60.5942 611.686,60.5666 612.629,60.5392 613.571,60.5121 614.514,60.4851 615.457,60.4584 616.4,60.4319 617.343,60.4056 618.286,60.3796 619.229,60.3537 620.171,60.3281 621.114,60.3026 622.057,60.2774 623,60.2524 623.943,60.2275 624.886,60.2029 625.829,60.1785 626.771,60.1542 627.714,60.1302 628.657,60.1063 629.6,60.0827 630.543,60.0592 631.486,60.0359 632.429,60.0128 633.371,59.9899 634.314,59.9672 635.257,59.9447 636.2,59.9223 637.143,59.9002 638.086,59.8782 639.029,59.8564 639.971,59.8347 640.914,59.8133 641.857,59.792 642.8,59.7709 643.743,59.7499 644.686,59.7291 645.629,59.7085 646.571,59.6881 647.514,59.6678 648.457,59.6477 649.4,59.6277 650.343,59.6079 651.286,59.5883 652.229,59.5688 653.171,59.5495 654.114,59.5304 655.057,59.5114 656,59.4925 656.943,59.4738 657.886,59.4553 658.829,59.4369 659.771,59.4186 660.714,59.4005 661.657,59.3826 662.6,59.3648 663.543,59.3471 664.486,59.3296 665.429,59.3122 666.371,59.295 667.314,59.2779 668.257,59.2609 669.2,59.2441 670.143,59.2274 671.086,59.2109 672.029,59.1945 672.971,59.1782 673.914,59.162 674.857,59.146 675.8,59.1301 676.743,59.1144 677.686,59.0987 678.629,59.0832 679.571,59.0678 680.514,59.0526 681.457,59.0374 682.4,59.0224 683.343,59.0075 684.286,58.9928 685.229,58.9781 686.171,58.9636 687.114,58.9492 688.057,58.9349 689,58.9207 " />
</g>

<g fill="none" stroke="#268cdd" stroke-opacity="1" stroke-width="1.26042" stroke-linecap="butt" stroke-linejoin="round" transform="matrix(0.6,0,0,0.6,0,0)"
font-family="Helvetica" font-size="13" font-weight="400" font-style="normal" 
>
<polyline fill="none" vector-effect="none" points="29,57.2 29,57.2 29,57.2 29.0003,57.2 29.0014,57.2 29.0071,57.2 29.0357,57.2 29.1785,57.2 29.2945,57.2 29.4105,57.2 29.4157,57.2 29.4157,57.2 29.4356,57.2 29.4356,57.2 29.4356,57.2 29.5294,57.2 29.6233,57.2 29.811,57.2 29.9429,57.2 30.415,57.2 30.8363,57.2 30.8857,57.2 31.1329,57.2 31.6683,57.2 31.8286,57.2 32.5055,57.2 32.7714,57.2 33.7143,57.2 34.6571,57.2 35.6,57.2 36.5429,57.2 37.4857,57.2 38.4286,57.2 39.3714,57.2 40.3143,57.2 41.2571,57.2 42.2,57.2 43.1429,57.2 44.0857,57.2 45.0286,57.2 45.9714,57.2 46.9143,57.2 47.8571,57.2 48.8,57.2 49.7429,57.2 50.6857,57.2 51.6286,57.2 52.5714,57.2 53.5143,57.2 54.4571,57.2 55.4,57.2 56.3429,57.2 57.2857,57.2 58.2286,57.2 59.1714,57.2 60.1143,57.2 61.0571,57.2 62,57.2 62.9429,57.2 63.8857,57.2 64.8286,57.2 65.7714,57.2 66.7143,57.2 67.6571,57.2 68.3819,57.2 68.3819,57.2 68.4957,57.2 68.4957,57.2 68.6,57.2 68.7043,57.2 68.913,57.2 69.3304,57.2 69.5429,57.2 70.4857,57.2 71.4286,57.2 72.3714,57.2 73.3143,57.2 74.2571,57.2 75.2,57.2 76.1429,57.2 77.0857,57.2 78.0286,57.2 78.9714,57.2 79.9143,57.2 80.8571,57.2 81.8,57.2 82.7429,57.2 83.6857,57.2 84.6286,57.2 85.5714,57.2 86.5143,57.2 87.4571,57.2 88.4,57.2 89.3429,57.2 90.2857,57.2 91.2286,57.2 92.1714,57.2 93.1143,57.2 94.0571,57.2 95,57.2 95.9429,57.2 96.8857,57.2 97.8286,57.2 98.7714,57.2 99.7143,57.2 100.657,57.2 101.6,57.2 102.543,57.2 103.486,57.2 104.429,57.2 105.371,57.2 106.314,57.2 107.257,57.2 108.2,57.2 109.143,57.2 110.086,57.2 111.029,57.2 111.971,57.2 112.914,57.2 113.857,57.2 114.8,57.2 115.743,57.2 116.686,57.2 117.629,57.2 118.571,57.2 119.514,57.2 120.457,57.2 121.4,57.2 122.343,57.2 123.286,57.2 124.229,57.2 125.171,57.2 126.114,57.2 127.057,57.2 128,57.2 128.943,57.2 129.886,57.2 130.829,57.2 131.771,57.2 132.714,57.2 133.657,57.2 134.6,57.2 135.543,57.2 136.486,57.2 137.429,57.2 138.371,57.2 139.314,57.2 140.257,57.2 141.2,57.2 142.143,57.2 143.086,57.2 144.029,57.2 144.971,57.2 145.914,57.2 146.857,57.2 147.8,57.2 148.743,57.2 149.686,57.2 150.629,57.2 151.571,57.2 152.514,57.2 153.457,57.2 154.4,57.2 155.343,57.2 156.286,57.2 157.229,57.2 158.171,57.2 159.114,57.2 160.057,57.2 161,57.2 161.943,57.2 162.886,57.2 163.829,57.2 164.771,57.2 165.714,57.2 166.657,57.2 167.6,57.2 168.543,57.2 169.486,57.2 170.429,57.2 171.371,57.2 172.314,57.2 173.257,57.2 174.2,57.2 175.143,57.2 176.086,57.2 177.029,57.2 177.971,57.2 178.914,57.2 179.857,57.2 180.8,57.2 181.743,57.2 182.686,57.2 183.629,57.2 184.571,57.2 185.514,57.2 186.457,57.2 187.4,57.2 188.343,57.2 189.286,57.2 190.229,57.2 191.171,57.2 192.114,57.2 193.057,57.2 194,57.2 194.943,57.2 195.886,57.2 196.829,57.2 197.771,57.2 198.714,57.2 199.657,57.2 200.6,57.2 201.543,57.2 202.486,57.2 203.429,57.2 204.371,57.2 205.314,57.2 206.257,57.2 207.2,57.2 208.143,57.2 209.086,57.2 210.029,57.2 210.971,57.2 211.914,57.2 212.857,57.2 213.8,57.2 214.743,57.2 215.686,57.2 216.629,57.2 217.571,57.2 218.514,57.2 219.457,57.2 220.4,57.2 221.343,57.2 222.286,57.2 223.229,57.2 224.171,57.2 225.114,57.2 226.057,57.2 227,57.2 227.943,57.2 228.886,57.2 229.829,57.2 230.771,57.2 231.714,57.2 232.657,57.2 233.6,57.2 234.543,57.2 235.486,57.2 236.429,57.2 237.371,57.2 238.314,57.2 239.257,57.2 240.2,57.2 241.143,57.2 242.086,57.2 243.029,57.2 243.971,57.2 244.914,57.2 245.857,57.2 246.8,57.2 247.743,57.2 248.686,57.2 249.629,57.2 250.571,57.2 251.514,57.2 252.457,57.2 253.4,57.2 254.343,57.2 255.286,57.2 256.229,57.2 257.171,57.2 258.114,57.2 259.057,57.2 260,57.2 260.943,57.2 261.886,57.2 262.829,57.2 263.771,57.2 264.714,57.2 265.657,57.2 266.6,57.2 267.543,57.2 268.486,57.2 269.429,57.2 270.371,57.2 271.314,57.2 272.257,57.2 273.2,57.2 274.143,57.2 275.086,57.2 276.029,57.2 276.971,57.2 277.914,57.2 278.857,57.2 279.8,57.2 280.743,57.2 281.686,57.2 282.629,57.2 283.571,57.2 284.514,57.2 285.457,57.2 286.4,57.2 287.343,57.2 288.286,57.2 289.229,57.2 290.171,57.2 291.114,57.2 292.057,57.2 293,57.2 293.943,57.2 294.886,57.2 295.829,57.2 296.771,57.2 297.714,57.2 298.657,57.2 299.6,57.2 300.543,57.2 301.486,57.2 302.429,57.2 303.371,57.2 304.314,57.2 305.257,57.2 306.2,57.2 307.143,57.2 308.086,57.2 309.029,57.2 309.971,57.2 310.914,57.2 311.857,57.2 312.8,57.2 313.743,57.2 314.686,57.2 315.629,57.2 316.571,57.2 317.514,57.2 318.457,57.2 319.4,57.2 320.343,57.2 321.286,57.2 322.229,57.2 323.171,57.2 324.114,57.2 325.057,57.2 326,57.2 326.943,57.2 327.886,57.2 328.829,57.2 329.771,57.2 330.714,57.2 331.657,57.2 332.6,57.2 333.543,57.2 334.486,57.2 335.429,57.2 336.371,57.2 337.314,57.2 338.257,57.2 339.2,57.2 340.143,57.2 341.086,57.2 342.029,57.2 342.971,57.2 343.914,57.2 344.857,57.2 345.8,57.2 346.743,57.2 347.686,57.2 348.629,57.2 349.571,57.2 350.514,57.2 351.457,57.2 352.4,57.2 353.343,57.2 354.286,57.2 355.229,57.2 356.171,57.2 357.114,57.2 358.057,57.2 359,57.2 359.943,57.2 360.886,57.2 361.829,57.2 362.771,57.2 363.714,57.2 364.657,57.2 365.6,57.2 366.543,57.2 367.486,57.2 368.429,57.2 369.371,57.2 370.314,57.2 371.257,57.2 372.2,57.2 373.143,57.2 374.086,57.2 375.029,57.2 375.971,57.2 376.914,57.2 377.857,57.2 378.8,57.2 379.743,57.2 380.686,57.2 381.629,57.2 382.571,57.2 383.514,57.2 384.457,57.2 385.4,57.2 386.343,57.2 387.286,57.2 388.229,57.2 389.171,57.2 390.114,57.2 391.057,57.2 392,57.2 392.943,57.2 393.886,57.2 394.829,57.2 395.771,57.2 396.714,57.2 397.657,57.2 398.6,57.2 399.543,57.2 400.486,57.2 401.429,57.2 402.371,57.2 403.314,57.2 404.257,57.2 405.2,57.2 406.143,57.2 407.086,57.2 408.029,57.2 408.971,57.2 409.914,57.2 410.857,57.2 411.8,57.2 412.743,57.2 413.686,57.2 414.629,57.2 415.571,57.2 416.514,57.2 417.457,57.2 418.4,57.2 419.343,57.2 420.286,57.2 421.229,57.2 422.171,57.2 423.114,57.2 424.057,57.2 425,57.2 425.943,57.2 426.886,57.2 427.829,57.2 428.771,57.2 429.714,57.2 430.657,57.2 431.6,57.2 432.543,57.2 433.486,57.2 434.429,57.2 435.371,57.2 436.314,57.2 437.257,57.2 438.2,57.2 439.143,57.2 440.086,57.2 441.029,57.2 441.971,57.2 442.914,57.2 443.857,57.2 444.8,57.2 445.743,57.2 446.686,57.2 447.629,57.2 448.571,57.2 449.514,57.2 450.457,57.2 451.4,57.2 452.343,57.2 453.286,57.2 454.229,57.2 455.171,57.2 456.114,57.2 457.057,57.2 458,57.2 458.943,57.2 459.886,57.2 460.829,57.2 461.771,57.2 462.714,57.2 463.657,57.2 464.6,57.2 465.543,57.2 466.486,57.2 467.429,57.2 468.371,57.2 469.314,57.2 470.257,57.2 471.2,57.2 472.143,57.2 473.086,57.2 474.029,57.2 474.971,57.2 475.914,57.2 476.857,57.2 477.8,57.2 478.743,57.2 479.686,57.2 480.629,57.2 481.571,57.2 482.514,57.2 483.457,57.2 484.4,57.2 485.343,57.2 486.286,57.2 487.229,57.2 488.171,57.2 489.114,57.2 490.057,57.2 491,57.2 491.943,57.2 492.886,57.2 493.829,57.2 494.771,57.2 495.714,57.2 496.657,57.2 497.6,57.2 498.543,57.2 499.486,57.2 500.429,57.2 501.371,57.2 502.314,57.2 503.257,57.2 504.2,57.2 505.143,57.2 506.086,57.2 507.029,57.2 507.971,57.2 508.914,57.2 509.857,57.2 510.8,57.2 511.743,57.2 512.686,57.2 513.629,57.2 514.571,57.2 515.514,57.2 516.457,57.2 517.4,57.2 518.343,57.2 519.286,57.2 520.229,57.2 521.171,57.2 522.114,57.2 523.057,57.2 524,57.2 524.943,57.2 525.886,57.2 526.829,57.2 527.771,57.2 528.714,57.2 529.657,57.2 530.6,57.2 531.543,57.2 532.486,57.2 533.429,57.2 534.371,57.2 535.314,57.2 536.257,57.2 537.2,57.2 538.143,57.2 539.086,57.2 540.029,57.2 540.971,57.2 541.914,57.2 542.857,57.2 543.8,57.2 544.743,57.2 545.686,57.2 546.629,57.2 547.571,57.2 548.514,57.2 549.457,57.2 550.4,57.2 551.343,57.2 552.286,57.2 553.229,57.2 554.171,57.2 555.114,57.2 556.057,57.2 557,57.2 557.943,57.2 558.886,57.2 559.829,57.2 560.771,57.2 561.714,57.2 562.657,57.2 563.6,57.2 564.543,57.2 565.486,57.2 566.429,57.2 567.371,57.2 568.314,57.2 569.257,57.2 570.2,57.2 571.143,57.2 572.086,57.2 573.029,57.2 573.971,57.2 574.914,57.2 575.857,57.2 576.8,57.2 577.743,57.2 578.686,57.2 579.629,57.2 580.571,57.2 581.514,57.2 582.457,57.2 583.4,57.2 584.343,57.2 585.286,57.2 586.229,57.2 587.171,57.2 588.114,57.2 589.057,57.2 590,57.2 590.943,57.2 591.886,57.2 592.829,57.2 593.771,57.2 594.714,57.2 595.657,57.2 596.6,57.2 597.543,57.2 598.486,57.2 599.429,57.2 600.371,57.2 601.314,57.2 602.257,57.2 603.2,57.2 604.143,57.2 605.086,57.2 606.029,57.2 606.971,57.2 607.914,57.2 608.857,57.2 609.8,57.2 610.743,57.2 611.686,57.2 612.629,57.2 613.571,57.2 614.514,57.2 615.457,57.2 616.4,57.2 617.343,57.2 618.286,57.2 619.229,57.2 620.171,57.2 621.114,57.2 622.057,57.2 623,57.2 623.943,57.2 624.886,57.2 625.829,57.2 626.771,57.2 627.714,57.2 628.657,57.2 629.6,57.2 630.543,57.2 631.486,57.2 632.429,57.2 633.371,57.2 634.314,57.2 635.257,57.2 636.2,57.2 637.143,57.2 638.086,57.2 639.029,57.2 639.971,57.2 640.914,57.2 641.857,57.2 642.8,57.2 643.743,57.2 644.686,57.2 645.629,57.2 646.571,57.2 647.514,57.2 648.457,57.2 649.4,57.2 650.343,57.2 651.286,57.2 652.229,57.2 653.171,57.2 654.114,57.2 655.057,57.2 656,57.2 656.943,57.2 657.886,57.2 658.829,57.2 659.771,57.2 660.714,57.2 661.657,57.2 662.6,57.2 663.543,57.2 664.486,57.2 665.429,57.2 666.371,57.2 667.314,57.2 668.257,57.2 669.2,57.2 670.143,57.2 671.086,57.2 672.029,57.2 672.971,57.2 673.914,57.2 674.857,57.2 675.8,57.2 676.743,57.2 677.686,57.2 678.629,57.2 679.571,57.2 680.514,57.2 681.457,57.2 682.4,57.2 683.343,57.2 684.286,57.2 685.229,57.2 686.171,57.2 687.114,57.2 688.057,57.2 689,57.2 " />
</g>

<g fill="none" stroke="#f57729" stroke-opacity="1" stroke-width="1.26042" stroke-linecap="butt" stroke-linejoin="round" transform="matrix(0.6,0,0,0.6,0,0)"
font-family="Helvetica" font-size="13" font-weight="400" font-style="normal" 
>
<polyline fill="none" vector-effect="none" points="29,234 29,234 29,234 29.0003,234 29.0014,234 29.0071,234 29.0357,234 29.1785,234 29.2945,234 29.4105,234 29.4157,234 29.4157,234 29.4356,234 29.4356,234 29.4356,234 29.5294,234 29.6233,234 29.811,234 29.9429,234 30.415,234 30.8363,233.999 30.8857,233.999 31.1329,233.999 31.6683,233.998 31.8286,233.997 32.5055,233.996 32.7714,233.995 33.7143,233.991 34.6571,233.985 35.6,233.976 36.5429,233.964 37.4857,233.947 38.4286,233.924 39.3714,233.895 40.3143,233.858 41.2571,233.814 42.2,233.76 43.1429,233.696 44.0857,233.622 45.0286,233.538 45.9714,233.442 46.9143,233.334 47.8571,233.213 48.8,233.081 49.7429,232.935 50.6857,232.777 51.6286,232.606 52.5714,232.421 53.5143,232.223 54.4571,232.013 55.4,231.789 56.3429,231.552 57.2857,231.303 58.2286,231.041 59.1714,230.766 60.1143,230.479 61.0571,230.18 62,229.869 62.9429,229.547 63.8857,229.213 64.8286,228.868 65.7714,228.512 66.7143,228.145 67.6571,227.768 68.3819,227.471 68.3819,227.471 68.4957,227.424 68.4957,227.424 68.6,227.381 68.7043,227.337 68.913,227.25 69.3304,227.074 69.5429,226.983 70.4857,226.574 71.4286,226.155 72.3714,225.725 73.3143,225.284 74.2571,224.834 75.2,224.374 76.1429,223.904 77.0857,223.424 78.0286,222.935 78.9714,222.437 79.9143,221.93 80.8571,221.415 81.8,220.891 82.7429,220.358 83.6857,219.818 84.6286,219.269 85.5714,218.713 86.5143,218.15 87.4571,217.579 88.4,217.002 89.3429,216.417 90.2857,215.827 91.2286,215.229 92.1714,214.626 93.1143,214.017 94.0571,213.403 95,212.783 95.9429,212.158 96.8857,211.528 97.8286,210.893 98.7714,210.254 99.7143,209.611 100.657,208.963 101.6,208.312 102.543,207.657 103.486,206.999 104.429,206.337 105.371,205.672 106.314,205.005 107.257,204.334 108.2,203.661 109.143,202.986 110.086,202.308 111.029,201.628 111.971,200.946 112.914,200.262 113.857,199.577 114.8,198.89 115.743,198.202 116.686,197.513 117.629,196.822 118.571,196.13 119.514,195.438 120.457,194.745 121.4,194.051 122.343,193.356 123.286,192.661 124.229,191.966 125.171,191.271 126.114,190.575 127.057,189.879 128,189.184 128.943,188.488 129.886,187.793 130.829,187.098 131.771,186.404 132.714,185.71 133.657,185.016 134.6,184.323 135.543,183.631 136.486,182.94 137.429,182.25 138.371,181.56 139.314,180.872 140.257,180.185 141.2,179.498 142.143,178.813 143.086,178.13 144.029,177.447 144.971,176.766 145.914,176.086 146.857,175.408 147.8,174.731 148.743,174.056 149.686,173.383 150.629,172.711 151.571,172.041 152.514,171.373 153.457,170.706 154.4,170.042 155.343,169.379 156.286,168.718 157.229,168.059 158.171,167.402 159.114,166.747 160.057,166.094 161,165.444 161.943,164.795 162.886,164.149 163.829,163.504 164.771,162.862 165.714,162.223 166.657,161.585 167.6,160.95 168.543,160.317 169.486,159.687 170.429,159.058 171.371,158.433 172.314,157.809 173.257,157.188 174.2,156.57 175.143,155.954 176.086,155.34 177.029,154.729 177.971,154.121 178.914,153.515 179.857,152.911 180.8,152.31 181.743,151.712 182.686,151.116 183.629,150.523 184.571,149.933 185.514,149.345 186.457,148.76 187.4,148.177 188.343,147.597 189.286,147.02 190.229,146.445 191.171,145.873 192.114,145.304 193.057,144.737 194,144.174 194.943,143.612 195.886,143.054 196.829,142.498 197.771,141.945 198.714,141.395 199.657,140.847 200.6,140.302 201.543,139.76 202.486,139.22 203.429,138.684 204.371,138.15 205.314,137.618 206.257,137.09 207.2,136.564 208.143,136.041 209.086,135.52 210.029,135.003 210.971,134.488 211.914,133.975 212.857,133.466 213.8,132.959 214.743,132.455 215.686,131.954 216.629,131.455 217.571,130.959 218.514,130.466 219.457,129.975 220.4,129.488 221.343,129.002 222.286,128.52 223.229,128.04 224.171,127.563 225.114,127.089 226.057,126.617 227,126.148 227.943,125.681 228.886,125.218 229.829,124.756 230.771,124.298 231.714,123.842 232.657,123.389 233.6,122.938 234.543,122.49 235.486,122.044 236.429,121.602 237.371,121.161 238.314,120.724 239.257,120.289 240.2,119.856 241.143,119.426 242.086,118.999 243.029,118.574 243.971,118.151 244.914,117.731 245.857,117.314 246.8,116.899 247.743,116.487 248.686,116.077 249.629,115.67 250.571,115.265 251.514,114.862 252.457,114.462 253.4,114.065 254.343,113.67 255.286,113.277 256.229,112.887 257.171,112.499 258.114,112.113 259.057,111.73 260,111.35 260.943,110.971 261.886,110.595 262.829,110.222 263.771,109.85 264.714,109.481 265.657,109.115 266.6,108.75 267.543,108.388 268.486,108.028 269.429,107.671 270.371,107.316 271.314,106.963 272.257,106.612 273.2,106.263 274.143,105.917 275.086,105.573 276.029,105.231 276.971,104.891 277.914,104.554 278.857,104.219 279.8,103.886 280.743,103.555 281.686,103.226 282.629,102.899 283.571,102.574 284.514,102.252 285.457,101.931 286.4,101.613 287.343,101.297 288.286,100.983 289.229,100.671 290.171,100.36 291.114,100.052 292.057,99.7464 293,99.4424 293.943,99.1404 294.886,98.8404 295.829,98.5424 296.771,98.2463 297.714,97.9522 298.657,97.6601 299.6,97.3699 300.543,97.0816 301.486,96.7953 302.429,96.5108 303.371,96.2283 304.314,95.9477 305.257,95.6689 306.2,95.392 307.143,95.1169 308.086,94.8437 309.029,94.5724 309.971,94.3028 310.914,94.0351 311.857,93.7692 312.8,93.5051 313.743,93.2428 314.686,92.9822 315.629,92.7234 316.571,92.4664 317.514,92.2111 318.457,91.9575 319.4,91.7057 320.343,91.4556 321.286,91.2072 322.229,90.9604 323.171,90.7154 324.114,90.4721 325.057,90.2304 326,89.9903 326.943,89.7519 327.886,89.5152 328.829,89.2801 329.771,89.0465 330.714,88.8146 331.657,88.5843 332.6,88.3556 333.543,88.1285 334.486,87.9029 335.429,87.6789 336.371,87.4564 337.314,87.2355 338.257,87.0161 339.2,86.7982 340.143,86.5819 341.086,86.367 342.029,86.1537 342.971,85.9418 343.914,85.7314 344.857,85.5225 345.8,85.315 346.743,85.1089 347.686,84.9044 348.629,84.7012 349.571,84.4995 350.514,84.2991 351.457,84.1002 352.4,83.9027 353.343,83.7065 354.286,83.5118 355.229,83.3184 356.171,83.1263 357.114,82.9356 358.057,82.7463 359,82.5583 359.943,82.3716 360.886,82.1862 361.829,82.0022 362.771,81.8194 363.714,81.638 364.657,81.4578 365.6,81.2789 366.543,81.1012 367.486,80.9248 368.429,80.7497 369.371,80.5758 370.314,80.4032 371.257,80.2317 372.2,80.0615 373.143,79.8925 374.086,79.7247 375.029,79.5581 375.971,79.3927 376.914,79.2285 377.857,79.0654 378.8,78.9035 379.743,78.7428 380.686,78.5832 381.629,78.4247 382.571,78.2674 383.514,78.1112 384.457,77.9561 385.4,77.8022 386.343,77.6493 387.286,77.4975 388.229,77.3468 389.171,77.1973 390.114,77.0487 391.057,76.9013 392,76.7549 392.943,76.6096 393.886,76.4653 394.829,76.322 395.771,76.1798 396.714,76.0386 397.657,75.8984 398.6,75.7592 399.543,75.6211 400.486,75.4839 401.429,75.3477 402.371,75.2125 403.314,75.0783 404.257,74.9451 405.2,74.8128 406.143,74.6815 407.086,74.5511 408.029,74.4217 408.971,74.2932 409.914,74.1657 410.857,74.039 411.8,73.9133 412.743,73.7885 413.686,73.6646 414.629,73.5416 415.571,73.4195 416.514,73.2983 417.457,73.178 418.4,73.0586 419.343,72.94 420.286,72.8223 421.229,72.7054 422.171,72.5894 423.114,72.4743 424.057,72.3599 425,72.2465 425.943,72.1338 426.886,72.022 427.829,71.911 428.771,71.8008 429.714,71.6914 430.657,71.5828 431.6,71.475 432.543,71.368 433.486,71.2617 434.429,71.1563 435.371,71.0516 436.314,70.9477 437.257,70.8445 438.2,70.7421 439.143,70.6405 440.086,70.5396 441.029,70.4395 441.971,70.34 442.914,70.2414 443.857,70.1434 444.8,70.0462 445.743,69.9496 446.686,69.8538 447.629,69.7587 448.571,69.6643 449.514,69.5706 450.457,69.4776 451.4,69.3852 452.343,69.2935 453.286,69.2026 454.229,69.1123 455.171,69.0226 456.114,68.9336 457.057,68.8453 458,68.7576 458.943,68.6706 459.886,68.5842 460.829,68.4985 461.771,68.4134 462.714,68.3289 463.657,68.245 464.6,68.1618 465.543,68.0791 466.486,67.9971 467.429,67.9157 468.371,67.8349 469.314,67.7547 470.257,67.6751 471.2,67.5961 472.143,67.5177 473.086,67.4398 474.029,67.3625 474.971,67.2859 475.914,67.2097 476.857,67.1342 477.8,67.0591 478.743,66.9847 479.686,66.9108 480.629,66.8374 481.571,66.7647 482.514,66.6924 483.457,66.6207 484.4,66.5495 485.343,66.4788 486.286,66.4087 487.229,66.3391 488.171,66.27 489.114,66.2014 490.057,66.1333 491,66.0658 491.943,65.9987 492.886,65.9322 493.829,65.8661 494.771,65.8005 495.714,65.7355 496.657,65.6709 497.6,65.6067 498.543,65.5431 499.486,65.4799 500.429,65.4173 501.371,65.355 502.314,65.2933 503.257,65.232 504.2,65.1711 505.143,65.1108 506.086,65.0508 507.029,64.9913 507.971,64.9323 508.914,64.8737 509.857,64.8155 510.8,64.7578 511.743,64.7005 512.686,64.6437 513.629,64.5872 514.571,64.5312 515.514,64.4756 516.457,64.4204 517.4,64.3657 518.343,64.3113 519.286,64.2574 520.229,64.2038 521.171,64.1507 522.114,64.0979 523.057,64.0456 524,63.9936 524.943,63.942 525.886,63.8909 526.829,63.8401 527.771,63.7897 528.714,63.7396 529.657,63.69 530.6,63.6407 531.543,63.5917 532.486,63.5432 533.429,63.495 534.371,63.4472 535.314,63.3997 536.257,63.3526 537.2,63.3059 538.143,63.2594 539.086,63.2134 540.029,63.1677 540.971,63.1223 541.914,63.0773 542.857,63.0326 543.8,62.9883 544.743,62.9442 545.686,62.9006 546.629,62.8572 547.571,62.8142 548.514,62.7715 549.457,62.7291 550.4,62.687 551.343,62.6453 552.286,62.6038 553.229,62.5627 554.171,62.5219 555.114,62.4814 556.057,62.4412 557,62.4013 557.943,62.3617 558.886,62.3224 559.829,62.2834 560.771,62.2447 561.714,62.2063 562.657,62.1682 563.6,62.1303 564.543,62.0928 565.486,62.0555 566.429,62.0185 567.371,61.9818 568.314,61.9454 569.257,61.9093 570.2,61.8734 571.143,61.8378 572.086,61.8024 573.029,61.7673 573.971,61.7325 574.914,61.698 575.857,61.6637 576.8,61.6297 577.743,61.5959 578.686,61.5624 579.629,61.5291 580.571,61.4961 581.514,61.4634 582.457,61.4309 583.4,61.3986 584.343,61.3666 585.286,61.3348 586.229,61.3033 587.171,61.272 588.114,61.2409 589.057,61.2101 590,61.1795 590.943,61.1491 591.886,61.119 592.829,61.0891 593.771,61.0594 594.714,61.0299 595.657,61.0007 596.6,60.9717 597.543,60.9429 598.486,60.9143 599.429,60.886 600.371,60.8578 601.314,60.8299 602.257,60.8022 603.2,60.7747 604.143,60.7474 605.086,60.7203 606.029,60.6934 606.971,60.6667 607.914,60.6403 608.857,60.614 609.8,60.5879 610.743,60.562 611.686,60.5363 612.629,60.5108 613.571,60.4856 614.514,60.4604 615.457,60.4355 616.4,60.4108 617.343,60.3863 618.286,60.3619 619.229,60.3378 620.171,60.3138 621.114,60.29 622.057,60.2664 623,60.2429 623.943,60.2197 624.886,60.1966 625.829,60.1737 626.771,60.1509 627.714,60.1284 628.657,60.106 629.6,60.0838 630.543,60.0617 631.486,60.0398 632.429,60.0181 633.371,59.9965 634.314,59.9752 635.257,59.9539 636.2,59.9329 637.143,59.912 638.086,59.8912 639.029,59.8706 639.971,59.8502 640.914,59.8299 641.857,59.8098 642.8,59.7898 643.743,59.77 644.686,59.7503 645.629,59.7308 646.571,59.7115 647.514,59.6922 648.457,59.6732 649.4,59.6542 650.343,59.6354 651.286,59.6168 652.229,59.5983 653.171,59.5799 654.114,59.5617 655.057,59.5436 656,59.5257 656.943,59.5079 657.886,59.4902 658.829,59.4727 659.771,59.4553 660.714,59.438 661.657,59.4209 662.6,59.4039 663.543,59.387 664.486,59.3702 665.429,59.3536 666.371,59.3371 667.314,59.3207 668.257,59.3045 669.2,59.2884 670.143,59.2724 671.086,59.2565 672.029,59.2407 672.971,59.2251 673.914,59.2096 674.857,59.1942 675.8,59.1789 676.743,59.1637 677.686,59.1487 678.629,59.1338 679.571,59.1189 680.514,59.1042 681.457,59.0896 682.4,59.0752 683.343,59.0608 684.286,59.0465 685.229,59.0324 686.171,59.0183 687.114,59.0044 688.057,58.9906 689,58.9768 " />
</g>

<g fill="none" stroke="#49db40" stroke-opacity="1" stroke-width="1.26042" stroke-linecap="butt" stroke-linejoin="round" transform="matrix(0.6,0,0,0.6,0,0)"
font-family="Helvetica" font-size="13" font-weight="400" font-style="normal" 
>
<polyline fill="none" vector-effect="none" points="29,57.2 29,57.2 29,57.2 29.0003,57.2 29.0014,57.2 29.0071,57.2 29.0357,57.2 29.1785,57.2 29.2945,57.2 29.4105,57.2 29.4157,57.2 29.4157,57.2 29.4356,57.2 29.4356,57.2 29.4356,57.2 29.5294,57.2 29.6233,57.2 29.811,57.2 29.9429,57.2 30.415,57.2 30.8363,57.2 30.8857,57.2 31.1329,57.2 31.6683,57.2 31.8286,57.2 32.5055,57.2 32.7714,57.2 33.7143,57.2 34.6571,57.2 35.6,57.2 36.5429,57.2 37.4857,57.2 38.4286,57.2 39.3714,57.2 40.3143,57.2 41.2571,57.2 42.2,57.2 43.1429,57.2 44.0857,57.2 45.0286,57.2 45.9714,57.2 46.9143,57.2 47.8571,57.2 48.8,57.2 49.7429,57.2 50.6857,57.2 51.6286,57.2 52.5714,57.2 53.5143,57.2 54.4571,57.2 55.4,57.2 56.3429,57.2 57.2857,57.2 58.2286,57.2 59.1714,57.2 60.1143,57.2 61.0571,57.2 62,57.2 62.9429,57.2 63.8857,57.2 64.8286,57.2 65.7714,57.2 66.7143,57.2 67.6571,57.2 68.3819,57.2 68.3819,57.2 68.4957,57.2 68.4957,57.2 68.6,57.2 68.7043,57.2 68.913,57.2 69.3304,57.2 69.5429,57.2 70.4857,57.2 71.4286,57.2 72.3714,57.2 73.3143,57.2 74.2571,57.2 75.2,57.2 76.1429,57.2 77.0857,57.2 78.0286,57.2 78.9714,57.2 79.9143,57.2 80.8571,57.2 81.8,57.2 82.7429,57.2 83.6857,57.2 84.6286,57.2 85.5714,57.2 86.5143,57.2 87.4571,57.2 88.4,57.2 89.3429,57.2 90.2857,57.2 91.2286,57.2 92.1714,57.2 93.1143,57.2 94.0571,57.2 95,57.2 95.9429,57.2 96.8857,57.2 97.8286,57.2 98.7714,57.2 99.7143,57.2 100.657,57.2 101.6,57.2 102.543,57.2 103.486,57.2 104.429,57.2 105.371,57.2 106.314,57.2 107.257,57.2 108.2,57.2 109.143,57.2 110.086,57.2 111.029,57.2 111.971,57.2 112.914,57.2 113.857,57.2 114.8,57.2 115.743,57.2 116.686,57.2 117.629,57.2 118.571,57.2 119.514,57.2 120.457,57.2 121.4,57.2 122.343,57.2 123.286,57.2 124.229,57.2 125.171,57.2 126.114,57.2 127.057,57.2 128,57.2 128.943,57.2 129.886,57.2 130.829,57.2 131.771,57.2 132.714,57.2 133.657,57.2 134.6,57.2 135.543,57.2 136.486,57.2 137.429,57.2 138.371,57.2 139.314,57.2 140.257,57.2 141.2,57.2 142.143,57.2 143.086,57.2 144.029,57.2 144.971,57.2 145.914,57.2 146.857,57.2 147.8,57.2 148.743,57.2 149.686,57.2 150.629,57.2 151.571,57.2 152.514,57.2 153.457,57.2 154.4,57.2 155.343,57.2 156.286,57.2 157.229,57.2 158.171,57.2 159.114,57.2 160.057,57.2 161,57.2 161.943,57.2 162.886,57.2 163.829,57.2 164.771,57.2 165.714,57.2 166.657,57.2 167.6,57.2 168.543,57.2 169.486,57.2 170.429,57.2 171.371,57.2 172.314,57.2 173.257,57.2 174.2,57.2 175.143,57.2 176.086,57.2 177.029,57.2 177.971,57.2 178.914,57.2 179.857,57.2 180.8,57.2 181.743,57.2 182.686,57.2 183.629,57.2 184.571,57.2 185.514,57.2 186.457,57.2 187.4,57.2 188.343,57.2 189.286,57.2 190.229,57.2 191.171,57.2 192.114,57.2 193.057,57.2 194,57.2 194.943,57.2 195.886,57.2 196.829,57.2 197.771,57.2 198.714,57.2 199.657,57.2 200.6,57.2 201.543,57.2 202.486,57.2 203.429,57.2 204.371,57.2 205.314,57.2 206.257,57.2 207.2,57.2 208.143,57.2 209.086,57.2 210.029,57.2 210.971,57.2 211.914,57.2 212.857,57.2 213.8,57.2 214.743,57.2 215.686,57.2 216.629,57.2 217.571,57.2 218.514,57.2 219.457,57.2 220.4,57.2 221.343,57.2 222.286,57.2 223.229,57.2 224.171,57.2 225.114,57.2 226.057,57.2 227,57.2 227.943,57.2 228.886,57.2 229.829,57.2 230.771,57.2 231.714,57.2 232.657,57.2 233.6,57.2 234.543,57.2 235.486,57.2 236.429,57.2 237.371,57.2 238.314,57.2 239.257,57.2 240.2,57.2 241.143,57.2 242.086,57.2 243.029,57.2 243.971,57.2 244.914,57.2 245.857,57.2 246.8,57.2 247.743,57.2 248.686,57.2 249.629,57.2 250.571,57.2 251.514,57.2 252.457,57.2 253.4,57.2 254.343,57.2 255.286,57.2 256.229,57.2 257.171,57.2 258.114,57.2 259.057,57.2 260,57.2 260.943,57.2 261.886,57.2 262.829,57.2 263.771,57.2 264.714,57.2 265.657,57.2 266.6,57.2 267.543,57.2 268.486,57.2 269.429,57.2 270.371,57.2 271.314,57.2 272.257,57.2 273.2,57.2 274.143,57.2 275.086,57.2 276.029,57.2 276.971,57.2 277.914,57.2 278.857,57.2 279.8,57.2 280.743,57.2 281.686,57.2 282.629,57.2 283.571,57.2 284.514,57.2 285.457,57.2 286.4,57.2 287.343,57.2 288.286,57.2 289.229,57.2 290.171,57.2 291.114,57.2 292.057,57.2 293,57.2 293.943,57.2 294.886,57.2 295.829,57.2 296.771,57.2 297.714,57.2 298.657,57.2 299.6,57.2 300.543,57.2 301.486,57.2 302.429,57.2 303.371,57.2 304.314,57.2 305.257,57.2 306.2,57.2 307.143,57.2 308.086,57.2 309.029,57.2 309.971,57.2 310.914,57.2 311.857,57.2 312.8,57.2 313.743,57.2 314.686,57.2 315.629,57.2 316.571,57.2 317.514,57.2 318.457,57.2 319.4,57.2 320.343,57.2 321.286,57.2 322.229,57.2 323.171,57.2 324.114,57.2 325.057,57.2 326,57.2 326.943,57.2 327.886,57.2 328.829,57.2 329.771,57.2 330.714,57.2 331.657,57.2 332.6,57.2 333.543,57.2 334.486,57.2 335.429,57.2 336.371,57.2 337.314,57.2 338.257,57.2 339.2,57.2 340.143,57.2 341.086,57.2 342.029,57.2 342.971,57.2 343.914,57.2 344.857,57.2 345.8,57.2 346.743,57.2 347.686,57.2 348.629,57.2 349.571,57.2 350.514,57.2 351.457,57.2 352.4,57.2 353.343,57.2 354.286,57.2 355.229,57.2 356.171,57.2 357.114,57.2 358.057,57.2 359,57.2 359.943,57.2 360.886,57.2 361.829,57.2 362.771,57.2 363.714,57.2 364.657,57.2 365.6,57.2 366.543,57.2 367.486,57.2 368.429,57.2 369.371,57.2 370.314,57.2 371.257,57.2 372.2,57.2 373.143,57.2 374.086,57.2 375.029,57.2 375.971,57.2 376.914,57.2 377.857,57.2 378.8,57.2 379.743,57.2 380.686,57.2 381.629,57.2 382.571,57.2 383.514,57.2 384.457,57.2 385.4,57.2 386.343,57.2 387.286,57.2 388.229,57.2 389.171,57.2 390.114,57.2 391.057,57.2 392,57.2 392.943,57.2 393.886,57.2 394.829,57.2 395.771,57.2 396.714,57.2 397.657,57.2 398.6,57.2 399.543,57.2 400.486,57.2 401.429,57.2 402.371,57.2 403.314,57.2 404.257,57.2 405.2,57.2 406.143,57.2 407.086,57.2 408.029,57.2 408.971,57.2 409.914,57.2 410.857,57.2 411.8,57.2 412.743,57.2 413.686,57.2 414.629,57.2 415.571,57.2 416.514,57.2 417.457,57.2 418.4,57.2 419.343,57.2 420.286,57.2 421.229,57.2 422.171,57.2 423.114,57.2 424.057,57.2 425,57.2 425.943,57.2 426.886,57.2 427.829,57.2 428.771,57.2 429.714,57.2 430.657,57.2 431.6,57.2 432.543,57.2 433.486,57.2 434.429,57.2 435.371,57.2 436.314,57.2 437.257,57.2 438.2,57.2 439.143,57.2 440.086,57.2 441.029,57.2 441.971,57.2 442.914,57.2 443.857,57.2 444.8,57.2 445.743,57.2 446.686,57.2 447.629,57.2 448.571,57.2 449.514,57.2 450.457,57.2 451.4,57.2 452.343,57.2 453.286,57.2 454.229,57.2 455.171,57.2 456.114,57.2 457.057,57.2 458,57.2 458.943,57.2 459.886,57.2 460.829,57.2 461.771,57.2 462.714,57.2 463.657,57.2 464.6,57.2 465.543,57.2 466.486,57.2 467.429,57.2 468.371,57.2 469.314,57.2 470.257,57.2 471.2,57.2 472.143,57.2 473.086,57.2 474.029,57.2 474.971,57.2 475.914,57.2 476.857,57.2 477.8,57.2 478.743,57.2 479.686,57.2 480.629,57.2 481.571,57.2 482.514,57.2 483.457,57.2 484.4,57.2 485.343,57.2 486.286,57.2 487.229,57.2 488.171,57.2 489.114,57.2 490.057,57.2 491,57.2 491.943,57.2 492.886,57.2 493.829,57.2 494.771,57.2 495.714,57.2 496.657,57.2 497.6,57.2 498.543,57.2 499.486,57.2 500.429,57.2 501.371,57.2 502.314,57.2 503.257,57.2 504.2,57.2 505.143,57.2 506.086,57.2 507.029,57.2 507.971,57.2 508.914,57.2 509.857,57.2 510.8,57.2 511.743,57.2 512.686,57.2 513.629,57.2 514.571,57.2 515.514,57.2 516.457,57.2 517.4,57.2 518.343,57.2 519.286,57.2 520.229,57.2 521.171,57.2 522.114,57.2 523.057,57.2 524,57.2 524.943,57.2 525.886,57.2 526.829,57.2 527.771,57.2 528.714,57.2 529.657,57.2 530.6,57.2 531.543,57.2 532.486,57.2 533.429,57.2 534.371,57.2 535.314,57.2 536.257,57.2 537.2,57.2 538.143,57.2 539.086,57.2 540.029,57.2 540.971,57.2 541.914,57.2 542.857,57.2 543.8,57.2 544.743,57.2 545.686,57.2 546.629,57.2 547.571,57.2 548.514,57.2 549.457,57.2 550.4,57.2 551.343,57.2 552.286,57.2 553.229,57.2 554.171,57.2 555.114,57.2 556.057,57.2 557,57.2 557.943,57.2 558.886,57.2 559.829,57.2 560.771,57.2 561.714,57.2 562.657,57.2 563.6,57.2 564.543,57.2 565.486,57.2 566.429,57.2 567.371,57.2 568.314,57.2 569.257,57.2 570.2,57.2 571.143,57.2 572.086,57.2 573.029,57.2 573.971,57.2 574.914,57.2 575.857,57.2 576.8,57.2 577.743,57.2 578.686,57.2 579.629,57.2 580.571,57.2 581.514,57.2 582.457,57.2 583.4,57.2 584.343,57.2 585.286,57.2 586.229,57.2 587.171,57.2 588.114,57.2 589.057,57.2 590,57.2 590.943,57.2 591.886,57.2 592.829,57.2 593.771,57.2 594.714,57.2 595.657,57.2 596.6,57.2 597.543,57.2 598.486,57.2 599.429,57.2 600.371,57.2 601.314,57.2 602.257,57.2 603.2,57.2 604.143,57.2 605.086,57.2 606.029,57.2 606.971,57.2 607.914,57.2 608.857,57.2 609.8,57.2 610.743,57.2 611.686,57.2 612.629,57.2 613.571,57.2 614.514,57.2 615.457,57.2 616.4,57.2 617.343,57.2 618.286,57.2 619.229,57.2 620.171,57.2 621.114,57.2 622.057,57.2 623,57.2 623.943,57.2 624.886,57.2 625.829,57.2 626.771,57.2 627.714,57.2 628.657,57.2 629.6,57.2 630.543,57.2 631.486,57.2 632.429,57.2 633.371,57.2 634.314,57.2 635.257,57.2 636.2,57.2 637.143,57.2 638.086,57.2 639.029,57.2 639.971,57.2 640.914,57.2 641.857,57.2 642.8,57.2 643.743,57.2 644.686,57.2 645.629,57.2 646.571,57.2 647.514,57.2 648.457,57.2 649.4,57.2 650.343,57.2 651.286,57.2 652.229,57.2 653.171,57.2 654.114,57.2 655.057,57.2 656,57.2 656.943,57.2 657.886,57.2 658.829,57.2 659.771,57.2 660.714,57.2 661.657,57.2 662.6,57.2 663.543,57.2 664.486,57.2 665.429,57.2 666.371,57.2 667.314,57.2 668.257,57.2 669.2,57.2 670.143,57.2 671.086,57.2 672.029,57.2 672.971,57.2 673.914,57.2 674.857,57.2 675.8,57.2 676.743,57.2 677.686,57.2 678.629,57.2 679.571,57.2 680.514,57.2 681.457,57.2 682.4,57.2 683.343,57.2 684.286,57.2 685.229,57.2 686.171,57.2 687.114,57.2 688.057,57.2 689,57.2 " />
</g>

<g fill="none" stroke="#c05cfb" stroke-opacity="1" stroke-width="1.26042" stroke-linecap="butt" stroke-linejoin="round" transform="matrix(0.6,0,0,0.6,0,0)"
font-family="Helvetica" font-size="13" font-weight="400" font-style="normal" 
>
<polyline fill="none" vector-effect="none" points="29,322.4 29,322.4 29,322.4 29.0003,322.4 29.0014,322.4 29.0071,322.4 29.0357,322.405 29.1785,322.51 29.2945,322.668 29.4105,322.871 29.4157,322.881 29.4157,322.881 29.4356,322.919 29.4356,322.919 29.4356,322.919 29.5294,323.111 29.6233,323.318 29.811,323.769 29.9429,324.108 30.415,325.416 30.8363,326.644 30.8857,326.789 31.1329,327.519 31.6683,329.101 31.8286,329.572 32.5055,331.54 32.7714,332.303 33.7143,334.957 34.6571,337.53 35.6,340.023 36.5429,342.438 37.4857,344.777 38.4286,347.042 39.3714,349.234 40.3143,351.354 41.2571,353.406 42.2,355.389 43.1429,357.305 44.0857,359.155 45.0286,360.941 45.9714,362.665 46.9143,364.326 47.8571,365.927 48.8,367.469 49.7429,368.953 50.6857,370.38 51.6286,371.752 52.5714,373.071 53.5143,374.336 54.4571,375.55 55.4,376.713 56.3429,377.828 57.2857,378.895 58.2286,379.915 59.1714,380.89 60.1143,381.82 61.0571,382.707 62,383.551 62.9429,384.355 63.8857,385.118 64.8286,385.842 65.7714,386.527 66.7143,387.175 67.6571,387.786 68.3819,388.231 68.3819,388.231 68.4957,388.299 68.4957,388.299 68.6,388.361 68.7043,388.423 68.913,388.545 69.3304,388.787 69.5429,388.909 70.4857,389.438 71.4286,389.952 72.3714,390.45 73.3143,390.932 74.2571,391.4 75.2,391.853 76.1429,392.293 77.0857,392.718 78.0286,393.131 78.9714,393.53 79.9143,393.918 80.8571,394.294 81.8,394.658 82.7429,395.012 83.6857,395.355 84.6286,395.688 85.5714,396.011 86.5143,396.325 87.4571,396.63 88.4,396.927 89.3429,397.216 90.2857,397.496 91.2286,397.769 92.1714,398.035 93.1143,398.294 94.0571,398.546 95,398.792 95.9429,399.031 96.8857,399.265 97.8286,399.493 98.7714,399.715 99.7143,399.932 100.657,400.144 101.6,400.35 102.543,400.552 103.486,400.749 104.429,400.941 105.371,401.129 106.314,401.313 107.257,401.493 108.2,401.668 109.143,401.84 110.086,402.007 111.029,402.171 111.971,402.332 112.914,402.488 113.857,402.642 114.8,402.792 115.743,402.938 116.686,403.082 117.629,403.222 118.571,403.36 119.514,403.494 120.457,403.626 121.4,403.755 122.343,403.881 123.286,404.004 124.229,404.125 125.171,404.243 126.114,404.359 127.057,404.472 128,404.583 128.943,404.692 129.886,404.798 130.829,404.902 131.771,405.004 132.714,405.104 133.657,405.202 134.6,405.298 135.543,405.391 136.486,405.483 137.429,405.573 138.371,405.661 139.314,405.747 140.257,405.832 141.2,405.914 142.143,405.995 143.086,406.075 144.029,406.152 144.971,406.228 145.914,406.303 146.857,406.375 147.8,406.447 148.743,406.517 149.686,406.585 150.629,406.652 151.571,406.717 152.514,406.781 153.457,406.844 154.4,406.905 155.343,406.966 156.286,407.024 157.229,407.082 158.171,407.138 159.114,407.193 160.057,407.247 161,407.3 161.943,407.351 162.886,407.402 163.829,407.451 164.771,407.499 165.714,407.546 166.657,407.592 167.6,407.637 168.543,407.681 169.486,407.724 170.429,407.767 171.371,407.808 172.314,407.848 173.257,407.887 174.2,407.925 175.143,407.963 176.086,407.999 177.029,408.035 177.971,408.07 178.914,408.104 179.857,408.137 180.8,408.169 181.743,408.201 182.686,408.232 183.629,408.262 184.571,408.291 185.514,408.32 186.457,408.348 187.4,408.375 188.343,408.401 189.286,408.427 190.229,408.452 191.171,408.477 192.114,408.501 193.057,408.524 194,408.546 194.943,408.568 195.886,408.59 196.829,408.611 197.771,408.631 198.714,408.651 199.657,408.67 200.6,408.689 201.543,408.707 202.486,408.724 203.429,408.741 204.371,408.758 205.314,408.774 206.257,408.79 207.2,408.805 208.143,408.82 209.086,408.834 210.029,408.848 210.971,408.861 211.914,408.874 212.857,408.887 213.8,408.899 214.743,408.911 215.686,408.922 216.629,408.933 217.571,408.944 218.514,408.954 219.457,408.964 220.4,408.974 221.343,408.983 222.286,408.992 223.229,409 224.171,409.009 225.114,409.016 226.057,409.024 227,409.032 227.943,409.039 228.886,409.045 229.829,409.052 230.771,409.058 231.714,409.064 232.657,409.07 233.6,409.075 234.543,409.081 235.486,409.086 236.429,409.09 237.371,409.095 238.314,409.099 239.257,409.103 240.2,409.107 241.143,409.111 242.086,409.114 243.029,409.117 243.971,409.121 244.914,409.123 245.857,409.126 246.8,409.129 247.743,409.131 248.686,409.133 249.629,409.135 250.571,409.137 251.514,409.139 252.457,409.14 253.4,409.142 254.343,409.143 255.286,409.144 256.229,409.145 257.171,409.146 258.114,409.147 259.057,409.147 260,409.148 260.943,409.148 261.886,409.148 262.829,409.148 263.771,409.148 264.714,409.148 265.657,409.148 266.6,409.148 267.543,409.148 268.486,409.147 269.429,409.147 270.371,409.146 271.314,409.145 272.257,409.144 273.2,409.143 274.143,409.143 275.086,409.142 276.029,409.14 276.971,409.139 277.914,409.138 278.857,409.137 279.8,409.135 280.743,409.134 281.686,409.132 282.629,409.131 283.571,409.129 284.514,409.128 285.457,409.126 286.4,409.124 287.343,409.122 288.286,409.121 289.229,409.119 290.171,409.117 291.114,409.115 292.057,409.113 293,409.111 293.943,409.109 294.886,409.107 295.829,409.105 296.771,409.103 297.714,409.1 298.657,409.098 299.6,409.096 300.543,409.094 301.486,409.092 302.429,409.089 303.371,409.087 304.314,409.085 305.257,409.082 306.2,409.08 307.143,409.078 308.086,409.075 309.029,409.073 309.971,409.071 310.914,409.068 311.857,409.066 312.8,409.063 313.743,409.061 314.686,409.059 315.629,409.056 316.571,409.054 317.514,409.051 318.457,409.049 319.4,409.046 320.343,409.044 321.286,409.041 322.229,409.039 323.171,409.036 324.114,409.034 325.057,409.032 326,409.029 326.943,409.027 327.886,409.024 328.829,409.022 329.771,409.019 330.714,409.017 331.657,409.015 332.6,409.012 333.543,409.01 334.486,409.007 335.429,409.005 336.371,409.003 337.314,409 338.257,408.998 339.2,408.995 340.143,408.993 341.086,408.991 342.029,408.988 342.971,408.986 343.914,408.984 344.857,408.982 345.8,408.979 346.743,408.977 347.686,408.975 348.629,408.972 349.571,408.97 350.514,408.968 351.457,408.966 352.4,408.964 353.343,408.961 354.286,408.959 355.229,408.957 356.171,408.955 357.114,408.953 358.057,408.951 359,408.949 359.943,408.947 360.886,408.944 361.829,408.942 362.771,408.94 363.714,408.938 364.657,408.936 365.6,408.934 366.543,408.932 367.486,408.93 368.429,408.928 369.371,408.926 370.314,408.925 371.257,408.923 372.2,408.921 373.143,408.919 374.086,408.917 375.029,408.915 375.971,408.913 376.914,408.911 377.857,408.91 378.8,408.908 379.743,408.906 380.686,408.904 381.629,408.903 382.571,408.901 383.514,408.899 384.457,408.898 385.4,408.896 386.343,408.894 387.286,408.893 388.229,408.891 389.171,408.889 390.114,408.888 391.057,408.886 392,408.885 392.943,408.883 393.886,408.882 394.829,408.88 395.771,408.878 396.714,408.877 397.657,408.875 398.6,408.874 399.543,408.873 400.486,408.871 401.429,408.87 402.371,408.868 403.314,408.867 404.257,408.866 405.2,408.864 406.143,408.863 407.086,408.862 408.029,408.86 408.971,408.859 409.914,408.858 410.857,408.856 411.8,408.855 412.743,408.854 413.686,408.853 414.629,408.851 415.571,408.85 416.514,408.849 417.457,408.848 418.4,408.847 419.343,408.845 420.286,408.844 421.229,408.843 422.171,408.842 423.114,408.841 424.057,408.84 425,408.839 425.943,408.838 426.886,408.837 427.829,408.836 428.771,408.835 429.714,408.834 430.657,408.833 431.6,408.832 432.543,408.831 433.486,408.83 434.429,408.829 435.371,408.828 436.314,408.827 437.257,408.826 438.2,408.825 439.143,408.824 440.086,408.823 441.029,408.822 441.971,408.821 442.914,408.82 443.857,408.82 444.8,408.819 445.743,408.818 446.686,408.817 447.629,408.816 448.571,408.816 449.514,408.815 450.457,408.814 451.4,408.813 452.343,408.812 453.286,408.812 454.229,408.811 455.171,408.81 456.114,408.809 457.057,408.809 458,408.808 458.943,408.807 459.886,408.807 460.829,408.806 461.771,408.805 462.714,408.805 463.657,408.804 464.6,408.803 465.543,408.803 466.486,408.802 467.429,408.801 468.371,408.801 469.314,408.8 470.257,408.8 471.2,408.799 472.143,408.798 473.086,408.798 474.029,408.797 474.971,408.797 475.914,408.796 476.857,408.796 477.8,408.795 478.743,408.794 479.686,408.794 480.629,408.793 481.571,408.793 482.514,408.792 483.457,408.792 484.4,408.791 485.343,408.791 486.286,408.79 487.229,408.79 488.171,408.79 489.114,408.789 490.057,408.789 491,408.788 491.943,408.788 492.886,408.787 493.829,408.787 494.771,408.786 495.714,408.786 496.657,408.786 497.6,408.785 498.543,408.785 499.486,408.784 500.429,408.784 501.371,408.784 502.314,408.783 503.257,408.783 504.2,408.782 505.143,408.782 506.086,408.782 507.029,408.781 507.971,408.781 508.914,408.781 509.857,408.78 510.8,408.78 511.743,408.78 512.686,408.779 513.629,408.779 514.571,408.779 515.514,408.778 516.457,408.778 517.4,408.778 518.343,408.777 519.286,408.777 520.229,408.777 521.171,408.777 522.114,408.776 523.057,408.776 524,408.776 524.943,408.775 525.886,408.775 526.829,408.775 527.771,408.775 528.714,408.774 529.657,408.774 530.6,408.774 531.543,408.774 532.486,408.773 533.429,408.773 534.371,408.773 535.314,408.773 536.257,408.772 537.2,408.772 538.143,408.772 539.086,408.772 540.029,408.772 540.971,408.771 541.914,408.771 542.857,408.771 543.8,408.771 544.743,408.771 545.686,408.77 546.629,408.77 547.571,408.77 548.514,408.77 549.457,408.77 550.4,408.769 551.343,408.769 552.286,408.769 553.229,408.769 554.171,408.769 555.114,408.768 556.057,408.768 557,408.768 557.943,408.768 558.886,408.768 559.829,408.768 560.771,408.767 561.714,408.767 562.657,408.767 563.6,408.767 564.543,408.767 565.486,408.767 566.429,408.767 567.371,408.766 568.314,408.766 569.257,408.766 570.2,408.766 571.143,408.766 572.086,408.766 573.029,408.766 573.971,408.765 574.914,408.765 575.857,408.765 576.8,408.765 577.743,408.765 578.686,408.765 579.629,408.765 580.571,408.765 581.514,408.764 582.457,408.764 583.4,408.764 584.343,408.764 585.286,408.764 586.229,408.764 587.171,408.764 588.114,408.764 589.057,408.764 590,408.763 590.943,408.763 591.886,408.763 592.829,408.763 593.771,408.763 594.714,408.763 595.657,408.763 596.6,408.763 597.543,408.763 598.486,408.763 599.429,408.763 600.371,408.762 601.314,408.762 602.257,408.762 603.2,408.762 604.143,408.762 605.086,408.762 606.029,408.762 606.971,408.762 607.914,408.762 608.857,408.762 609.8,408.762 610.743,408.762 611.686,408.762 612.629,408.761 613.571,408.761 614.514,408.761 615.457,408.761 616.4,408.761 617.343,408.761 618.286,408.761 619.229,408.761 620.171,408.761 621.114,408.761 622.057,408.761 623,408.761 623.943,408.761 624.886,408.761 625.829,408.761 626.771,408.761 627.714,408.76 628.657,408.76 629.6,408.76 630.543,408.76 631.486,408.76 632.429,408.76 633.371,408.76 634.314,408.76 635.257,408.76 636.2,408.76 637.143,408.76 638.086,408.76 639.029,408.76 639.971,408.76 640.914,408.76 641.857,408.76 642.8,408.76 643.743,408.76 644.686,408.76 645.629,408.76 646.571,408.76 647.514,408.759 648.457,408.759 649.4,408.759 650.343,408.759 651.286,408.759 652.229,408.759 653.171,408.759 654.114,408.759 655.057,408.759 656,408.759 656.943,408.759 657.886,408.759 658.829,408.759 659.771,408.759 660.714,408.759 661.657,408.759 662.6,408.759 663.543,408.759 664.486,408.759 665.429,408.759 666.371,408.759 667.314,408.759 668.257,408.759 669.2,408.759 670.143,408.759 671.086,408.759 672.029,408.759 672.971,408.759 673.914,408.759 674.857,408.759 675.8,408.759 676.743,408.758 677.686,408.758 678.629,408.758 679.571,408.758 680.514,408.758 681.457,408.758 682.4,408.758 683.343,408.758 684.286,408.758 685.229,408.758 686.171,408.758 687.114,408.758 688.057,408.758 689,408.758 " />
</g>

<g fill="none" stroke="#6cf4ff" stroke-opacity="1" stroke-width="1.26042" stroke-linecap="butt" stroke-linejoin="round" transform="matrix(0.6,0,0,0.6,0,0)"
font-family="Helvetica" font-size="13" font-weight="400" font-style="normal" 
>
<polyline fill="none" vector-effect="none" points="29,410.8 29,410.8 29,410.8 29.0003,410.8 29.0014,410.8 29.0071,410.8 29.0357,410.8 29.1785,410.8 29.2945,410.8 29.4105,410.8 29.4157,410.8 29.4157,410.8 29.4356,410.8 29.4356,410.8 29.4356,410.8 29.5294,410.8 29.6233,410.8 29.811,410.8 29.9429,410.8 30.415,410.8 30.8363,410.8 30.8857,410.8 31.1329,410.8 31.6683,410.8 31.8286,410.8 32.5055,410.8 32.7714,410.8 33.7143,410.8 34.6571,410.8 35.6,410.8 36.5429,410.8 37.4857,410.8 38.4286,410.8 39.3714,410.8 40.3143,410.8 41.2571,410.8 42.2,410.8 43.1429,410.8 44.0857,410.8 45.0286,410.8 45.9714,410.8 46.9143,410.8 47.8571,410.8 48.8,410.8 49.7429,410.8 50.6857,410.8 51.6286,410.8 52.5714,410.8 53.5143,410.8 54.4571,410.8 55.4,410.8 56.3429,410.8 57.2857,410.8 58.2286,410.8 59.1714,410.8 60.1143,410.8 61.0571,410.8 62,410.8 62.9429,410.8 63.8857,410.8 64.8286,410.8 65.7714,410.8 66.7143,410.8 67.6571,410.8 68.3819,410.8 68.3819,410.8 68.4957,410.8 68.4957,410.8 68.6,410.8 68.7043,410.8 68.913,410.8 69.3304,410.8 69.5429,410.8 70.4857,410.8 71.4286,410.8 72.3714,410.8 73.3143,410.8 74.2571,410.8 75.2,410.8 76.1429,410.8 77.0857,410.8 78.0286,410.8 78.9714,410.8 79.9143,410.8 80.8571,410.8 81.8,410.8 82.7429,410.8 83.6857,410.8 84.6286,410.8 85.5714,410.8 86.5143,410.8 87.4571,410.8 88.4,410.8 89.3429,410.8 90.2857,410.8 91.2286,410.8 92.1714,410.8 93.1143,410.8 94.0571,410.8 95,410.8 95.9429,410.8 96.8857,410.8 97.8286,410.8 98.7714,410.8 99.7143,410.8 100.657,410.8 101.6,410.8 102.543,410.8 103.486,410.8 104.429,410.8 105.371,410.8 106.314,410.8 107.257,410.8 108.2,410.8 109.143,410.8 110.086,410.8 111.029,410.8 111.971,410.8 112.914,410.8 113.857,410.8 114.8,410.8 115.743,410.8 116.686,410.8 117.629,410.8 118.571,410.8 119.514,410.8 120.457,410.8 121.4,410.8 122.343,410.8 123.286,410.8 124.229,410.8 125.171,410.8 126.114,410.8 127.057,410.8 128,410.8 128.943,410.8 129.886,410.8 130.829,410.8 131.771,410.8 132.714,410.8 133.657,410.8 134.6,410.8 135.543,410.8 136.486,410.8 137.429,410.8 138.371,410.8 139.314,410.8 140.257,410.8 141.2,410.8 142.143,410.8 143.086,410.8 144.029,410.8 144.971,410.8 145.914,410.8 146.857,410.8 147.8,410.8 148.743,410.8 149.686,410.8 150.629,410.8 151.571,410.8 152.514,410.8 153.457,410.8 154.4,410.8 155.343,410.8 156.286,410.8 157.229,410.8 158.171,410.8 159.114,410.8 160.057,410.8 161,410.8 161.943,410.8 162.886,410.8 163.829,410.8 164.771,410.8 165.714,410.8 166.657,410.8 167.6,410.8 168.543,410.8 169.486,410.8 170.429,410.8 171.371,410.8 172.314,410.8 173.257,410.8 174.2,410.8 175.143,410.8 176.086,410.8 177.029,410.8 177.971,410.8 178.914,410.8 179.857,410.8 180.8,410.8 181.743,410.8 182.686,410.8 183.629,410.8 184.571,410.8 185.514,410.8 186.457,410.8 187.4,410.8 188.343,410.8 189.286,410.8 190.229,410.8 191.171,410.8 192.114,410.8 193.057,410.8 194,410.8 194.943,410.8 195.886,410.8 196.829,410.8 197.771,410.8 198.714,410.8 199.657,410.8 200.6,410.8 201.543,410.8 202.486,410.8 203.429,410.8 204.371,410.8 205.314,410.8 206.257,410.8 207.2,410.8 208.143,410.8 209.086,410.8 210.029,410.8 210.971,410.8 211.914,410.8 212.857,410.8 213.8,410.8 214.743,410.8 215.686,410.8 216.629,410.8 217.571,410.8 218.514,410.8 219.457,410.8 220.4,410.8 221.343,410.8 222.286,410.8 223.229,410.8 224.171,410.8 225.114,410.8 226.057,410.8 227,410.8 227.943,410.8 228.886,410.8 229.829,410.8 230.771,410.8 231.714,410.8 232.657,410.8 233.6,410.8 234.543,410.8 235.486,410.8 236.429,410.8 237.371,410.8 238.314,410.8 239.257,410.8 240.2,410.8 241.143,410.8 242.086,410.8 243.029,410.8 243.971,410.8 244.914,410.8 245.857,410.8 246.8,410.8 247.743,410.8 248.686,410.8 249.629,410.8 250.571,410.8 251.514,410.8 252.457,410.8 253.4,410.8 254.343,410.8 255.286,410.8 256.229,410.8 257.171,410.8 258.114,410.8 259.057,410.8 260,410.8 260.943,410.8 261.886,410.8 262.829,410.8 263.771,410.8 264.714,410.8 265.657,410.8 266.6,410.8 267.543,410.8 268.486,410.8 269.429,410.8 270.371,410.8 271.314,410.8 272.257,410.8 273.2,410.8 274.143,410.8 275.086,410.8 276.029,410.8 276.971,410.8 277.914,410.8 278.857,410.8 279.8,410.8 280.743,410.8 281.686,410.8 282.629,410.8 283.571,410.8 284.514,410.8 285.457,410.8 286.4,410.8 287.343,410.8 288.286,410.8 289.229,410.8 290.171,410.8 291.114,410.8 292.057,410.8 293,410.8 293.943,410.8 294.886,410.8 295.829,410.8 296.771,410.8 297.714,410.8 298.657,410.8 299.6,410.8 300.543,410.8 301.486,410.8 302.429,410.8 303.371,410.8 304.314,410.8 305.257,410.8 306.2,410.8 307.143,410.8 308.086,410.8 309.029,410.8 309.971,410.8 310.914,410.8 311.857,410.8 312.8,410.8 313.743,410.8 314.686,410.8 315.629,410.8 316.571,410.8 317.514,410.8 318.457,410.8 319.4,410.8 320.343,410.8 321.286,410.8 322.229,410.8 323.171,410.8 324.114,410.8 325.057,410.8 326,410.8 326.943,410.8 327.886,410.8 328.829,410.8 329.771,410.8 330.714,410.8 331.657,410.8 332.6,410.8 333.543,410.8 334.486,410.8 335.429,410.8 336.371,410.8 337.314,410.8 338.257,410.8 339.2,410.8 340.143,410.8 341.086,410.8 342.029,410.8 342.971,410.8 343.914,410.8 344.857,410.8 345.8,410.8 346.743,410.8 347.686,410.8 348.629,410.8 349.571,410.8 350.514,410.8 351.457,410.8 352.4,410.8 353.343,410.8 354.286,410.8 355.229,410.8 356.171,410.8 357.114,410.8 358.057,410.8 359,410.8 359.943,410.8 360.886,410.8 361.829,410.8 362.771,410.8 363.714,410.8 364.657,410.8 365.6,410.8 366.543,410.8 367.486,410.8 368.429,410.8 369.371,410.8 370.314,410.8 371.257,410.8 372.2,410.8 373.143,410.8 374.086,410.8 375.029,410.8 375.971,410.8 376.914,410.8 377.857,410.8 378.8,410.8 379.743,410.8 380.686,410.8 381.629,410.8 382.571,410.8 383.514,410.8 384.457,410.8 385.4,410.8 386.343,410.8 387.286,410.8 388.229,410.8 389.171,410.8 390.114,410.8 391.057,410.8 392,410.8 392.943,410.8 393.886,410.8 394.829,410.8 395.771,410.8 396.714,410.8 397.657,410.8 398.6,410.8 399.543,410.8 400.486,410.8 401.429,410.8 402.371,410.8 403.314,410.8 404.257,410.8 405.2,410.8 406.143,410.8 407.086,410.8 408.029,410.8 408.971,410.8 409.914,410.8 410.857,410.8 411.8,410.8 412.743,410.8 413.686,410.8 414.629,410.8 415.571,410.8 416.514,410.8 417.457,410.8 418.4,410.8 419.343,410.8 420.286,410.8 421.229,410.8 422.171,410.8 423.114,410.8 424.057,410.8 425,410.8 425.943,410.8 426.886,410.8 427.829,410.8 428.771,410.8 429.714,410.8 430.657,410.8 431.6,410.8 432.543,410.8 433.486,410.8 434.429,410.8 435.371,410.8 436.314,410.8 437.257,410.8 438.2,410.8 439.143,410.8 440.086,410.8 441.029,410.8 441.971,410.8 442.914,410.8 443.857,410.8 444.8,410.8 445.743,410.8 446.686,410.8 447.629,410.8 448.571,410.8 449.514,410.8 450.457,410.8 451.4,410.8 452.343,410.8 453.286,410.8 454.229,410.8 455.171,410.8 456.114,410.8 457.057,410.8 458,410.8 458.943,410.8 459.886,410.8 460.829,410.8 461.771,410.8 462.714,410.8 463.657,410.8 464.6,410.8 465.543,410.8 466.486,410.8 467.429,410.8 468.371,410.8 469.314,410.8 470.257,410.8 471.2,410.8 472.143,410.8 473.086,410.8 474.029,410.8 474.971,410.8 475.914,410.8 476.857,410.8 477.8,410.8 478.743,410.8 479.686,410.8 480.629,410.8 481.571,410.8 482.514,410.8 483.457,410.8 484.4,410.8 485.343,410.8 486.286,410.8 487.229,410.8 488.171,410.8 489.114,410.8 490.057,410.8 491,410.8 491.943,410.8 492.886,410.8 493.829,410.8 494.771,410.8 495.714,410.8 496.657,410.8 497.6,410.8 498.543,410.8 499.486,410.8 500.429,410.8 501.371,410.8 502.314,410.8 503.257,410.8 504.2,410.8 505.143,410.8 506.086,410.8 507.029,410.8 507.971,410.8 508.914,410.8 509.857,410.8 510.8,410.8 511.743,410.8 512.686,410.8 513.629,410.8 514.571,410.8 515.514,410.8 516.457,410.8 517.4,410.8 518.343,410.8 519.286,410.8 520.229,410.8 521.171,410.8 522.114,410.8 523.057,410.8 524,410.8 524.943,410.8 525.886,410.8 526.829,410.8 527.771,410.8 528.714,410.8 529.657,410.8 530.6,410.8 531.543,410.8 532.486,410.8 533.429,410.8 534.371,410.8 535.314,410.8 536.257,410.8 537.2,410.8 538.143,410.8 539.086,410.8 540.029,410.8 540.971,410.8 541.914,410.8 542.857,410.8 543.8,410.8 544.743,410.8 545.686,410.8 546.629,410.8 547.571,410.8 548.514,410.8 549.457,410.8 550.4,410.8 551.343,410.8 552.286,410.8 553.229,410.8 554.171,410.8 555.114,410.8 556.057,410.8 557,410.8 557.943,410.8 558.886,410.8 559.829,410.8 560.771,410.8 561.714,410.8 562.657,410.8 563.6,410.8 564.543,410.8 565.486,410.8 566.429,410.8 567.371,410.8 568.314,410.8 569.257,410.8 570.2,410.8 571.143,410.8 572.086,410.8 573.029,410.8 573.971,410.8 574.914,410.8 575.857,410.8 576.8,410.8 577.743,410.8 578.686,410.8 579.629,410.8 580.571,410.8 581.514,410.8 582.457,410.8 583.4,410.8 584.343,410.8 585.286,410.8 586.229,410.8 587.171,410.8 588.114,410.8 589.057,410.8 590,410.8 590.943,410.8 591.886,410.8 592.829,410.8 593.771,410.8 594.714,410.8 595.657,410.8 596.6,410.8 597.543,410.8 598.486,410.8 599.429,410.8 600.371,410.8 601.314,410.8 602.257,410.8 603.2,410.8 604.143,410.8 605.086,410.8 606.029,410.8 606.971,410.8 607.914,410.8 608.857,410.8 609.8,410.8 610.743,410.8 611.686,410.8 612.629,410.8 613.571,410.8 614.514,410.8 615.457,410.8 616.4,410.8 617.343,410.8 618.286,410.8 619.229,410.8 620.171,410.8 621.114,410.8 622.057,410.8 623,410.8 623.943,410.8 624.886,410.8 625.829,410.8 626.771,410.8 627.714,410.8 628.657,410.8 629.6,410.8 630.543,410.8 631.486,410.8 632.429,410.8 633.371,410.8 634.314,410.8 635.257,410.8 636.2,410.8 637.143,410.8 638.086,410.8 639.029,410.8 639.971,410.8 640.914,410.8 641.857,410.8 642.8,410.8 643.743,410.8 644.686,410.8 645.629,410.8 646.571,410.8 647.514,410.8 648.457,410.8 649.4,410.8 650.343,410.8 651.286,410.8 652.229,410.8 653.171,410.8 654.114,410.8 655.057,410.8 656,410.8 656.943,410.8 657.886,410.8 658.829,410.8 659.771,410.8 660.714,410.8 661.657,410.8 662.6,410.8 663.543,410.8 664.486,410.8 665.429,410.8 666.371,410.8 667.314,410.8 668.257,410.8 669.2,410.8 670.143,410.8 671.086,410.8 672.029,410.8 672.971,410.8 673.914,410.8 674.857,410.8 675.8,410.8 676.743,410.8 677.686,410.8 678.629,410.8 679.571,410.8 680.514,410.8 681.457,410.8 682.4,410.8 683.343,410.8 684.286,410.8 685.229,410.8 686.171,410.8 687.114,410.8 688.057,410.8 689,410.8 " />
</g>
</g>
</svg>
